SplineFontDB: 3.2
FontName: Test
FullName: Test
FamilyName: Test
Weight: Regular
Copyright: Copyright (c) 2024, Siwy
UComments: "2024-11-29: Created with FontForge (http://fontforge.org)"
Version: 001.000
ItalicAngle: 0
UnderlinePosition: -100
UnderlineWidth: 50
Ascent: 800
Descent: 200
InvalidEm: 0
LayerCount: 2
Layer: 0 0 "Back" 1
Layer: 1 0 "Fore" 0
XUID: [1021 416 1312411310 7783]
OS2Version: 0
OS2_WeightWidthSlopeOnly: 0
OS2_UseTypoMetrics: 1
CreationTime: 1732886346
ModificationTime: 1733063809
OS2TypoAscent: 0
OS2TypoAOffset: 1
OS2TypoDescent: 0
OS2TypoDOffset: 1
OS2TypoLinegap: 0
OS2WinAscent: 0
OS2WinAOffset: 1
OS2WinDescent: 0
OS2WinDOffset: 1
HheadAscent: 0
HheadAOffset: 1
HheadDescent: 0
HheadDOffset: 1
OS2Vendor: 'PfEd'
MarkAttachClasses: 1
DEI: 91125
Encoding: ISO8859-1
UnicodeInterp: none
NameList: AGL For New Fonts
DisplaySize: -48
AntiAlias: 1
FitToEm: 0
WinInfo: 0 26 11
BeginPrivate: 0
EndPrivate
BeginChars: 256 52

StartChar: A
Encoding: 65 65 0
Width: 1000
Flags: HW
LayerCount: 2
Fore
SplineSet
480.706054688 308.7109375 m 4
 463.87890625 316.900390625 449.748046875 326.63671875 440.379882812 336.493164062 c 4
 430.174804688 347.231445312 426.575195312 357.62890625 425.458984375 379.594726562 c 6
 424.66015625 395.329101562 l 1
 418.646484375 387.524414062 l 6
 403.748046875 368.186523438 377.176757812 346.608398438 354.018554688 335.041015625 c 0
 312.806640625 314.456054688 261.592773438 312.596679688 196.35546875 329.31640625 c 0
 171.200195312 335.763671875 156.028320312 341.83203125 129.912109375 355.891601562 c 4
 72.5791015625 386.756835938 54.3935546875 400.333984375 30.681640625 429.970703125 c 4
 8.8720703125 457.231445312 -1.9521484375 497.48046875 0.2900390625 542.98828125 c 4
 4.498046875 628.413085938 36.25390625 713.317382812 80.904296875 758.522460938 c 4
 90.7177734375 768.458007812 96.3974609375 773.001953125 103.0546875 776.244140625 c 4
 107.978515625 778.641601562 115.725585938 782.75390625 120.271484375 785.381835938 c 4
 144.802734375 799.565429688 181.55078125 803.767578125 217.453125 796.4921875 c 4
 246.02734375 790.702148438 273.143554688 780.081054688 304.97265625 762.212890625 c 4
 322.848632812 752.176757812 365.265625 724.067382812 379.208007812 713.015625 c 4
 401.833984375 695.08203125 426.905273438 668.419921875 440.403320312 647.935546875 c 4
 443.759765625 642.841796875 446.73046875 638.8984375 447.00390625 639.172851562 c 4
 447.278320312 639.446289062 448.66015625 647.233398438 450.076171875 656.4765625 c 4
 451.491210938 665.719726562 452.900390625 673.533203125 453.206054688 673.83984375 c 4
 453.59375 674.2265625 491.819335938 654.833007812 499.259765625 650.474609375 c 4
 499.383789062 650.40234375 498.9453125 647.553710938 498.28515625 644.145507812 c 4
 495.9296875 631.978515625 488.727132942 581.065364266 486.009765625 557.374023438 c 0
 477.78125 485.633789062 473.962890625 436.178710938 472.6640625 384.51953125 c 4
 471.73828125 347.755859375 472.608398438 339.639648438 478.826171875 327.016601562 c 4
 480.970703125 322.66015625 482.600585938 319.096679688 482.446289062 319.096679688 c 4
 482.291992188 319.096679688 479.266601562 320.716796875 475.72265625 322.697265625 c 4
 472.178710938 324.678710938 468.98828125 326.0078125 468.633789062 325.65234375 c 4
 468.278320312 325.297851562 474.198242188 320.188476562 481.790039062 314.298828125 c 4
 500.3046875 299.93359375 500.169921875 299.237304688 480.706054688 308.7109375 c 4
262.36328125 349.493164062 m 4
 316.016601562 355.475585938 363.94921875 390.012695312 396.129882812 445.875976562 c 4
 415.481445312 479.469726562 426.244140625 511.994140625 429.657226562 547.196289062 c 4
 433.420898438 586.009765625 421.912109375 627.424804688 396.98046875 664.788085938 c 4
 385.587890625 681.861328125 375.345703125 693.888671875 357.671875 710.9453125 c 4
 339.9140625 728.084960938 319.578125 743.9296875 312.408203125 746.21484375 c 4
 309.756835938 747.059570312 303.868164062 749.783203125 299.323242188 752.266601562 c 4
 289.1015625 757.8515625 268.154296875 764.622070312 252.162109375 767.510742188 c 4
 232.916992188 770.986328125 204.65625 770.403320312 188.140625 766.189453125 c 4
 152.510742188 757.098632812 127.602539062 734.58203125 106.458984375 692.3515625 c 4
 93.935546875 667.337890625 88.27734375 644.505859375 89.578125 624.23828125 c 6
 90.22265625 614.188476562 l 5
 82.708984375 617.51171875 l 6
 78.576171875 619.338867188 72.83203125 622.040039062 69.9453125 623.512695312 c 6
 64.6943359375 626.19140625 l 5
 62.5791015625 619.672851562 l 6
 50.19921875 581.541015625 43.0576171875 525.126953125 46.28125 490.94140625 c 4
 48.482421875 467.598632812 53.341796875 449.569335938 62.34375 431.348632812 c 4
 68.4794921875 418.930664062 72.142578125 413.651367188 82.654296875 402.079101562 c 4
 94.5234375 389.013671875 109.887695312 375.56640625 112.94921875 375.56640625 c 4
 113.663085938 375.56640625 120.87109375 372.737304688 128.966796875 369.278320312 c 4
 149.922851562 360.32421875 181.48046875 352.513671875 211.174804688 348.931640625 c 4
 220.578125 347.796875 250.056640625 348.120117188 262.36328125 349.493164062 c 4
EndSplineSet
EndChar

StartChar: B
Encoding: 66 66 1
Width: 1000
Flags: HW
LayerCount: 2
Fore
SplineSet
480.706054688 308.7109375 m 4
 463.87890625 316.900390625 449.748046875 326.63671875 440.379882812 336.493164062 c 4
 430.174804688 347.231445312 426.575195312 357.62890625 425.458984375 379.594726562 c 6
 424.66015625 395.329101562 l 1
 418.646484375 387.524414062 l 6
 403.748046875 368.186523438 377.176757812 346.608398438 354.018554688 335.041015625 c 0
 312.806640625 314.456054688 261.592773438 312.596679688 196.35546875 329.31640625 c 0
 171.200195312 335.763671875 156.028320312 341.83203125 129.912109375 355.891601562 c 4
 72.5791015625 386.756835938 54.3935546875 400.333984375 30.681640625 429.970703125 c 4
 8.8720703125 457.231445312 -1.9521484375 497.48046875 0.2900390625 542.98828125 c 4
 4.498046875 628.413085938 36.25390625 713.317382812 80.904296875 758.522460938 c 4
 90.7177734375 768.458007812 96.3974609375 773.001953125 103.0546875 776.244140625 c 4
 107.978515625 778.641601562 115.725585938 782.75390625 120.271484375 785.381835938 c 4
 144.802734375 799.565429688 181.55078125 803.767578125 217.453125 796.4921875 c 4
 246.02734375 790.702148438 273.143554688 780.081054688 304.97265625 762.212890625 c 4
 322.848632812 752.176757812 365.265625 724.067382812 379.208007812 713.015625 c 4
 401.833984375 695.08203125 426.905273438 668.419921875 440.403320312 647.935546875 c 4
 443.759765625 642.841796875 446.73046875 638.8984375 447.00390625 639.172851562 c 4
 447.278320312 639.446289062 448.66015625 647.233398438 450.076171875 656.4765625 c 4
 451.491210938 665.719726562 452.900390625 673.533203125 453.206054688 673.83984375 c 4
 453.59375 674.2265625 491.819335938 654.833007812 499.259765625 650.474609375 c 4
 499.383789062 650.40234375 498.9453125 647.553710938 498.28515625 644.145507812 c 4
 495.9296875 631.978515625 488.727132942 581.065364266 486.009765625 557.374023438 c 0
 477.78125 485.633789062 473.962890625 436.178710938 472.6640625 384.51953125 c 4
 471.73828125 347.755859375 472.608398438 339.639648438 478.826171875 327.016601562 c 4
 480.970703125 322.66015625 482.600585938 319.096679688 482.446289062 319.096679688 c 4
 482.291992188 319.096679688 479.266601562 320.716796875 475.72265625 322.697265625 c 4
 472.178710938 324.678710938 468.98828125 326.0078125 468.633789062 325.65234375 c 4
 468.278320312 325.297851562 474.198242188 320.188476562 481.790039062 314.298828125 c 4
 500.3046875 299.93359375 500.169921875 299.237304688 480.706054688 308.7109375 c 4
262.36328125 349.493164062 m 4
 316.016601562 355.475585938 363.94921875 390.012695312 396.129882812 445.875976562 c 4
 415.481445312 479.469726562 426.244140625 511.994140625 429.657226562 547.196289062 c 4
 433.420898438 586.009765625 421.912109375 627.424804688 396.98046875 664.788085938 c 4
 385.587890625 681.861328125 375.345703125 693.888671875 357.671875 710.9453125 c 4
 339.9140625 728.084960938 319.578125 743.9296875 312.408203125 746.21484375 c 4
 309.756835938 747.059570312 303.868164062 749.783203125 299.323242188 752.266601562 c 4
 289.1015625 757.8515625 268.154296875 764.622070312 252.162109375 767.510742188 c 4
 232.916992188 770.986328125 204.65625 770.403320312 188.140625 766.189453125 c 4
 152.510742188 757.098632812 127.602539062 734.58203125 106.458984375 692.3515625 c 4
 93.935546875 667.337890625 88.27734375 644.505859375 89.578125 624.23828125 c 6
 90.22265625 614.188476562 l 5
 82.708984375 617.51171875 l 6
 78.576171875 619.338867188 72.83203125 622.040039062 69.9453125 623.512695312 c 6
 64.6943359375 626.19140625 l 5
 62.5791015625 619.672851562 l 6
 50.19921875 581.541015625 43.0576171875 525.126953125 46.28125 490.94140625 c 4
 48.482421875 467.598632812 53.341796875 449.569335938 62.34375 431.348632812 c 4
 68.4794921875 418.930664062 72.142578125 413.651367188 82.654296875 402.079101562 c 4
 94.5234375 389.013671875 109.887695312 375.56640625 112.94921875 375.56640625 c 4
 113.663085938 375.56640625 120.87109375 372.737304688 128.966796875 369.278320312 c 4
 149.922851562 360.32421875 181.48046875 352.513671875 211.174804688 348.931640625 c 4
 220.578125 347.796875 250.056640625 348.120117188 262.36328125 349.493164062 c 4
EndSplineSet
EndChar

StartChar: a
Encoding: 97 97 2
Width: 1000
Flags: HO
LayerCount: 2
Fore
SplineSet
480.706054688 308.7109375 m 4
 463.87890625 316.900390625 449.748046875 326.63671875 440.379882812 336.493164062 c 4
 430.174804688 347.231445312 426.575195312 357.62890625 425.458984375 379.594726562 c 6
 424.66015625 395.329101562 l 1
 418.646484375 387.524414062 l 6
 403.748046875 368.186523438 377.176757812 346.608398438 354.018554688 335.041015625 c 0
 312.806640625 314.456054688 261.592773438 312.596679688 196.35546875 329.31640625 c 0
 171.200195312 335.763671875 156.028320312 341.83203125 129.912109375 355.891601562 c 4
 72.5791015625 386.756835938 54.3935546875 400.333984375 30.681640625 429.970703125 c 4
 8.8720703125 457.231445312 -1.9521484375 497.48046875 0.2900390625 542.98828125 c 4
 4.498046875 628.413085938 36.25390625 713.317382812 80.904296875 758.522460938 c 4
 90.7177734375 768.458007812 96.3974609375 773.001953125 103.0546875 776.244140625 c 4
 107.978515625 778.641601562 115.725585938 782.75390625 120.271484375 785.381835938 c 4
 144.802734375 799.565429688 181.55078125 803.767578125 217.453125 796.4921875 c 4
 246.02734375 790.702148438 273.143554688 780.081054688 304.97265625 762.212890625 c 4
 322.848632812 752.176757812 365.265625 724.067382812 379.208007812 713.015625 c 4
 401.833984375 695.08203125 426.905273438 668.419921875 440.403320312 647.935546875 c 4
 443.759765625 642.841796875 446.73046875 638.8984375 447.00390625 639.172851562 c 4
 447.278320312 639.446289062 448.66015625 647.233398438 450.076171875 656.4765625 c 4
 451.491210938 665.719726562 452.900390625 673.533203125 453.206054688 673.83984375 c 4
 453.59375 674.2265625 491.819335938 654.833007812 499.259765625 650.474609375 c 4
 499.383789062 650.40234375 498.9453125 647.553710938 498.28515625 644.145507812 c 4
 495.9296875 631.978515625 488.727132942 581.065364266 486.009765625 557.374023438 c 0
 477.78125 485.633789062 473.962890625 436.178710938 472.6640625 384.51953125 c 4
 471.73828125 347.755859375 472.608398438 339.639648438 478.826171875 327.016601562 c 4
 480.970703125 322.66015625 482.600585938 319.096679688 482.446289062 319.096679688 c 4
 482.291992188 319.096679688 479.266601562 320.716796875 475.72265625 322.697265625 c 4
 472.178710938 324.678710938 468.98828125 326.0078125 468.633789062 325.65234375 c 4
 468.278320312 325.297851562 474.198242188 320.188476562 481.790039062 314.298828125 c 4
 500.3046875 299.93359375 500.169921875 299.237304688 480.706054688 308.7109375 c 4
262.36328125 349.493164062 m 4
 316.016601562 355.475585938 363.94921875 390.012695312 396.129882812 445.875976562 c 4
 415.481445312 479.469726562 426.244140625 511.994140625 429.657226562 547.196289062 c 4
 433.420898438 586.009765625 421.912109375 627.424804688 396.98046875 664.788085938 c 4
 385.587890625 681.861328125 375.345703125 693.888671875 357.671875 710.9453125 c 4
 339.9140625 728.084960938 319.578125 743.9296875 312.408203125 746.21484375 c 4
 309.756835938 747.059570312 303.868164062 749.783203125 299.323242188 752.266601562 c 4
 289.1015625 757.8515625 268.154296875 764.622070312 252.162109375 767.510742188 c 4
 232.916992188 770.986328125 204.65625 770.403320312 188.140625 766.189453125 c 4
 152.510742188 757.098632812 127.602539062 734.58203125 106.458984375 692.3515625 c 4
 93.935546875 667.337890625 88.27734375 644.505859375 89.578125 624.23828125 c 6
 90.22265625 614.188476562 l 5
 82.708984375 617.51171875 l 6
 78.576171875 619.338867188 72.83203125 622.040039062 69.9453125 623.512695312 c 6
 64.6943359375 626.19140625 l 5
 62.5791015625 619.672851562 l 6
 50.19921875 581.541015625 43.0576171875 525.126953125 46.28125 490.94140625 c 4
 48.482421875 467.598632812 53.341796875 449.569335938 62.34375 431.348632812 c 4
 68.4794921875 418.930664062 72.142578125 413.651367188 82.654296875 402.079101562 c 4
 94.5234375 389.013671875 109.887695312 375.56640625 112.94921875 375.56640625 c 4
 113.663085938 375.56640625 120.87109375 372.737304688 128.966796875 369.278320312 c 4
 149.922851562 360.32421875 181.48046875 352.513671875 211.174804688 348.931640625 c 4
 220.578125 347.796875 250.056640625 348.120117188 262.36328125 349.493164062 c 4
EndSplineSet
EndChar

StartChar: C
Encoding: 67 67 3
Width: 1000
Flags: HW
LayerCount: 2
Fore
SplineSet
480.706054688 308.7109375 m 4
 463.87890625 316.900390625 449.748046875 326.63671875 440.379882812 336.493164062 c 4
 430.174804688 347.231445312 426.575195312 357.62890625 425.458984375 379.594726562 c 6
 424.66015625 395.329101562 l 1
 418.646484375 387.524414062 l 6
 403.748046875 368.186523438 377.176757812 346.608398438 354.018554688 335.041015625 c 0
 312.806640625 314.456054688 261.592773438 312.596679688 196.35546875 329.31640625 c 0
 171.200195312 335.763671875 156.028320312 341.83203125 129.912109375 355.891601562 c 4
 72.5791015625 386.756835938 54.3935546875 400.333984375 30.681640625 429.970703125 c 4
 8.8720703125 457.231445312 -1.9521484375 497.48046875 0.2900390625 542.98828125 c 4
 4.498046875 628.413085938 36.25390625 713.317382812 80.904296875 758.522460938 c 4
 90.7177734375 768.458007812 96.3974609375 773.001953125 103.0546875 776.244140625 c 4
 107.978515625 778.641601562 115.725585938 782.75390625 120.271484375 785.381835938 c 4
 144.802734375 799.565429688 181.55078125 803.767578125 217.453125 796.4921875 c 4
 246.02734375 790.702148438 273.143554688 780.081054688 304.97265625 762.212890625 c 4
 322.848632812 752.176757812 365.265625 724.067382812 379.208007812 713.015625 c 4
 401.833984375 695.08203125 426.905273438 668.419921875 440.403320312 647.935546875 c 4
 443.759765625 642.841796875 446.73046875 638.8984375 447.00390625 639.172851562 c 4
 447.278320312 639.446289062 448.66015625 647.233398438 450.076171875 656.4765625 c 4
 451.491210938 665.719726562 452.900390625 673.533203125 453.206054688 673.83984375 c 4
 453.59375 674.2265625 491.819335938 654.833007812 499.259765625 650.474609375 c 4
 499.383789062 650.40234375 498.9453125 647.553710938 498.28515625 644.145507812 c 4
 495.9296875 631.978515625 488.727132942 581.065364266 486.009765625 557.374023438 c 0
 477.78125 485.633789062 473.962890625 436.178710938 472.6640625 384.51953125 c 4
 471.73828125 347.755859375 472.608398438 339.639648438 478.826171875 327.016601562 c 4
 480.970703125 322.66015625 482.600585938 319.096679688 482.446289062 319.096679688 c 4
 482.291992188 319.096679688 479.266601562 320.716796875 475.72265625 322.697265625 c 4
 472.178710938 324.678710938 468.98828125 326.0078125 468.633789062 325.65234375 c 4
 468.278320312 325.297851562 474.198242188 320.188476562 481.790039062 314.298828125 c 4
 500.3046875 299.93359375 500.169921875 299.237304688 480.706054688 308.7109375 c 4
262.36328125 349.493164062 m 4
 316.016601562 355.475585938 363.94921875 390.012695312 396.129882812 445.875976562 c 4
 415.481445312 479.469726562 426.244140625 511.994140625 429.657226562 547.196289062 c 4
 433.420898438 586.009765625 421.912109375 627.424804688 396.98046875 664.788085938 c 4
 385.587890625 681.861328125 375.345703125 693.888671875 357.671875 710.9453125 c 4
 339.9140625 728.084960938 319.578125 743.9296875 312.408203125 746.21484375 c 4
 309.756835938 747.059570312 303.868164062 749.783203125 299.323242188 752.266601562 c 4
 289.1015625 757.8515625 268.154296875 764.622070312 252.162109375 767.510742188 c 4
 232.916992188 770.986328125 204.65625 770.403320312 188.140625 766.189453125 c 4
 152.510742188 757.098632812 127.602539062 734.58203125 106.458984375 692.3515625 c 4
 93.935546875 667.337890625 88.27734375 644.505859375 89.578125 624.23828125 c 6
 90.22265625 614.188476562 l 5
 82.708984375 617.51171875 l 6
 78.576171875 619.338867188 72.83203125 622.040039062 69.9453125 623.512695312 c 6
 64.6943359375 626.19140625 l 5
 62.5791015625 619.672851562 l 6
 50.19921875 581.541015625 43.0576171875 525.126953125 46.28125 490.94140625 c 4
 48.482421875 467.598632812 53.341796875 449.569335938 62.34375 431.348632812 c 4
 68.4794921875 418.930664062 72.142578125 413.651367188 82.654296875 402.079101562 c 4
 94.5234375 389.013671875 109.887695312 375.56640625 112.94921875 375.56640625 c 4
 113.663085938 375.56640625 120.87109375 372.737304688 128.966796875 369.278320312 c 4
 149.922851562 360.32421875 181.48046875 352.513671875 211.174804688 348.931640625 c 4
 220.578125 347.796875 250.056640625 348.120117188 262.36328125 349.493164062 c 4
EndSplineSet
EndChar

StartChar: D
Encoding: 68 68 4
Width: 1000
Flags: HW
LayerCount: 2
Fore
SplineSet
480.706054688 308.7109375 m 4
 463.87890625 316.900390625 449.748046875 326.63671875 440.379882812 336.493164062 c 4
 430.174804688 347.231445312 426.575195312 357.62890625 425.458984375 379.594726562 c 6
 424.66015625 395.329101562 l 1
 418.646484375 387.524414062 l 6
 403.748046875 368.186523438 377.176757812 346.608398438 354.018554688 335.041015625 c 0
 312.806640625 314.456054688 261.592773438 312.596679688 196.35546875 329.31640625 c 0
 171.200195312 335.763671875 156.028320312 341.83203125 129.912109375 355.891601562 c 4
 72.5791015625 386.756835938 54.3935546875 400.333984375 30.681640625 429.970703125 c 4
 8.8720703125 457.231445312 -1.9521484375 497.48046875 0.2900390625 542.98828125 c 4
 4.498046875 628.413085938 36.25390625 713.317382812 80.904296875 758.522460938 c 4
 90.7177734375 768.458007812 96.3974609375 773.001953125 103.0546875 776.244140625 c 4
 107.978515625 778.641601562 115.725585938 782.75390625 120.271484375 785.381835938 c 4
 144.802734375 799.565429688 181.55078125 803.767578125 217.453125 796.4921875 c 4
 246.02734375 790.702148438 273.143554688 780.081054688 304.97265625 762.212890625 c 4
 322.848632812 752.176757812 365.265625 724.067382812 379.208007812 713.015625 c 4
 401.833984375 695.08203125 426.905273438 668.419921875 440.403320312 647.935546875 c 4
 443.759765625 642.841796875 446.73046875 638.8984375 447.00390625 639.172851562 c 4
 447.278320312 639.446289062 448.66015625 647.233398438 450.076171875 656.4765625 c 4
 451.491210938 665.719726562 452.900390625 673.533203125 453.206054688 673.83984375 c 4
 453.59375 674.2265625 491.819335938 654.833007812 499.259765625 650.474609375 c 4
 499.383789062 650.40234375 498.9453125 647.553710938 498.28515625 644.145507812 c 4
 495.9296875 631.978515625 488.727132942 581.065364266 486.009765625 557.374023438 c 0
 477.78125 485.633789062 473.962890625 436.178710938 472.6640625 384.51953125 c 4
 471.73828125 347.755859375 472.608398438 339.639648438 478.826171875 327.016601562 c 4
 480.970703125 322.66015625 482.600585938 319.096679688 482.446289062 319.096679688 c 4
 482.291992188 319.096679688 479.266601562 320.716796875 475.72265625 322.697265625 c 4
 472.178710938 324.678710938 468.98828125 326.0078125 468.633789062 325.65234375 c 4
 468.278320312 325.297851562 474.198242188 320.188476562 481.790039062 314.298828125 c 4
 500.3046875 299.93359375 500.169921875 299.237304688 480.706054688 308.7109375 c 4
262.36328125 349.493164062 m 4
 316.016601562 355.475585938 363.94921875 390.012695312 396.129882812 445.875976562 c 4
 415.481445312 479.469726562 426.244140625 511.994140625 429.657226562 547.196289062 c 4
 433.420898438 586.009765625 421.912109375 627.424804688 396.98046875 664.788085938 c 4
 385.587890625 681.861328125 375.345703125 693.888671875 357.671875 710.9453125 c 4
 339.9140625 728.084960938 319.578125 743.9296875 312.408203125 746.21484375 c 4
 309.756835938 747.059570312 303.868164062 749.783203125 299.323242188 752.266601562 c 4
 289.1015625 757.8515625 268.154296875 764.622070312 252.162109375 767.510742188 c 4
 232.916992188 770.986328125 204.65625 770.403320312 188.140625 766.189453125 c 4
 152.510742188 757.098632812 127.602539062 734.58203125 106.458984375 692.3515625 c 4
 93.935546875 667.337890625 88.27734375 644.505859375 89.578125 624.23828125 c 6
 90.22265625 614.188476562 l 5
 82.708984375 617.51171875 l 6
 78.576171875 619.338867188 72.83203125 622.040039062 69.9453125 623.512695312 c 6
 64.6943359375 626.19140625 l 5
 62.5791015625 619.672851562 l 6
 50.19921875 581.541015625 43.0576171875 525.126953125 46.28125 490.94140625 c 4
 48.482421875 467.598632812 53.341796875 449.569335938 62.34375 431.348632812 c 4
 68.4794921875 418.930664062 72.142578125 413.651367188 82.654296875 402.079101562 c 4
 94.5234375 389.013671875 109.887695312 375.56640625 112.94921875 375.56640625 c 4
 113.663085938 375.56640625 120.87109375 372.737304688 128.966796875 369.278320312 c 4
 149.922851562 360.32421875 181.48046875 352.513671875 211.174804688 348.931640625 c 4
 220.578125 347.796875 250.056640625 348.120117188 262.36328125 349.493164062 c 4
EndSplineSet
EndChar

StartChar: E
Encoding: 69 69 5
Width: 1000
Flags: HW
LayerCount: 2
Fore
SplineSet
480.706054688 308.7109375 m 4
 463.87890625 316.900390625 449.748046875 326.63671875 440.379882812 336.493164062 c 4
 430.174804688 347.231445312 426.575195312 357.62890625 425.458984375 379.594726562 c 6
 424.66015625 395.329101562 l 1
 418.646484375 387.524414062 l 6
 403.748046875 368.186523438 377.176757812 346.608398438 354.018554688 335.041015625 c 0
 312.806640625 314.456054688 261.592773438 312.596679688 196.35546875 329.31640625 c 0
 171.200195312 335.763671875 156.028320312 341.83203125 129.912109375 355.891601562 c 4
 72.5791015625 386.756835938 54.3935546875 400.333984375 30.681640625 429.970703125 c 4
 8.8720703125 457.231445312 -1.9521484375 497.48046875 0.2900390625 542.98828125 c 4
 4.498046875 628.413085938 36.25390625 713.317382812 80.904296875 758.522460938 c 4
 90.7177734375 768.458007812 96.3974609375 773.001953125 103.0546875 776.244140625 c 4
 107.978515625 778.641601562 115.725585938 782.75390625 120.271484375 785.381835938 c 4
 144.802734375 799.565429688 181.55078125 803.767578125 217.453125 796.4921875 c 4
 246.02734375 790.702148438 273.143554688 780.081054688 304.97265625 762.212890625 c 4
 322.848632812 752.176757812 365.265625 724.067382812 379.208007812 713.015625 c 4
 401.833984375 695.08203125 426.905273438 668.419921875 440.403320312 647.935546875 c 4
 443.759765625 642.841796875 446.73046875 638.8984375 447.00390625 639.172851562 c 4
 447.278320312 639.446289062 448.66015625 647.233398438 450.076171875 656.4765625 c 4
 451.491210938 665.719726562 452.900390625 673.533203125 453.206054688 673.83984375 c 4
 453.59375 674.2265625 491.819335938 654.833007812 499.259765625 650.474609375 c 4
 499.383789062 650.40234375 498.9453125 647.553710938 498.28515625 644.145507812 c 4
 495.9296875 631.978515625 488.727132942 581.065364266 486.009765625 557.374023438 c 0
 477.78125 485.633789062 473.962890625 436.178710938 472.6640625 384.51953125 c 4
 471.73828125 347.755859375 472.608398438 339.639648438 478.826171875 327.016601562 c 4
 480.970703125 322.66015625 482.600585938 319.096679688 482.446289062 319.096679688 c 4
 482.291992188 319.096679688 479.266601562 320.716796875 475.72265625 322.697265625 c 4
 472.178710938 324.678710938 468.98828125 326.0078125 468.633789062 325.65234375 c 4
 468.278320312 325.297851562 474.198242188 320.188476562 481.790039062 314.298828125 c 4
 500.3046875 299.93359375 500.169921875 299.237304688 480.706054688 308.7109375 c 4
262.36328125 349.493164062 m 4
 316.016601562 355.475585938 363.94921875 390.012695312 396.129882812 445.875976562 c 4
 415.481445312 479.469726562 426.244140625 511.994140625 429.657226562 547.196289062 c 4
 433.420898438 586.009765625 421.912109375 627.424804688 396.98046875 664.788085938 c 4
 385.587890625 681.861328125 375.345703125 693.888671875 357.671875 710.9453125 c 4
 339.9140625 728.084960938 319.578125 743.9296875 312.408203125 746.21484375 c 4
 309.756835938 747.059570312 303.868164062 749.783203125 299.323242188 752.266601562 c 4
 289.1015625 757.8515625 268.154296875 764.622070312 252.162109375 767.510742188 c 4
 232.916992188 770.986328125 204.65625 770.403320312 188.140625 766.189453125 c 4
 152.510742188 757.098632812 127.602539062 734.58203125 106.458984375 692.3515625 c 4
 93.935546875 667.337890625 88.27734375 644.505859375 89.578125 624.23828125 c 6
 90.22265625 614.188476562 l 5
 82.708984375 617.51171875 l 6
 78.576171875 619.338867188 72.83203125 622.040039062 69.9453125 623.512695312 c 6
 64.6943359375 626.19140625 l 5
 62.5791015625 619.672851562 l 6
 50.19921875 581.541015625 43.0576171875 525.126953125 46.28125 490.94140625 c 4
 48.482421875 467.598632812 53.341796875 449.569335938 62.34375 431.348632812 c 4
 68.4794921875 418.930664062 72.142578125 413.651367188 82.654296875 402.079101562 c 4
 94.5234375 389.013671875 109.887695312 375.56640625 112.94921875 375.56640625 c 4
 113.663085938 375.56640625 120.87109375 372.737304688 128.966796875 369.278320312 c 4
 149.922851562 360.32421875 181.48046875 352.513671875 211.174804688 348.931640625 c 4
 220.578125 347.796875 250.056640625 348.120117188 262.36328125 349.493164062 c 4
EndSplineSet
EndChar

StartChar: F
Encoding: 70 70 6
Width: 1000
Flags: HW
LayerCount: 2
Fore
SplineSet
480.706054688 308.7109375 m 4
 463.87890625 316.900390625 449.748046875 326.63671875 440.379882812 336.493164062 c 4
 430.174804688 347.231445312 426.575195312 357.62890625 425.458984375 379.594726562 c 6
 424.66015625 395.329101562 l 1
 418.646484375 387.524414062 l 6
 403.748046875 368.186523438 377.176757812 346.608398438 354.018554688 335.041015625 c 0
 312.806640625 314.456054688 261.592773438 312.596679688 196.35546875 329.31640625 c 0
 171.200195312 335.763671875 156.028320312 341.83203125 129.912109375 355.891601562 c 4
 72.5791015625 386.756835938 54.3935546875 400.333984375 30.681640625 429.970703125 c 4
 8.8720703125 457.231445312 -1.9521484375 497.48046875 0.2900390625 542.98828125 c 4
 4.498046875 628.413085938 36.25390625 713.317382812 80.904296875 758.522460938 c 4
 90.7177734375 768.458007812 96.3974609375 773.001953125 103.0546875 776.244140625 c 4
 107.978515625 778.641601562 115.725585938 782.75390625 120.271484375 785.381835938 c 4
 144.802734375 799.565429688 181.55078125 803.767578125 217.453125 796.4921875 c 4
 246.02734375 790.702148438 273.143554688 780.081054688 304.97265625 762.212890625 c 4
 322.848632812 752.176757812 365.265625 724.067382812 379.208007812 713.015625 c 4
 401.833984375 695.08203125 426.905273438 668.419921875 440.403320312 647.935546875 c 4
 443.759765625 642.841796875 446.73046875 638.8984375 447.00390625 639.172851562 c 4
 447.278320312 639.446289062 448.66015625 647.233398438 450.076171875 656.4765625 c 4
 451.491210938 665.719726562 452.900390625 673.533203125 453.206054688 673.83984375 c 4
 453.59375 674.2265625 491.819335938 654.833007812 499.259765625 650.474609375 c 4
 499.383789062 650.40234375 498.9453125 647.553710938 498.28515625 644.145507812 c 4
 495.9296875 631.978515625 488.727132942 581.065364266 486.009765625 557.374023438 c 0
 477.78125 485.633789062 473.962890625 436.178710938 472.6640625 384.51953125 c 4
 471.73828125 347.755859375 472.608398438 339.639648438 478.826171875 327.016601562 c 4
 480.970703125 322.66015625 482.600585938 319.096679688 482.446289062 319.096679688 c 4
 482.291992188 319.096679688 479.266601562 320.716796875 475.72265625 322.697265625 c 4
 472.178710938 324.678710938 468.98828125 326.0078125 468.633789062 325.65234375 c 4
 468.278320312 325.297851562 474.198242188 320.188476562 481.790039062 314.298828125 c 4
 500.3046875 299.93359375 500.169921875 299.237304688 480.706054688 308.7109375 c 4
262.36328125 349.493164062 m 4
 316.016601562 355.475585938 363.94921875 390.012695312 396.129882812 445.875976562 c 4
 415.481445312 479.469726562 426.244140625 511.994140625 429.657226562 547.196289062 c 4
 433.420898438 586.009765625 421.912109375 627.424804688 396.98046875 664.788085938 c 4
 385.587890625 681.861328125 375.345703125 693.888671875 357.671875 710.9453125 c 4
 339.9140625 728.084960938 319.578125 743.9296875 312.408203125 746.21484375 c 4
 309.756835938 747.059570312 303.868164062 749.783203125 299.323242188 752.266601562 c 4
 289.1015625 757.8515625 268.154296875 764.622070312 252.162109375 767.510742188 c 4
 232.916992188 770.986328125 204.65625 770.403320312 188.140625 766.189453125 c 4
 152.510742188 757.098632812 127.602539062 734.58203125 106.458984375 692.3515625 c 4
 93.935546875 667.337890625 88.27734375 644.505859375 89.578125 624.23828125 c 6
 90.22265625 614.188476562 l 5
 82.708984375 617.51171875 l 6
 78.576171875 619.338867188 72.83203125 622.040039062 69.9453125 623.512695312 c 6
 64.6943359375 626.19140625 l 5
 62.5791015625 619.672851562 l 6
 50.19921875 581.541015625 43.0576171875 525.126953125 46.28125 490.94140625 c 4
 48.482421875 467.598632812 53.341796875 449.569335938 62.34375 431.348632812 c 4
 68.4794921875 418.930664062 72.142578125 413.651367188 82.654296875 402.079101562 c 4
 94.5234375 389.013671875 109.887695312 375.56640625 112.94921875 375.56640625 c 4
 113.663085938 375.56640625 120.87109375 372.737304688 128.966796875 369.278320312 c 4
 149.922851562 360.32421875 181.48046875 352.513671875 211.174804688 348.931640625 c 4
 220.578125 347.796875 250.056640625 348.120117188 262.36328125 349.493164062 c 4
EndSplineSet
EndChar

StartChar: G
Encoding: 71 71 7
Width: 1000
Flags: HW
LayerCount: 2
Fore
SplineSet
480.706054688 308.7109375 m 4
 463.87890625 316.900390625 449.748046875 326.63671875 440.379882812 336.493164062 c 4
 430.174804688 347.231445312 426.575195312 357.62890625 425.458984375 379.594726562 c 6
 424.66015625 395.329101562 l 1
 418.646484375 387.524414062 l 6
 403.748046875 368.186523438 377.176757812 346.608398438 354.018554688 335.041015625 c 0
 312.806640625 314.456054688 261.592773438 312.596679688 196.35546875 329.31640625 c 0
 171.200195312 335.763671875 156.028320312 341.83203125 129.912109375 355.891601562 c 4
 72.5791015625 386.756835938 54.3935546875 400.333984375 30.681640625 429.970703125 c 4
 8.8720703125 457.231445312 -1.9521484375 497.48046875 0.2900390625 542.98828125 c 4
 4.498046875 628.413085938 36.25390625 713.317382812 80.904296875 758.522460938 c 4
 90.7177734375 768.458007812 96.3974609375 773.001953125 103.0546875 776.244140625 c 4
 107.978515625 778.641601562 115.725585938 782.75390625 120.271484375 785.381835938 c 4
 144.802734375 799.565429688 181.55078125 803.767578125 217.453125 796.4921875 c 4
 246.02734375 790.702148438 273.143554688 780.081054688 304.97265625 762.212890625 c 4
 322.848632812 752.176757812 365.265625 724.067382812 379.208007812 713.015625 c 4
 401.833984375 695.08203125 426.905273438 668.419921875 440.403320312 647.935546875 c 4
 443.759765625 642.841796875 446.73046875 638.8984375 447.00390625 639.172851562 c 4
 447.278320312 639.446289062 448.66015625 647.233398438 450.076171875 656.4765625 c 4
 451.491210938 665.719726562 452.900390625 673.533203125 453.206054688 673.83984375 c 4
 453.59375 674.2265625 491.819335938 654.833007812 499.259765625 650.474609375 c 4
 499.383789062 650.40234375 498.9453125 647.553710938 498.28515625 644.145507812 c 4
 495.9296875 631.978515625 488.727132942 581.065364266 486.009765625 557.374023438 c 0
 477.78125 485.633789062 473.962890625 436.178710938 472.6640625 384.51953125 c 4
 471.73828125 347.755859375 472.608398438 339.639648438 478.826171875 327.016601562 c 4
 480.970703125 322.66015625 482.600585938 319.096679688 482.446289062 319.096679688 c 4
 482.291992188 319.096679688 479.266601562 320.716796875 475.72265625 322.697265625 c 4
 472.178710938 324.678710938 468.98828125 326.0078125 468.633789062 325.65234375 c 4
 468.278320312 325.297851562 474.198242188 320.188476562 481.790039062 314.298828125 c 4
 500.3046875 299.93359375 500.169921875 299.237304688 480.706054688 308.7109375 c 4
262.36328125 349.493164062 m 4
 316.016601562 355.475585938 363.94921875 390.012695312 396.129882812 445.875976562 c 4
 415.481445312 479.469726562 426.244140625 511.994140625 429.657226562 547.196289062 c 4
 433.420898438 586.009765625 421.912109375 627.424804688 396.98046875 664.788085938 c 4
 385.587890625 681.861328125 375.345703125 693.888671875 357.671875 710.9453125 c 4
 339.9140625 728.084960938 319.578125 743.9296875 312.408203125 746.21484375 c 4
 309.756835938 747.059570312 303.868164062 749.783203125 299.323242188 752.266601562 c 4
 289.1015625 757.8515625 268.154296875 764.622070312 252.162109375 767.510742188 c 4
 232.916992188 770.986328125 204.65625 770.403320312 188.140625 766.189453125 c 4
 152.510742188 757.098632812 127.602539062 734.58203125 106.458984375 692.3515625 c 4
 93.935546875 667.337890625 88.27734375 644.505859375 89.578125 624.23828125 c 6
 90.22265625 614.188476562 l 5
 82.708984375 617.51171875 l 6
 78.576171875 619.338867188 72.83203125 622.040039062 69.9453125 623.512695312 c 6
 64.6943359375 626.19140625 l 5
 62.5791015625 619.672851562 l 6
 50.19921875 581.541015625 43.0576171875 525.126953125 46.28125 490.94140625 c 4
 48.482421875 467.598632812 53.341796875 449.569335938 62.34375 431.348632812 c 4
 68.4794921875 418.930664062 72.142578125 413.651367188 82.654296875 402.079101562 c 4
 94.5234375 389.013671875 109.887695312 375.56640625 112.94921875 375.56640625 c 4
 113.663085938 375.56640625 120.87109375 372.737304688 128.966796875 369.278320312 c 4
 149.922851562 360.32421875 181.48046875 352.513671875 211.174804688 348.931640625 c 4
 220.578125 347.796875 250.056640625 348.120117188 262.36328125 349.493164062 c 4
EndSplineSet
EndChar

StartChar: H
Encoding: 72 72 8
Width: 1000
Flags: HW
LayerCount: 2
Fore
SplineSet
480.706054688 308.7109375 m 4
 463.87890625 316.900390625 449.748046875 326.63671875 440.379882812 336.493164062 c 4
 430.174804688 347.231445312 426.575195312 357.62890625 425.458984375 379.594726562 c 6
 424.66015625 395.329101562 l 1
 418.646484375 387.524414062 l 6
 403.748046875 368.186523438 377.176757812 346.608398438 354.018554688 335.041015625 c 0
 312.806640625 314.456054688 261.592773438 312.596679688 196.35546875 329.31640625 c 0
 171.200195312 335.763671875 156.028320312 341.83203125 129.912109375 355.891601562 c 4
 72.5791015625 386.756835938 54.3935546875 400.333984375 30.681640625 429.970703125 c 4
 8.8720703125 457.231445312 -1.9521484375 497.48046875 0.2900390625 542.98828125 c 4
 4.498046875 628.413085938 36.25390625 713.317382812 80.904296875 758.522460938 c 4
 90.7177734375 768.458007812 96.3974609375 773.001953125 103.0546875 776.244140625 c 4
 107.978515625 778.641601562 115.725585938 782.75390625 120.271484375 785.381835938 c 4
 144.802734375 799.565429688 181.55078125 803.767578125 217.453125 796.4921875 c 4
 246.02734375 790.702148438 273.143554688 780.081054688 304.97265625 762.212890625 c 4
 322.848632812 752.176757812 365.265625 724.067382812 379.208007812 713.015625 c 4
 401.833984375 695.08203125 426.905273438 668.419921875 440.403320312 647.935546875 c 4
 443.759765625 642.841796875 446.73046875 638.8984375 447.00390625 639.172851562 c 4
 447.278320312 639.446289062 448.66015625 647.233398438 450.076171875 656.4765625 c 4
 451.491210938 665.719726562 452.900390625 673.533203125 453.206054688 673.83984375 c 4
 453.59375 674.2265625 491.819335938 654.833007812 499.259765625 650.474609375 c 4
 499.383789062 650.40234375 498.9453125 647.553710938 498.28515625 644.145507812 c 4
 495.9296875 631.978515625 488.727132942 581.065364266 486.009765625 557.374023438 c 0
 477.78125 485.633789062 473.962890625 436.178710938 472.6640625 384.51953125 c 4
 471.73828125 347.755859375 472.608398438 339.639648438 478.826171875 327.016601562 c 4
 480.970703125 322.66015625 482.600585938 319.096679688 482.446289062 319.096679688 c 4
 482.291992188 319.096679688 479.266601562 320.716796875 475.72265625 322.697265625 c 4
 472.178710938 324.678710938 468.98828125 326.0078125 468.633789062 325.65234375 c 4
 468.278320312 325.297851562 474.198242188 320.188476562 481.790039062 314.298828125 c 4
 500.3046875 299.93359375 500.169921875 299.237304688 480.706054688 308.7109375 c 4
262.36328125 349.493164062 m 4
 316.016601562 355.475585938 363.94921875 390.012695312 396.129882812 445.875976562 c 4
 415.481445312 479.469726562 426.244140625 511.994140625 429.657226562 547.196289062 c 4
 433.420898438 586.009765625 421.912109375 627.424804688 396.98046875 664.788085938 c 4
 385.587890625 681.861328125 375.345703125 693.888671875 357.671875 710.9453125 c 4
 339.9140625 728.084960938 319.578125 743.9296875 312.408203125 746.21484375 c 4
 309.756835938 747.059570312 303.868164062 749.783203125 299.323242188 752.266601562 c 4
 289.1015625 757.8515625 268.154296875 764.622070312 252.162109375 767.510742188 c 4
 232.916992188 770.986328125 204.65625 770.403320312 188.140625 766.189453125 c 4
 152.510742188 757.098632812 127.602539062 734.58203125 106.458984375 692.3515625 c 4
 93.935546875 667.337890625 88.27734375 644.505859375 89.578125 624.23828125 c 6
 90.22265625 614.188476562 l 5
 82.708984375 617.51171875 l 6
 78.576171875 619.338867188 72.83203125 622.040039062 69.9453125 623.512695312 c 6
 64.6943359375 626.19140625 l 5
 62.5791015625 619.672851562 l 6
 50.19921875 581.541015625 43.0576171875 525.126953125 46.28125 490.94140625 c 4
 48.482421875 467.598632812 53.341796875 449.569335938 62.34375 431.348632812 c 4
 68.4794921875 418.930664062 72.142578125 413.651367188 82.654296875 402.079101562 c 4
 94.5234375 389.013671875 109.887695312 375.56640625 112.94921875 375.56640625 c 4
 113.663085938 375.56640625 120.87109375 372.737304688 128.966796875 369.278320312 c 4
 149.922851562 360.32421875 181.48046875 352.513671875 211.174804688 348.931640625 c 4
 220.578125 347.796875 250.056640625 348.120117188 262.36328125 349.493164062 c 4
EndSplineSet
EndChar

StartChar: I
Encoding: 73 73 9
Width: 1000
Flags: HW
LayerCount: 2
Fore
SplineSet
480.706054688 308.7109375 m 4
 463.87890625 316.900390625 449.748046875 326.63671875 440.379882812 336.493164062 c 4
 430.174804688 347.231445312 426.575195312 357.62890625 425.458984375 379.594726562 c 6
 424.66015625 395.329101562 l 1
 418.646484375 387.524414062 l 6
 403.748046875 368.186523438 377.176757812 346.608398438 354.018554688 335.041015625 c 0
 312.806640625 314.456054688 261.592773438 312.596679688 196.35546875 329.31640625 c 0
 171.200195312 335.763671875 156.028320312 341.83203125 129.912109375 355.891601562 c 4
 72.5791015625 386.756835938 54.3935546875 400.333984375 30.681640625 429.970703125 c 4
 8.8720703125 457.231445312 -1.9521484375 497.48046875 0.2900390625 542.98828125 c 4
 4.498046875 628.413085938 36.25390625 713.317382812 80.904296875 758.522460938 c 4
 90.7177734375 768.458007812 96.3974609375 773.001953125 103.0546875 776.244140625 c 4
 107.978515625 778.641601562 115.725585938 782.75390625 120.271484375 785.381835938 c 4
 144.802734375 799.565429688 181.55078125 803.767578125 217.453125 796.4921875 c 4
 246.02734375 790.702148438 273.143554688 780.081054688 304.97265625 762.212890625 c 4
 322.848632812 752.176757812 365.265625 724.067382812 379.208007812 713.015625 c 4
 401.833984375 695.08203125 426.905273438 668.419921875 440.403320312 647.935546875 c 4
 443.759765625 642.841796875 446.73046875 638.8984375 447.00390625 639.172851562 c 4
 447.278320312 639.446289062 448.66015625 647.233398438 450.076171875 656.4765625 c 4
 451.491210938 665.719726562 452.900390625 673.533203125 453.206054688 673.83984375 c 4
 453.59375 674.2265625 491.819335938 654.833007812 499.259765625 650.474609375 c 4
 499.383789062 650.40234375 498.9453125 647.553710938 498.28515625 644.145507812 c 4
 495.9296875 631.978515625 488.727132942 581.065364266 486.009765625 557.374023438 c 0
 477.78125 485.633789062 473.962890625 436.178710938 472.6640625 384.51953125 c 4
 471.73828125 347.755859375 472.608398438 339.639648438 478.826171875 327.016601562 c 4
 480.970703125 322.66015625 482.600585938 319.096679688 482.446289062 319.096679688 c 4
 482.291992188 319.096679688 479.266601562 320.716796875 475.72265625 322.697265625 c 4
 472.178710938 324.678710938 468.98828125 326.0078125 468.633789062 325.65234375 c 4
 468.278320312 325.297851562 474.198242188 320.188476562 481.790039062 314.298828125 c 4
 500.3046875 299.93359375 500.169921875 299.237304688 480.706054688 308.7109375 c 4
262.36328125 349.493164062 m 4
 316.016601562 355.475585938 363.94921875 390.012695312 396.129882812 445.875976562 c 4
 415.481445312 479.469726562 426.244140625 511.994140625 429.657226562 547.196289062 c 4
 433.420898438 586.009765625 421.912109375 627.424804688 396.98046875 664.788085938 c 4
 385.587890625 681.861328125 375.345703125 693.888671875 357.671875 710.9453125 c 4
 339.9140625 728.084960938 319.578125 743.9296875 312.408203125 746.21484375 c 4
 309.756835938 747.059570312 303.868164062 749.783203125 299.323242188 752.266601562 c 4
 289.1015625 757.8515625 268.154296875 764.622070312 252.162109375 767.510742188 c 4
 232.916992188 770.986328125 204.65625 770.403320312 188.140625 766.189453125 c 4
 152.510742188 757.098632812 127.602539062 734.58203125 106.458984375 692.3515625 c 4
 93.935546875 667.337890625 88.27734375 644.505859375 89.578125 624.23828125 c 6
 90.22265625 614.188476562 l 5
 82.708984375 617.51171875 l 6
 78.576171875 619.338867188 72.83203125 622.040039062 69.9453125 623.512695312 c 6
 64.6943359375 626.19140625 l 5
 62.5791015625 619.672851562 l 6
 50.19921875 581.541015625 43.0576171875 525.126953125 46.28125 490.94140625 c 4
 48.482421875 467.598632812 53.341796875 449.569335938 62.34375 431.348632812 c 4
 68.4794921875 418.930664062 72.142578125 413.651367188 82.654296875 402.079101562 c 4
 94.5234375 389.013671875 109.887695312 375.56640625 112.94921875 375.56640625 c 4
 113.663085938 375.56640625 120.87109375 372.737304688 128.966796875 369.278320312 c 4
 149.922851562 360.32421875 181.48046875 352.513671875 211.174804688 348.931640625 c 4
 220.578125 347.796875 250.056640625 348.120117188 262.36328125 349.493164062 c 4
EndSplineSet
EndChar

StartChar: J
Encoding: 74 74 10
Width: 1000
Flags: HW
LayerCount: 2
Fore
SplineSet
480.706054688 308.7109375 m 4
 463.87890625 316.900390625 449.748046875 326.63671875 440.379882812 336.493164062 c 4
 430.174804688 347.231445312 426.575195312 357.62890625 425.458984375 379.594726562 c 6
 424.66015625 395.329101562 l 1
 418.646484375 387.524414062 l 6
 403.748046875 368.186523438 377.176757812 346.608398438 354.018554688 335.041015625 c 0
 312.806640625 314.456054688 261.592773438 312.596679688 196.35546875 329.31640625 c 0
 171.200195312 335.763671875 156.028320312 341.83203125 129.912109375 355.891601562 c 4
 72.5791015625 386.756835938 54.3935546875 400.333984375 30.681640625 429.970703125 c 4
 8.8720703125 457.231445312 -1.9521484375 497.48046875 0.2900390625 542.98828125 c 4
 4.498046875 628.413085938 36.25390625 713.317382812 80.904296875 758.522460938 c 4
 90.7177734375 768.458007812 96.3974609375 773.001953125 103.0546875 776.244140625 c 4
 107.978515625 778.641601562 115.725585938 782.75390625 120.271484375 785.381835938 c 4
 144.802734375 799.565429688 181.55078125 803.767578125 217.453125 796.4921875 c 4
 246.02734375 790.702148438 273.143554688 780.081054688 304.97265625 762.212890625 c 4
 322.848632812 752.176757812 365.265625 724.067382812 379.208007812 713.015625 c 4
 401.833984375 695.08203125 426.905273438 668.419921875 440.403320312 647.935546875 c 4
 443.759765625 642.841796875 446.73046875 638.8984375 447.00390625 639.172851562 c 4
 447.278320312 639.446289062 448.66015625 647.233398438 450.076171875 656.4765625 c 4
 451.491210938 665.719726562 452.900390625 673.533203125 453.206054688 673.83984375 c 4
 453.59375 674.2265625 491.819335938 654.833007812 499.259765625 650.474609375 c 4
 499.383789062 650.40234375 498.9453125 647.553710938 498.28515625 644.145507812 c 4
 495.9296875 631.978515625 488.727132942 581.065364266 486.009765625 557.374023438 c 0
 477.78125 485.633789062 473.962890625 436.178710938 472.6640625 384.51953125 c 4
 471.73828125 347.755859375 472.608398438 339.639648438 478.826171875 327.016601562 c 4
 480.970703125 322.66015625 482.600585938 319.096679688 482.446289062 319.096679688 c 4
 482.291992188 319.096679688 479.266601562 320.716796875 475.72265625 322.697265625 c 4
 472.178710938 324.678710938 468.98828125 326.0078125 468.633789062 325.65234375 c 4
 468.278320312 325.297851562 474.198242188 320.188476562 481.790039062 314.298828125 c 4
 500.3046875 299.93359375 500.169921875 299.237304688 480.706054688 308.7109375 c 4
262.36328125 349.493164062 m 4
 316.016601562 355.475585938 363.94921875 390.012695312 396.129882812 445.875976562 c 4
 415.481445312 479.469726562 426.244140625 511.994140625 429.657226562 547.196289062 c 4
 433.420898438 586.009765625 421.912109375 627.424804688 396.98046875 664.788085938 c 4
 385.587890625 681.861328125 375.345703125 693.888671875 357.671875 710.9453125 c 4
 339.9140625 728.084960938 319.578125 743.9296875 312.408203125 746.21484375 c 4
 309.756835938 747.059570312 303.868164062 749.783203125 299.323242188 752.266601562 c 4
 289.1015625 757.8515625 268.154296875 764.622070312 252.162109375 767.510742188 c 4
 232.916992188 770.986328125 204.65625 770.403320312 188.140625 766.189453125 c 4
 152.510742188 757.098632812 127.602539062 734.58203125 106.458984375 692.3515625 c 4
 93.935546875 667.337890625 88.27734375 644.505859375 89.578125 624.23828125 c 6
 90.22265625 614.188476562 l 5
 82.708984375 617.51171875 l 6
 78.576171875 619.338867188 72.83203125 622.040039062 69.9453125 623.512695312 c 6
 64.6943359375 626.19140625 l 5
 62.5791015625 619.672851562 l 6
 50.19921875 581.541015625 43.0576171875 525.126953125 46.28125 490.94140625 c 4
 48.482421875 467.598632812 53.341796875 449.569335938 62.34375 431.348632812 c 4
 68.4794921875 418.930664062 72.142578125 413.651367188 82.654296875 402.079101562 c 4
 94.5234375 389.013671875 109.887695312 375.56640625 112.94921875 375.56640625 c 4
 113.663085938 375.56640625 120.87109375 372.737304688 128.966796875 369.278320312 c 4
 149.922851562 360.32421875 181.48046875 352.513671875 211.174804688 348.931640625 c 4
 220.578125 347.796875 250.056640625 348.120117188 262.36328125 349.493164062 c 4
EndSplineSet
EndChar

StartChar: K
Encoding: 75 75 11
Width: 1000
Flags: HW
LayerCount: 2
Fore
SplineSet
480.706054688 308.7109375 m 4
 463.87890625 316.900390625 449.748046875 326.63671875 440.379882812 336.493164062 c 4
 430.174804688 347.231445312 426.575195312 357.62890625 425.458984375 379.594726562 c 6
 424.66015625 395.329101562 l 1
 418.646484375 387.524414062 l 6
 403.748046875 368.186523438 377.176757812 346.608398438 354.018554688 335.041015625 c 0
 312.806640625 314.456054688 261.592773438 312.596679688 196.35546875 329.31640625 c 0
 171.200195312 335.763671875 156.028320312 341.83203125 129.912109375 355.891601562 c 4
 72.5791015625 386.756835938 54.3935546875 400.333984375 30.681640625 429.970703125 c 4
 8.8720703125 457.231445312 -1.9521484375 497.48046875 0.2900390625 542.98828125 c 4
 4.498046875 628.413085938 36.25390625 713.317382812 80.904296875 758.522460938 c 4
 90.7177734375 768.458007812 96.3974609375 773.001953125 103.0546875 776.244140625 c 4
 107.978515625 778.641601562 115.725585938 782.75390625 120.271484375 785.381835938 c 4
 144.802734375 799.565429688 181.55078125 803.767578125 217.453125 796.4921875 c 4
 246.02734375 790.702148438 273.143554688 780.081054688 304.97265625 762.212890625 c 4
 322.848632812 752.176757812 365.265625 724.067382812 379.208007812 713.015625 c 4
 401.833984375 695.08203125 426.905273438 668.419921875 440.403320312 647.935546875 c 4
 443.759765625 642.841796875 446.73046875 638.8984375 447.00390625 639.172851562 c 4
 447.278320312 639.446289062 448.66015625 647.233398438 450.076171875 656.4765625 c 4
 451.491210938 665.719726562 452.900390625 673.533203125 453.206054688 673.83984375 c 4
 453.59375 674.2265625 491.819335938 654.833007812 499.259765625 650.474609375 c 4
 499.383789062 650.40234375 498.9453125 647.553710938 498.28515625 644.145507812 c 4
 495.9296875 631.978515625 488.727132942 581.065364266 486.009765625 557.374023438 c 0
 477.78125 485.633789062 473.962890625 436.178710938 472.6640625 384.51953125 c 4
 471.73828125 347.755859375 472.608398438 339.639648438 478.826171875 327.016601562 c 4
 480.970703125 322.66015625 482.600585938 319.096679688 482.446289062 319.096679688 c 4
 482.291992188 319.096679688 479.266601562 320.716796875 475.72265625 322.697265625 c 4
 472.178710938 324.678710938 468.98828125 326.0078125 468.633789062 325.65234375 c 4
 468.278320312 325.297851562 474.198242188 320.188476562 481.790039062 314.298828125 c 4
 500.3046875 299.93359375 500.169921875 299.237304688 480.706054688 308.7109375 c 4
262.36328125 349.493164062 m 4
 316.016601562 355.475585938 363.94921875 390.012695312 396.129882812 445.875976562 c 4
 415.481445312 479.469726562 426.244140625 511.994140625 429.657226562 547.196289062 c 4
 433.420898438 586.009765625 421.912109375 627.424804688 396.98046875 664.788085938 c 4
 385.587890625 681.861328125 375.345703125 693.888671875 357.671875 710.9453125 c 4
 339.9140625 728.084960938 319.578125 743.9296875 312.408203125 746.21484375 c 4
 309.756835938 747.059570312 303.868164062 749.783203125 299.323242188 752.266601562 c 4
 289.1015625 757.8515625 268.154296875 764.622070312 252.162109375 767.510742188 c 4
 232.916992188 770.986328125 204.65625 770.403320312 188.140625 766.189453125 c 4
 152.510742188 757.098632812 127.602539062 734.58203125 106.458984375 692.3515625 c 4
 93.935546875 667.337890625 88.27734375 644.505859375 89.578125 624.23828125 c 6
 90.22265625 614.188476562 l 5
 82.708984375 617.51171875 l 6
 78.576171875 619.338867188 72.83203125 622.040039062 69.9453125 623.512695312 c 6
 64.6943359375 626.19140625 l 5
 62.5791015625 619.672851562 l 6
 50.19921875 581.541015625 43.0576171875 525.126953125 46.28125 490.94140625 c 4
 48.482421875 467.598632812 53.341796875 449.569335938 62.34375 431.348632812 c 4
 68.4794921875 418.930664062 72.142578125 413.651367188 82.654296875 402.079101562 c 4
 94.5234375 389.013671875 109.887695312 375.56640625 112.94921875 375.56640625 c 4
 113.663085938 375.56640625 120.87109375 372.737304688 128.966796875 369.278320312 c 4
 149.922851562 360.32421875 181.48046875 352.513671875 211.174804688 348.931640625 c 4
 220.578125 347.796875 250.056640625 348.120117188 262.36328125 349.493164062 c 4
EndSplineSet
EndChar

StartChar: L
Encoding: 76 76 12
Width: 1000
Flags: HW
LayerCount: 2
Fore
SplineSet
480.706054688 308.7109375 m 4
 463.87890625 316.900390625 449.748046875 326.63671875 440.379882812 336.493164062 c 4
 430.174804688 347.231445312 426.575195312 357.62890625 425.458984375 379.594726562 c 6
 424.66015625 395.329101562 l 1
 418.646484375 387.524414062 l 6
 403.748046875 368.186523438 377.176757812 346.608398438 354.018554688 335.041015625 c 0
 312.806640625 314.456054688 261.592773438 312.596679688 196.35546875 329.31640625 c 0
 171.200195312 335.763671875 156.028320312 341.83203125 129.912109375 355.891601562 c 4
 72.5791015625 386.756835938 54.3935546875 400.333984375 30.681640625 429.970703125 c 4
 8.8720703125 457.231445312 -1.9521484375 497.48046875 0.2900390625 542.98828125 c 4
 4.498046875 628.413085938 36.25390625 713.317382812 80.904296875 758.522460938 c 4
 90.7177734375 768.458007812 96.3974609375 773.001953125 103.0546875 776.244140625 c 4
 107.978515625 778.641601562 115.725585938 782.75390625 120.271484375 785.381835938 c 4
 144.802734375 799.565429688 181.55078125 803.767578125 217.453125 796.4921875 c 4
 246.02734375 790.702148438 273.143554688 780.081054688 304.97265625 762.212890625 c 4
 322.848632812 752.176757812 365.265625 724.067382812 379.208007812 713.015625 c 4
 401.833984375 695.08203125 426.905273438 668.419921875 440.403320312 647.935546875 c 4
 443.759765625 642.841796875 446.73046875 638.8984375 447.00390625 639.172851562 c 4
 447.278320312 639.446289062 448.66015625 647.233398438 450.076171875 656.4765625 c 4
 451.491210938 665.719726562 452.900390625 673.533203125 453.206054688 673.83984375 c 4
 453.59375 674.2265625 491.819335938 654.833007812 499.259765625 650.474609375 c 4
 499.383789062 650.40234375 498.9453125 647.553710938 498.28515625 644.145507812 c 4
 495.9296875 631.978515625 488.727132942 581.065364266 486.009765625 557.374023438 c 0
 477.78125 485.633789062 473.962890625 436.178710938 472.6640625 384.51953125 c 4
 471.73828125 347.755859375 472.608398438 339.639648438 478.826171875 327.016601562 c 4
 480.970703125 322.66015625 482.600585938 319.096679688 482.446289062 319.096679688 c 4
 482.291992188 319.096679688 479.266601562 320.716796875 475.72265625 322.697265625 c 4
 472.178710938 324.678710938 468.98828125 326.0078125 468.633789062 325.65234375 c 4
 468.278320312 325.297851562 474.198242188 320.188476562 481.790039062 314.298828125 c 4
 500.3046875 299.93359375 500.169921875 299.237304688 480.706054688 308.7109375 c 4
262.36328125 349.493164062 m 4
 316.016601562 355.475585938 363.94921875 390.012695312 396.129882812 445.875976562 c 4
 415.481445312 479.469726562 426.244140625 511.994140625 429.657226562 547.196289062 c 4
 433.420898438 586.009765625 421.912109375 627.424804688 396.98046875 664.788085938 c 4
 385.587890625 681.861328125 375.345703125 693.888671875 357.671875 710.9453125 c 4
 339.9140625 728.084960938 319.578125 743.9296875 312.408203125 746.21484375 c 4
 309.756835938 747.059570312 303.868164062 749.783203125 299.323242188 752.266601562 c 4
 289.1015625 757.8515625 268.154296875 764.622070312 252.162109375 767.510742188 c 4
 232.916992188 770.986328125 204.65625 770.403320312 188.140625 766.189453125 c 4
 152.510742188 757.098632812 127.602539062 734.58203125 106.458984375 692.3515625 c 4
 93.935546875 667.337890625 88.27734375 644.505859375 89.578125 624.23828125 c 6
 90.22265625 614.188476562 l 5
 82.708984375 617.51171875 l 6
 78.576171875 619.338867188 72.83203125 622.040039062 69.9453125 623.512695312 c 6
 64.6943359375 626.19140625 l 5
 62.5791015625 619.672851562 l 6
 50.19921875 581.541015625 43.0576171875 525.126953125 46.28125 490.94140625 c 4
 48.482421875 467.598632812 53.341796875 449.569335938 62.34375 431.348632812 c 4
 68.4794921875 418.930664062 72.142578125 413.651367188 82.654296875 402.079101562 c 4
 94.5234375 389.013671875 109.887695312 375.56640625 112.94921875 375.56640625 c 4
 113.663085938 375.56640625 120.87109375 372.737304688 128.966796875 369.278320312 c 4
 149.922851562 360.32421875 181.48046875 352.513671875 211.174804688 348.931640625 c 4
 220.578125 347.796875 250.056640625 348.120117188 262.36328125 349.493164062 c 4
EndSplineSet
EndChar

StartChar: M
Encoding: 77 77 13
Width: 1000
Flags: HW
LayerCount: 2
Fore
SplineSet
480.706054688 308.7109375 m 4
 463.87890625 316.900390625 449.748046875 326.63671875 440.379882812 336.493164062 c 4
 430.174804688 347.231445312 426.575195312 357.62890625 425.458984375 379.594726562 c 6
 424.66015625 395.329101562 l 1
 418.646484375 387.524414062 l 6
 403.748046875 368.186523438 377.176757812 346.608398438 354.018554688 335.041015625 c 0
 312.806640625 314.456054688 261.592773438 312.596679688 196.35546875 329.31640625 c 0
 171.200195312 335.763671875 156.028320312 341.83203125 129.912109375 355.891601562 c 4
 72.5791015625 386.756835938 54.3935546875 400.333984375 30.681640625 429.970703125 c 4
 8.8720703125 457.231445312 -1.9521484375 497.48046875 0.2900390625 542.98828125 c 4
 4.498046875 628.413085938 36.25390625 713.317382812 80.904296875 758.522460938 c 4
 90.7177734375 768.458007812 96.3974609375 773.001953125 103.0546875 776.244140625 c 4
 107.978515625 778.641601562 115.725585938 782.75390625 120.271484375 785.381835938 c 4
 144.802734375 799.565429688 181.55078125 803.767578125 217.453125 796.4921875 c 4
 246.02734375 790.702148438 273.143554688 780.081054688 304.97265625 762.212890625 c 4
 322.848632812 752.176757812 365.265625 724.067382812 379.208007812 713.015625 c 4
 401.833984375 695.08203125 426.905273438 668.419921875 440.403320312 647.935546875 c 4
 443.759765625 642.841796875 446.73046875 638.8984375 447.00390625 639.172851562 c 4
 447.278320312 639.446289062 448.66015625 647.233398438 450.076171875 656.4765625 c 4
 451.491210938 665.719726562 452.900390625 673.533203125 453.206054688 673.83984375 c 4
 453.59375 674.2265625 491.819335938 654.833007812 499.259765625 650.474609375 c 4
 499.383789062 650.40234375 498.9453125 647.553710938 498.28515625 644.145507812 c 4
 495.9296875 631.978515625 488.727132942 581.065364266 486.009765625 557.374023438 c 0
 477.78125 485.633789062 473.962890625 436.178710938 472.6640625 384.51953125 c 4
 471.73828125 347.755859375 472.608398438 339.639648438 478.826171875 327.016601562 c 4
 480.970703125 322.66015625 482.600585938 319.096679688 482.446289062 319.096679688 c 4
 482.291992188 319.096679688 479.266601562 320.716796875 475.72265625 322.697265625 c 4
 472.178710938 324.678710938 468.98828125 326.0078125 468.633789062 325.65234375 c 4
 468.278320312 325.297851562 474.198242188 320.188476562 481.790039062 314.298828125 c 4
 500.3046875 299.93359375 500.169921875 299.237304688 480.706054688 308.7109375 c 4
262.36328125 349.493164062 m 4
 316.016601562 355.475585938 363.94921875 390.012695312 396.129882812 445.875976562 c 4
 415.481445312 479.469726562 426.244140625 511.994140625 429.657226562 547.196289062 c 4
 433.420898438 586.009765625 421.912109375 627.424804688 396.98046875 664.788085938 c 4
 385.587890625 681.861328125 375.345703125 693.888671875 357.671875 710.9453125 c 4
 339.9140625 728.084960938 319.578125 743.9296875 312.408203125 746.21484375 c 4
 309.756835938 747.059570312 303.868164062 749.783203125 299.323242188 752.266601562 c 4
 289.1015625 757.8515625 268.154296875 764.622070312 252.162109375 767.510742188 c 4
 232.916992188 770.986328125 204.65625 770.403320312 188.140625 766.189453125 c 4
 152.510742188 757.098632812 127.602539062 734.58203125 106.458984375 692.3515625 c 4
 93.935546875 667.337890625 88.27734375 644.505859375 89.578125 624.23828125 c 6
 90.22265625 614.188476562 l 5
 82.708984375 617.51171875 l 6
 78.576171875 619.338867188 72.83203125 622.040039062 69.9453125 623.512695312 c 6
 64.6943359375 626.19140625 l 5
 62.5791015625 619.672851562 l 6
 50.19921875 581.541015625 43.0576171875 525.126953125 46.28125 490.94140625 c 4
 48.482421875 467.598632812 53.341796875 449.569335938 62.34375 431.348632812 c 4
 68.4794921875 418.930664062 72.142578125 413.651367188 82.654296875 402.079101562 c 4
 94.5234375 389.013671875 109.887695312 375.56640625 112.94921875 375.56640625 c 4
 113.663085938 375.56640625 120.87109375 372.737304688 128.966796875 369.278320312 c 4
 149.922851562 360.32421875 181.48046875 352.513671875 211.174804688 348.931640625 c 4
 220.578125 347.796875 250.056640625 348.120117188 262.36328125 349.493164062 c 4
EndSplineSet
EndChar

StartChar: N
Encoding: 78 78 14
Width: 1000
Flags: HW
LayerCount: 2
Fore
SplineSet
480.706054688 308.7109375 m 4
 463.87890625 316.900390625 449.748046875 326.63671875 440.379882812 336.493164062 c 4
 430.174804688 347.231445312 426.575195312 357.62890625 425.458984375 379.594726562 c 6
 424.66015625 395.329101562 l 1
 418.646484375 387.524414062 l 6
 403.748046875 368.186523438 377.176757812 346.608398438 354.018554688 335.041015625 c 0
 312.806640625 314.456054688 261.592773438 312.596679688 196.35546875 329.31640625 c 0
 171.200195312 335.763671875 156.028320312 341.83203125 129.912109375 355.891601562 c 4
 72.5791015625 386.756835938 54.3935546875 400.333984375 30.681640625 429.970703125 c 4
 8.8720703125 457.231445312 -1.9521484375 497.48046875 0.2900390625 542.98828125 c 4
 4.498046875 628.413085938 36.25390625 713.317382812 80.904296875 758.522460938 c 4
 90.7177734375 768.458007812 96.3974609375 773.001953125 103.0546875 776.244140625 c 4
 107.978515625 778.641601562 115.725585938 782.75390625 120.271484375 785.381835938 c 4
 144.802734375 799.565429688 181.55078125 803.767578125 217.453125 796.4921875 c 4
 246.02734375 790.702148438 273.143554688 780.081054688 304.97265625 762.212890625 c 4
 322.848632812 752.176757812 365.265625 724.067382812 379.208007812 713.015625 c 4
 401.833984375 695.08203125 426.905273438 668.419921875 440.403320312 647.935546875 c 4
 443.759765625 642.841796875 446.73046875 638.8984375 447.00390625 639.172851562 c 4
 447.278320312 639.446289062 448.66015625 647.233398438 450.076171875 656.4765625 c 4
 451.491210938 665.719726562 452.900390625 673.533203125 453.206054688 673.83984375 c 4
 453.59375 674.2265625 491.819335938 654.833007812 499.259765625 650.474609375 c 4
 499.383789062 650.40234375 498.9453125 647.553710938 498.28515625 644.145507812 c 4
 495.9296875 631.978515625 488.727132942 581.065364266 486.009765625 557.374023438 c 0
 477.78125 485.633789062 473.962890625 436.178710938 472.6640625 384.51953125 c 4
 471.73828125 347.755859375 472.608398438 339.639648438 478.826171875 327.016601562 c 4
 480.970703125 322.66015625 482.600585938 319.096679688 482.446289062 319.096679688 c 4
 482.291992188 319.096679688 479.266601562 320.716796875 475.72265625 322.697265625 c 4
 472.178710938 324.678710938 468.98828125 326.0078125 468.633789062 325.65234375 c 4
 468.278320312 325.297851562 474.198242188 320.188476562 481.790039062 314.298828125 c 4
 500.3046875 299.93359375 500.169921875 299.237304688 480.706054688 308.7109375 c 4
262.36328125 349.493164062 m 4
 316.016601562 355.475585938 363.94921875 390.012695312 396.129882812 445.875976562 c 4
 415.481445312 479.469726562 426.244140625 511.994140625 429.657226562 547.196289062 c 4
 433.420898438 586.009765625 421.912109375 627.424804688 396.98046875 664.788085938 c 4
 385.587890625 681.861328125 375.345703125 693.888671875 357.671875 710.9453125 c 4
 339.9140625 728.084960938 319.578125 743.9296875 312.408203125 746.21484375 c 4
 309.756835938 747.059570312 303.868164062 749.783203125 299.323242188 752.266601562 c 4
 289.1015625 757.8515625 268.154296875 764.622070312 252.162109375 767.510742188 c 4
 232.916992188 770.986328125 204.65625 770.403320312 188.140625 766.189453125 c 4
 152.510742188 757.098632812 127.602539062 734.58203125 106.458984375 692.3515625 c 4
 93.935546875 667.337890625 88.27734375 644.505859375 89.578125 624.23828125 c 6
 90.22265625 614.188476562 l 5
 82.708984375 617.51171875 l 6
 78.576171875 619.338867188 72.83203125 622.040039062 69.9453125 623.512695312 c 6
 64.6943359375 626.19140625 l 5
 62.5791015625 619.672851562 l 6
 50.19921875 581.541015625 43.0576171875 525.126953125 46.28125 490.94140625 c 4
 48.482421875 467.598632812 53.341796875 449.569335938 62.34375 431.348632812 c 4
 68.4794921875 418.930664062 72.142578125 413.651367188 82.654296875 402.079101562 c 4
 94.5234375 389.013671875 109.887695312 375.56640625 112.94921875 375.56640625 c 4
 113.663085938 375.56640625 120.87109375 372.737304688 128.966796875 369.278320312 c 4
 149.922851562 360.32421875 181.48046875 352.513671875 211.174804688 348.931640625 c 4
 220.578125 347.796875 250.056640625 348.120117188 262.36328125 349.493164062 c 4
EndSplineSet
EndChar

StartChar: O
Encoding: 79 79 15
Width: 1000
Flags: HW
LayerCount: 2
Fore
SplineSet
480.706054688 308.7109375 m 4
 463.87890625 316.900390625 449.748046875 326.63671875 440.379882812 336.493164062 c 4
 430.174804688 347.231445312 426.575195312 357.62890625 425.458984375 379.594726562 c 6
 424.66015625 395.329101562 l 1
 418.646484375 387.524414062 l 6
 403.748046875 368.186523438 377.176757812 346.608398438 354.018554688 335.041015625 c 0
 312.806640625 314.456054688 261.592773438 312.596679688 196.35546875 329.31640625 c 0
 171.200195312 335.763671875 156.028320312 341.83203125 129.912109375 355.891601562 c 4
 72.5791015625 386.756835938 54.3935546875 400.333984375 30.681640625 429.970703125 c 4
 8.8720703125 457.231445312 -1.9521484375 497.48046875 0.2900390625 542.98828125 c 4
 4.498046875 628.413085938 36.25390625 713.317382812 80.904296875 758.522460938 c 4
 90.7177734375 768.458007812 96.3974609375 773.001953125 103.0546875 776.244140625 c 4
 107.978515625 778.641601562 115.725585938 782.75390625 120.271484375 785.381835938 c 4
 144.802734375 799.565429688 181.55078125 803.767578125 217.453125 796.4921875 c 4
 246.02734375 790.702148438 273.143554688 780.081054688 304.97265625 762.212890625 c 4
 322.848632812 752.176757812 365.265625 724.067382812 379.208007812 713.015625 c 4
 401.833984375 695.08203125 426.905273438 668.419921875 440.403320312 647.935546875 c 4
 443.759765625 642.841796875 446.73046875 638.8984375 447.00390625 639.172851562 c 4
 447.278320312 639.446289062 448.66015625 647.233398438 450.076171875 656.4765625 c 4
 451.491210938 665.719726562 452.900390625 673.533203125 453.206054688 673.83984375 c 4
 453.59375 674.2265625 491.819335938 654.833007812 499.259765625 650.474609375 c 4
 499.383789062 650.40234375 498.9453125 647.553710938 498.28515625 644.145507812 c 4
 495.9296875 631.978515625 488.727132942 581.065364266 486.009765625 557.374023438 c 0
 477.78125 485.633789062 473.962890625 436.178710938 472.6640625 384.51953125 c 4
 471.73828125 347.755859375 472.608398438 339.639648438 478.826171875 327.016601562 c 4
 480.970703125 322.66015625 482.600585938 319.096679688 482.446289062 319.096679688 c 4
 482.291992188 319.096679688 479.266601562 320.716796875 475.72265625 322.697265625 c 4
 472.178710938 324.678710938 468.98828125 326.0078125 468.633789062 325.65234375 c 4
 468.278320312 325.297851562 474.198242188 320.188476562 481.790039062 314.298828125 c 4
 500.3046875 299.93359375 500.169921875 299.237304688 480.706054688 308.7109375 c 4
262.36328125 349.493164062 m 4
 316.016601562 355.475585938 363.94921875 390.012695312 396.129882812 445.875976562 c 4
 415.481445312 479.469726562 426.244140625 511.994140625 429.657226562 547.196289062 c 4
 433.420898438 586.009765625 421.912109375 627.424804688 396.98046875 664.788085938 c 4
 385.587890625 681.861328125 375.345703125 693.888671875 357.671875 710.9453125 c 4
 339.9140625 728.084960938 319.578125 743.9296875 312.408203125 746.21484375 c 4
 309.756835938 747.059570312 303.868164062 749.783203125 299.323242188 752.266601562 c 4
 289.1015625 757.8515625 268.154296875 764.622070312 252.162109375 767.510742188 c 4
 232.916992188 770.986328125 204.65625 770.403320312 188.140625 766.189453125 c 4
 152.510742188 757.098632812 127.602539062 734.58203125 106.458984375 692.3515625 c 4
 93.935546875 667.337890625 88.27734375 644.505859375 89.578125 624.23828125 c 6
 90.22265625 614.188476562 l 5
 82.708984375 617.51171875 l 6
 78.576171875 619.338867188 72.83203125 622.040039062 69.9453125 623.512695312 c 6
 64.6943359375 626.19140625 l 5
 62.5791015625 619.672851562 l 6
 50.19921875 581.541015625 43.0576171875 525.126953125 46.28125 490.94140625 c 4
 48.482421875 467.598632812 53.341796875 449.569335938 62.34375 431.348632812 c 4
 68.4794921875 418.930664062 72.142578125 413.651367188 82.654296875 402.079101562 c 4
 94.5234375 389.013671875 109.887695312 375.56640625 112.94921875 375.56640625 c 4
 113.663085938 375.56640625 120.87109375 372.737304688 128.966796875 369.278320312 c 4
 149.922851562 360.32421875 181.48046875 352.513671875 211.174804688 348.931640625 c 4
 220.578125 347.796875 250.056640625 348.120117188 262.36328125 349.493164062 c 4
EndSplineSet
EndChar

StartChar: P
Encoding: 80 80 16
Width: 1000
Flags: HW
LayerCount: 2
Fore
SplineSet
480.706054688 308.7109375 m 4
 463.87890625 316.900390625 449.748046875 326.63671875 440.379882812 336.493164062 c 4
 430.174804688 347.231445312 426.575195312 357.62890625 425.458984375 379.594726562 c 6
 424.66015625 395.329101562 l 1
 418.646484375 387.524414062 l 6
 403.748046875 368.186523438 377.176757812 346.608398438 354.018554688 335.041015625 c 0
 312.806640625 314.456054688 261.592773438 312.596679688 196.35546875 329.31640625 c 0
 171.200195312 335.763671875 156.028320312 341.83203125 129.912109375 355.891601562 c 4
 72.5791015625 386.756835938 54.3935546875 400.333984375 30.681640625 429.970703125 c 4
 8.8720703125 457.231445312 -1.9521484375 497.48046875 0.2900390625 542.98828125 c 4
 4.498046875 628.413085938 36.25390625 713.317382812 80.904296875 758.522460938 c 4
 90.7177734375 768.458007812 96.3974609375 773.001953125 103.0546875 776.244140625 c 4
 107.978515625 778.641601562 115.725585938 782.75390625 120.271484375 785.381835938 c 4
 144.802734375 799.565429688 181.55078125 803.767578125 217.453125 796.4921875 c 4
 246.02734375 790.702148438 273.143554688 780.081054688 304.97265625 762.212890625 c 4
 322.848632812 752.176757812 365.265625 724.067382812 379.208007812 713.015625 c 4
 401.833984375 695.08203125 426.905273438 668.419921875 440.403320312 647.935546875 c 4
 443.759765625 642.841796875 446.73046875 638.8984375 447.00390625 639.172851562 c 4
 447.278320312 639.446289062 448.66015625 647.233398438 450.076171875 656.4765625 c 4
 451.491210938 665.719726562 452.900390625 673.533203125 453.206054688 673.83984375 c 4
 453.59375 674.2265625 491.819335938 654.833007812 499.259765625 650.474609375 c 4
 499.383789062 650.40234375 498.9453125 647.553710938 498.28515625 644.145507812 c 4
 495.9296875 631.978515625 488.727132942 581.065364266 486.009765625 557.374023438 c 0
 477.78125 485.633789062 473.962890625 436.178710938 472.6640625 384.51953125 c 4
 471.73828125 347.755859375 472.608398438 339.639648438 478.826171875 327.016601562 c 4
 480.970703125 322.66015625 482.600585938 319.096679688 482.446289062 319.096679688 c 4
 482.291992188 319.096679688 479.266601562 320.716796875 475.72265625 322.697265625 c 4
 472.178710938 324.678710938 468.98828125 326.0078125 468.633789062 325.65234375 c 4
 468.278320312 325.297851562 474.198242188 320.188476562 481.790039062 314.298828125 c 4
 500.3046875 299.93359375 500.169921875 299.237304688 480.706054688 308.7109375 c 4
262.36328125 349.493164062 m 4
 316.016601562 355.475585938 363.94921875 390.012695312 396.129882812 445.875976562 c 4
 415.481445312 479.469726562 426.244140625 511.994140625 429.657226562 547.196289062 c 4
 433.420898438 586.009765625 421.912109375 627.424804688 396.98046875 664.788085938 c 4
 385.587890625 681.861328125 375.345703125 693.888671875 357.671875 710.9453125 c 4
 339.9140625 728.084960938 319.578125 743.9296875 312.408203125 746.21484375 c 4
 309.756835938 747.059570312 303.868164062 749.783203125 299.323242188 752.266601562 c 4
 289.1015625 757.8515625 268.154296875 764.622070312 252.162109375 767.510742188 c 4
 232.916992188 770.986328125 204.65625 770.403320312 188.140625 766.189453125 c 4
 152.510742188 757.098632812 127.602539062 734.58203125 106.458984375 692.3515625 c 4
 93.935546875 667.337890625 88.27734375 644.505859375 89.578125 624.23828125 c 6
 90.22265625 614.188476562 l 5
 82.708984375 617.51171875 l 6
 78.576171875 619.338867188 72.83203125 622.040039062 69.9453125 623.512695312 c 6
 64.6943359375 626.19140625 l 5
 62.5791015625 619.672851562 l 6
 50.19921875 581.541015625 43.0576171875 525.126953125 46.28125 490.94140625 c 4
 48.482421875 467.598632812 53.341796875 449.569335938 62.34375 431.348632812 c 4
 68.4794921875 418.930664062 72.142578125 413.651367188 82.654296875 402.079101562 c 4
 94.5234375 389.013671875 109.887695312 375.56640625 112.94921875 375.56640625 c 4
 113.663085938 375.56640625 120.87109375 372.737304688 128.966796875 369.278320312 c 4
 149.922851562 360.32421875 181.48046875 352.513671875 211.174804688 348.931640625 c 4
 220.578125 347.796875 250.056640625 348.120117188 262.36328125 349.493164062 c 4
EndSplineSet
EndChar

StartChar: Q
Encoding: 81 81 17
Width: 1000
Flags: HW
LayerCount: 2
Fore
SplineSet
480.706054688 308.7109375 m 4
 463.87890625 316.900390625 449.748046875 326.63671875 440.379882812 336.493164062 c 4
 430.174804688 347.231445312 426.575195312 357.62890625 425.458984375 379.594726562 c 6
 424.66015625 395.329101562 l 1
 418.646484375 387.524414062 l 6
 403.748046875 368.186523438 377.176757812 346.608398438 354.018554688 335.041015625 c 0
 312.806640625 314.456054688 261.592773438 312.596679688 196.35546875 329.31640625 c 0
 171.200195312 335.763671875 156.028320312 341.83203125 129.912109375 355.891601562 c 4
 72.5791015625 386.756835938 54.3935546875 400.333984375 30.681640625 429.970703125 c 4
 8.8720703125 457.231445312 -1.9521484375 497.48046875 0.2900390625 542.98828125 c 4
 4.498046875 628.413085938 36.25390625 713.317382812 80.904296875 758.522460938 c 4
 90.7177734375 768.458007812 96.3974609375 773.001953125 103.0546875 776.244140625 c 4
 107.978515625 778.641601562 115.725585938 782.75390625 120.271484375 785.381835938 c 4
 144.802734375 799.565429688 181.55078125 803.767578125 217.453125 796.4921875 c 4
 246.02734375 790.702148438 273.143554688 780.081054688 304.97265625 762.212890625 c 4
 322.848632812 752.176757812 365.265625 724.067382812 379.208007812 713.015625 c 4
 401.833984375 695.08203125 426.905273438 668.419921875 440.403320312 647.935546875 c 4
 443.759765625 642.841796875 446.73046875 638.8984375 447.00390625 639.172851562 c 4
 447.278320312 639.446289062 448.66015625 647.233398438 450.076171875 656.4765625 c 4
 451.491210938 665.719726562 452.900390625 673.533203125 453.206054688 673.83984375 c 4
 453.59375 674.2265625 491.819335938 654.833007812 499.259765625 650.474609375 c 4
 499.383789062 650.40234375 498.9453125 647.553710938 498.28515625 644.145507812 c 4
 495.9296875 631.978515625 488.727132942 581.065364266 486.009765625 557.374023438 c 0
 477.78125 485.633789062 473.962890625 436.178710938 472.6640625 384.51953125 c 4
 471.73828125 347.755859375 472.608398438 339.639648438 478.826171875 327.016601562 c 4
 480.970703125 322.66015625 482.600585938 319.096679688 482.446289062 319.096679688 c 4
 482.291992188 319.096679688 479.266601562 320.716796875 475.72265625 322.697265625 c 4
 472.178710938 324.678710938 468.98828125 326.0078125 468.633789062 325.65234375 c 4
 468.278320312 325.297851562 474.198242188 320.188476562 481.790039062 314.298828125 c 4
 500.3046875 299.93359375 500.169921875 299.237304688 480.706054688 308.7109375 c 4
262.36328125 349.493164062 m 4
 316.016601562 355.475585938 363.94921875 390.012695312 396.129882812 445.875976562 c 4
 415.481445312 479.469726562 426.244140625 511.994140625 429.657226562 547.196289062 c 4
 433.420898438 586.009765625 421.912109375 627.424804688 396.98046875 664.788085938 c 4
 385.587890625 681.861328125 375.345703125 693.888671875 357.671875 710.9453125 c 4
 339.9140625 728.084960938 319.578125 743.9296875 312.408203125 746.21484375 c 4
 309.756835938 747.059570312 303.868164062 749.783203125 299.323242188 752.266601562 c 4
 289.1015625 757.8515625 268.154296875 764.622070312 252.162109375 767.510742188 c 4
 232.916992188 770.986328125 204.65625 770.403320312 188.140625 766.189453125 c 4
 152.510742188 757.098632812 127.602539062 734.58203125 106.458984375 692.3515625 c 4
 93.935546875 667.337890625 88.27734375 644.505859375 89.578125 624.23828125 c 6
 90.22265625 614.188476562 l 5
 82.708984375 617.51171875 l 6
 78.576171875 619.338867188 72.83203125 622.040039062 69.9453125 623.512695312 c 6
 64.6943359375 626.19140625 l 5
 62.5791015625 619.672851562 l 6
 50.19921875 581.541015625 43.0576171875 525.126953125 46.28125 490.94140625 c 4
 48.482421875 467.598632812 53.341796875 449.569335938 62.34375 431.348632812 c 4
 68.4794921875 418.930664062 72.142578125 413.651367188 82.654296875 402.079101562 c 4
 94.5234375 389.013671875 109.887695312 375.56640625 112.94921875 375.56640625 c 4
 113.663085938 375.56640625 120.87109375 372.737304688 128.966796875 369.278320312 c 4
 149.922851562 360.32421875 181.48046875 352.513671875 211.174804688 348.931640625 c 4
 220.578125 347.796875 250.056640625 348.120117188 262.36328125 349.493164062 c 4
EndSplineSet
EndChar

StartChar: R
Encoding: 82 82 18
Width: 1000
Flags: HW
LayerCount: 2
Fore
SplineSet
480.706054688 308.7109375 m 4
 463.87890625 316.900390625 449.748046875 326.63671875 440.379882812 336.493164062 c 4
 430.174804688 347.231445312 426.575195312 357.62890625 425.458984375 379.594726562 c 6
 424.66015625 395.329101562 l 1
 418.646484375 387.524414062 l 6
 403.748046875 368.186523438 377.176757812 346.608398438 354.018554688 335.041015625 c 0
 312.806640625 314.456054688 261.592773438 312.596679688 196.35546875 329.31640625 c 0
 171.200195312 335.763671875 156.028320312 341.83203125 129.912109375 355.891601562 c 4
 72.5791015625 386.756835938 54.3935546875 400.333984375 30.681640625 429.970703125 c 4
 8.8720703125 457.231445312 -1.9521484375 497.48046875 0.2900390625 542.98828125 c 4
 4.498046875 628.413085938 36.25390625 713.317382812 80.904296875 758.522460938 c 4
 90.7177734375 768.458007812 96.3974609375 773.001953125 103.0546875 776.244140625 c 4
 107.978515625 778.641601562 115.725585938 782.75390625 120.271484375 785.381835938 c 4
 144.802734375 799.565429688 181.55078125 803.767578125 217.453125 796.4921875 c 4
 246.02734375 790.702148438 273.143554688 780.081054688 304.97265625 762.212890625 c 4
 322.848632812 752.176757812 365.265625 724.067382812 379.208007812 713.015625 c 4
 401.833984375 695.08203125 426.905273438 668.419921875 440.403320312 647.935546875 c 4
 443.759765625 642.841796875 446.73046875 638.8984375 447.00390625 639.172851562 c 4
 447.278320312 639.446289062 448.66015625 647.233398438 450.076171875 656.4765625 c 4
 451.491210938 665.719726562 452.900390625 673.533203125 453.206054688 673.83984375 c 4
 453.59375 674.2265625 491.819335938 654.833007812 499.259765625 650.474609375 c 4
 499.383789062 650.40234375 498.9453125 647.553710938 498.28515625 644.145507812 c 4
 495.9296875 631.978515625 488.727132942 581.065364266 486.009765625 557.374023438 c 0
 477.78125 485.633789062 473.962890625 436.178710938 472.6640625 384.51953125 c 4
 471.73828125 347.755859375 472.608398438 339.639648438 478.826171875 327.016601562 c 4
 480.970703125 322.66015625 482.600585938 319.096679688 482.446289062 319.096679688 c 4
 482.291992188 319.096679688 479.266601562 320.716796875 475.72265625 322.697265625 c 4
 472.178710938 324.678710938 468.98828125 326.0078125 468.633789062 325.65234375 c 4
 468.278320312 325.297851562 474.198242188 320.188476562 481.790039062 314.298828125 c 4
 500.3046875 299.93359375 500.169921875 299.237304688 480.706054688 308.7109375 c 4
262.36328125 349.493164062 m 4
 316.016601562 355.475585938 363.94921875 390.012695312 396.129882812 445.875976562 c 4
 415.481445312 479.469726562 426.244140625 511.994140625 429.657226562 547.196289062 c 4
 433.420898438 586.009765625 421.912109375 627.424804688 396.98046875 664.788085938 c 4
 385.587890625 681.861328125 375.345703125 693.888671875 357.671875 710.9453125 c 4
 339.9140625 728.084960938 319.578125 743.9296875 312.408203125 746.21484375 c 4
 309.756835938 747.059570312 303.868164062 749.783203125 299.323242188 752.266601562 c 4
 289.1015625 757.8515625 268.154296875 764.622070312 252.162109375 767.510742188 c 4
 232.916992188 770.986328125 204.65625 770.403320312 188.140625 766.189453125 c 4
 152.510742188 757.098632812 127.602539062 734.58203125 106.458984375 692.3515625 c 4
 93.935546875 667.337890625 88.27734375 644.505859375 89.578125 624.23828125 c 6
 90.22265625 614.188476562 l 5
 82.708984375 617.51171875 l 6
 78.576171875 619.338867188 72.83203125 622.040039062 69.9453125 623.512695312 c 6
 64.6943359375 626.19140625 l 5
 62.5791015625 619.672851562 l 6
 50.19921875 581.541015625 43.0576171875 525.126953125 46.28125 490.94140625 c 4
 48.482421875 467.598632812 53.341796875 449.569335938 62.34375 431.348632812 c 4
 68.4794921875 418.930664062 72.142578125 413.651367188 82.654296875 402.079101562 c 4
 94.5234375 389.013671875 109.887695312 375.56640625 112.94921875 375.56640625 c 4
 113.663085938 375.56640625 120.87109375 372.737304688 128.966796875 369.278320312 c 4
 149.922851562 360.32421875 181.48046875 352.513671875 211.174804688 348.931640625 c 4
 220.578125 347.796875 250.056640625 348.120117188 262.36328125 349.493164062 c 4
EndSplineSet
EndChar

StartChar: S
Encoding: 83 83 19
Width: 1000
Flags: HW
LayerCount: 2
Fore
SplineSet
480.706054688 308.7109375 m 4
 463.87890625 316.900390625 449.748046875 326.63671875 440.379882812 336.493164062 c 4
 430.174804688 347.231445312 426.575195312 357.62890625 425.458984375 379.594726562 c 6
 424.66015625 395.329101562 l 1
 418.646484375 387.524414062 l 6
 403.748046875 368.186523438 377.176757812 346.608398438 354.018554688 335.041015625 c 0
 312.806640625 314.456054688 261.592773438 312.596679688 196.35546875 329.31640625 c 0
 171.200195312 335.763671875 156.028320312 341.83203125 129.912109375 355.891601562 c 4
 72.5791015625 386.756835938 54.3935546875 400.333984375 30.681640625 429.970703125 c 4
 8.8720703125 457.231445312 -1.9521484375 497.48046875 0.2900390625 542.98828125 c 4
 4.498046875 628.413085938 36.25390625 713.317382812 80.904296875 758.522460938 c 4
 90.7177734375 768.458007812 96.3974609375 773.001953125 103.0546875 776.244140625 c 4
 107.978515625 778.641601562 115.725585938 782.75390625 120.271484375 785.381835938 c 4
 144.802734375 799.565429688 181.55078125 803.767578125 217.453125 796.4921875 c 4
 246.02734375 790.702148438 273.143554688 780.081054688 304.97265625 762.212890625 c 4
 322.848632812 752.176757812 365.265625 724.067382812 379.208007812 713.015625 c 4
 401.833984375 695.08203125 426.905273438 668.419921875 440.403320312 647.935546875 c 4
 443.759765625 642.841796875 446.73046875 638.8984375 447.00390625 639.172851562 c 4
 447.278320312 639.446289062 448.66015625 647.233398438 450.076171875 656.4765625 c 4
 451.491210938 665.719726562 452.900390625 673.533203125 453.206054688 673.83984375 c 4
 453.59375 674.2265625 491.819335938 654.833007812 499.259765625 650.474609375 c 4
 499.383789062 650.40234375 498.9453125 647.553710938 498.28515625 644.145507812 c 4
 495.9296875 631.978515625 488.727132942 581.065364266 486.009765625 557.374023438 c 0
 477.78125 485.633789062 473.962890625 436.178710938 472.6640625 384.51953125 c 4
 471.73828125 347.755859375 472.608398438 339.639648438 478.826171875 327.016601562 c 4
 480.970703125 322.66015625 482.600585938 319.096679688 482.446289062 319.096679688 c 4
 482.291992188 319.096679688 479.266601562 320.716796875 475.72265625 322.697265625 c 4
 472.178710938 324.678710938 468.98828125 326.0078125 468.633789062 325.65234375 c 4
 468.278320312 325.297851562 474.198242188 320.188476562 481.790039062 314.298828125 c 4
 500.3046875 299.93359375 500.169921875 299.237304688 480.706054688 308.7109375 c 4
262.36328125 349.493164062 m 4
 316.016601562 355.475585938 363.94921875 390.012695312 396.129882812 445.875976562 c 4
 415.481445312 479.469726562 426.244140625 511.994140625 429.657226562 547.196289062 c 4
 433.420898438 586.009765625 421.912109375 627.424804688 396.98046875 664.788085938 c 4
 385.587890625 681.861328125 375.345703125 693.888671875 357.671875 710.9453125 c 4
 339.9140625 728.084960938 319.578125 743.9296875 312.408203125 746.21484375 c 4
 309.756835938 747.059570312 303.868164062 749.783203125 299.323242188 752.266601562 c 4
 289.1015625 757.8515625 268.154296875 764.622070312 252.162109375 767.510742188 c 4
 232.916992188 770.986328125 204.65625 770.403320312 188.140625 766.189453125 c 4
 152.510742188 757.098632812 127.602539062 734.58203125 106.458984375 692.3515625 c 4
 93.935546875 667.337890625 88.27734375 644.505859375 89.578125 624.23828125 c 6
 90.22265625 614.188476562 l 5
 82.708984375 617.51171875 l 6
 78.576171875 619.338867188 72.83203125 622.040039062 69.9453125 623.512695312 c 6
 64.6943359375 626.19140625 l 5
 62.5791015625 619.672851562 l 6
 50.19921875 581.541015625 43.0576171875 525.126953125 46.28125 490.94140625 c 4
 48.482421875 467.598632812 53.341796875 449.569335938 62.34375 431.348632812 c 4
 68.4794921875 418.930664062 72.142578125 413.651367188 82.654296875 402.079101562 c 4
 94.5234375 389.013671875 109.887695312 375.56640625 112.94921875 375.56640625 c 4
 113.663085938 375.56640625 120.87109375 372.737304688 128.966796875 369.278320312 c 4
 149.922851562 360.32421875 181.48046875 352.513671875 211.174804688 348.931640625 c 4
 220.578125 347.796875 250.056640625 348.120117188 262.36328125 349.493164062 c 4
EndSplineSet
EndChar

StartChar: T
Encoding: 84 84 20
Width: 1000
Flags: HW
LayerCount: 2
Fore
SplineSet
480.706054688 308.7109375 m 4
 463.87890625 316.900390625 449.748046875 326.63671875 440.379882812 336.493164062 c 4
 430.174804688 347.231445312 426.575195312 357.62890625 425.458984375 379.594726562 c 6
 424.66015625 395.329101562 l 1
 418.646484375 387.524414062 l 6
 403.748046875 368.186523438 377.176757812 346.608398438 354.018554688 335.041015625 c 0
 312.806640625 314.456054688 261.592773438 312.596679688 196.35546875 329.31640625 c 0
 171.200195312 335.763671875 156.028320312 341.83203125 129.912109375 355.891601562 c 4
 72.5791015625 386.756835938 54.3935546875 400.333984375 30.681640625 429.970703125 c 4
 8.8720703125 457.231445312 -1.9521484375 497.48046875 0.2900390625 542.98828125 c 4
 4.498046875 628.413085938 36.25390625 713.317382812 80.904296875 758.522460938 c 4
 90.7177734375 768.458007812 96.3974609375 773.001953125 103.0546875 776.244140625 c 4
 107.978515625 778.641601562 115.725585938 782.75390625 120.271484375 785.381835938 c 4
 144.802734375 799.565429688 181.55078125 803.767578125 217.453125 796.4921875 c 4
 246.02734375 790.702148438 273.143554688 780.081054688 304.97265625 762.212890625 c 4
 322.848632812 752.176757812 365.265625 724.067382812 379.208007812 713.015625 c 4
 401.833984375 695.08203125 426.905273438 668.419921875 440.403320312 647.935546875 c 4
 443.759765625 642.841796875 446.73046875 638.8984375 447.00390625 639.172851562 c 4
 447.278320312 639.446289062 448.66015625 647.233398438 450.076171875 656.4765625 c 4
 451.491210938 665.719726562 452.900390625 673.533203125 453.206054688 673.83984375 c 4
 453.59375 674.2265625 491.819335938 654.833007812 499.259765625 650.474609375 c 4
 499.383789062 650.40234375 498.9453125 647.553710938 498.28515625 644.145507812 c 4
 495.9296875 631.978515625 488.727132942 581.065364266 486.009765625 557.374023438 c 0
 477.78125 485.633789062 473.962890625 436.178710938 472.6640625 384.51953125 c 4
 471.73828125 347.755859375 472.608398438 339.639648438 478.826171875 327.016601562 c 4
 480.970703125 322.66015625 482.600585938 319.096679688 482.446289062 319.096679688 c 4
 482.291992188 319.096679688 479.266601562 320.716796875 475.72265625 322.697265625 c 4
 472.178710938 324.678710938 468.98828125 326.0078125 468.633789062 325.65234375 c 4
 468.278320312 325.297851562 474.198242188 320.188476562 481.790039062 314.298828125 c 4
 500.3046875 299.93359375 500.169921875 299.237304688 480.706054688 308.7109375 c 4
262.36328125 349.493164062 m 4
 316.016601562 355.475585938 363.94921875 390.012695312 396.129882812 445.875976562 c 4
 415.481445312 479.469726562 426.244140625 511.994140625 429.657226562 547.196289062 c 4
 433.420898438 586.009765625 421.912109375 627.424804688 396.98046875 664.788085938 c 4
 385.587890625 681.861328125 375.345703125 693.888671875 357.671875 710.9453125 c 4
 339.9140625 728.084960938 319.578125 743.9296875 312.408203125 746.21484375 c 4
 309.756835938 747.059570312 303.868164062 749.783203125 299.323242188 752.266601562 c 4
 289.1015625 757.8515625 268.154296875 764.622070312 252.162109375 767.510742188 c 4
 232.916992188 770.986328125 204.65625 770.403320312 188.140625 766.189453125 c 4
 152.510742188 757.098632812 127.602539062 734.58203125 106.458984375 692.3515625 c 4
 93.935546875 667.337890625 88.27734375 644.505859375 89.578125 624.23828125 c 6
 90.22265625 614.188476562 l 5
 82.708984375 617.51171875 l 6
 78.576171875 619.338867188 72.83203125 622.040039062 69.9453125 623.512695312 c 6
 64.6943359375 626.19140625 l 5
 62.5791015625 619.672851562 l 6
 50.19921875 581.541015625 43.0576171875 525.126953125 46.28125 490.94140625 c 4
 48.482421875 467.598632812 53.341796875 449.569335938 62.34375 431.348632812 c 4
 68.4794921875 418.930664062 72.142578125 413.651367188 82.654296875 402.079101562 c 4
 94.5234375 389.013671875 109.887695312 375.56640625 112.94921875 375.56640625 c 4
 113.663085938 375.56640625 120.87109375 372.737304688 128.966796875 369.278320312 c 4
 149.922851562 360.32421875 181.48046875 352.513671875 211.174804688 348.931640625 c 4
 220.578125 347.796875 250.056640625 348.120117188 262.36328125 349.493164062 c 4
EndSplineSet
EndChar

StartChar: U
Encoding: 85 85 21
Width: 1000
Flags: HW
LayerCount: 2
Fore
SplineSet
480.706054688 308.7109375 m 4
 463.87890625 316.900390625 449.748046875 326.63671875 440.379882812 336.493164062 c 4
 430.174804688 347.231445312 426.575195312 357.62890625 425.458984375 379.594726562 c 6
 424.66015625 395.329101562 l 1
 418.646484375 387.524414062 l 6
 403.748046875 368.186523438 377.176757812 346.608398438 354.018554688 335.041015625 c 0
 312.806640625 314.456054688 261.592773438 312.596679688 196.35546875 329.31640625 c 0
 171.200195312 335.763671875 156.028320312 341.83203125 129.912109375 355.891601562 c 4
 72.5791015625 386.756835938 54.3935546875 400.333984375 30.681640625 429.970703125 c 4
 8.8720703125 457.231445312 -1.9521484375 497.48046875 0.2900390625 542.98828125 c 4
 4.498046875 628.413085938 36.25390625 713.317382812 80.904296875 758.522460938 c 4
 90.7177734375 768.458007812 96.3974609375 773.001953125 103.0546875 776.244140625 c 4
 107.978515625 778.641601562 115.725585938 782.75390625 120.271484375 785.381835938 c 4
 144.802734375 799.565429688 181.55078125 803.767578125 217.453125 796.4921875 c 4
 246.02734375 790.702148438 273.143554688 780.081054688 304.97265625 762.212890625 c 4
 322.848632812 752.176757812 365.265625 724.067382812 379.208007812 713.015625 c 4
 401.833984375 695.08203125 426.905273438 668.419921875 440.403320312 647.935546875 c 4
 443.759765625 642.841796875 446.73046875 638.8984375 447.00390625 639.172851562 c 4
 447.278320312 639.446289062 448.66015625 647.233398438 450.076171875 656.4765625 c 4
 451.491210938 665.719726562 452.900390625 673.533203125 453.206054688 673.83984375 c 4
 453.59375 674.2265625 491.819335938 654.833007812 499.259765625 650.474609375 c 4
 499.383789062 650.40234375 498.9453125 647.553710938 498.28515625 644.145507812 c 4
 495.9296875 631.978515625 488.727132942 581.065364266 486.009765625 557.374023438 c 0
 477.78125 485.633789062 473.962890625 436.178710938 472.6640625 384.51953125 c 4
 471.73828125 347.755859375 472.608398438 339.639648438 478.826171875 327.016601562 c 4
 480.970703125 322.66015625 482.600585938 319.096679688 482.446289062 319.096679688 c 4
 482.291992188 319.096679688 479.266601562 320.716796875 475.72265625 322.697265625 c 4
 472.178710938 324.678710938 468.98828125 326.0078125 468.633789062 325.65234375 c 4
 468.278320312 325.297851562 474.198242188 320.188476562 481.790039062 314.298828125 c 4
 500.3046875 299.93359375 500.169921875 299.237304688 480.706054688 308.7109375 c 4
262.36328125 349.493164062 m 4
 316.016601562 355.475585938 363.94921875 390.012695312 396.129882812 445.875976562 c 4
 415.481445312 479.469726562 426.244140625 511.994140625 429.657226562 547.196289062 c 4
 433.420898438 586.009765625 421.912109375 627.424804688 396.98046875 664.788085938 c 4
 385.587890625 681.861328125 375.345703125 693.888671875 357.671875 710.9453125 c 4
 339.9140625 728.084960938 319.578125 743.9296875 312.408203125 746.21484375 c 4
 309.756835938 747.059570312 303.868164062 749.783203125 299.323242188 752.266601562 c 4
 289.1015625 757.8515625 268.154296875 764.622070312 252.162109375 767.510742188 c 4
 232.916992188 770.986328125 204.65625 770.403320312 188.140625 766.189453125 c 4
 152.510742188 757.098632812 127.602539062 734.58203125 106.458984375 692.3515625 c 4
 93.935546875 667.337890625 88.27734375 644.505859375 89.578125 624.23828125 c 6
 90.22265625 614.188476562 l 5
 82.708984375 617.51171875 l 6
 78.576171875 619.338867188 72.83203125 622.040039062 69.9453125 623.512695312 c 6
 64.6943359375 626.19140625 l 5
 62.5791015625 619.672851562 l 6
 50.19921875 581.541015625 43.0576171875 525.126953125 46.28125 490.94140625 c 4
 48.482421875 467.598632812 53.341796875 449.569335938 62.34375 431.348632812 c 4
 68.4794921875 418.930664062 72.142578125 413.651367188 82.654296875 402.079101562 c 4
 94.5234375 389.013671875 109.887695312 375.56640625 112.94921875 375.56640625 c 4
 113.663085938 375.56640625 120.87109375 372.737304688 128.966796875 369.278320312 c 4
 149.922851562 360.32421875 181.48046875 352.513671875 211.174804688 348.931640625 c 4
 220.578125 347.796875 250.056640625 348.120117188 262.36328125 349.493164062 c 4
EndSplineSet
EndChar

StartChar: V
Encoding: 86 86 22
Width: 1000
Flags: HW
LayerCount: 2
Fore
SplineSet
480.706054688 308.7109375 m 4
 463.87890625 316.900390625 449.748046875 326.63671875 440.379882812 336.493164062 c 4
 430.174804688 347.231445312 426.575195312 357.62890625 425.458984375 379.594726562 c 6
 424.66015625 395.329101562 l 1
 418.646484375 387.524414062 l 6
 403.748046875 368.186523438 377.176757812 346.608398438 354.018554688 335.041015625 c 0
 312.806640625 314.456054688 261.592773438 312.596679688 196.35546875 329.31640625 c 0
 171.200195312 335.763671875 156.028320312 341.83203125 129.912109375 355.891601562 c 4
 72.5791015625 386.756835938 54.3935546875 400.333984375 30.681640625 429.970703125 c 4
 8.8720703125 457.231445312 -1.9521484375 497.48046875 0.2900390625 542.98828125 c 4
 4.498046875 628.413085938 36.25390625 713.317382812 80.904296875 758.522460938 c 4
 90.7177734375 768.458007812 96.3974609375 773.001953125 103.0546875 776.244140625 c 4
 107.978515625 778.641601562 115.725585938 782.75390625 120.271484375 785.381835938 c 4
 144.802734375 799.565429688 181.55078125 803.767578125 217.453125 796.4921875 c 4
 246.02734375 790.702148438 273.143554688 780.081054688 304.97265625 762.212890625 c 4
 322.848632812 752.176757812 365.265625 724.067382812 379.208007812 713.015625 c 4
 401.833984375 695.08203125 426.905273438 668.419921875 440.403320312 647.935546875 c 4
 443.759765625 642.841796875 446.73046875 638.8984375 447.00390625 639.172851562 c 4
 447.278320312 639.446289062 448.66015625 647.233398438 450.076171875 656.4765625 c 4
 451.491210938 665.719726562 452.900390625 673.533203125 453.206054688 673.83984375 c 4
 453.59375 674.2265625 491.819335938 654.833007812 499.259765625 650.474609375 c 4
 499.383789062 650.40234375 498.9453125 647.553710938 498.28515625 644.145507812 c 4
 495.9296875 631.978515625 488.727132942 581.065364266 486.009765625 557.374023438 c 0
 477.78125 485.633789062 473.962890625 436.178710938 472.6640625 384.51953125 c 4
 471.73828125 347.755859375 472.608398438 339.639648438 478.826171875 327.016601562 c 4
 480.970703125 322.66015625 482.600585938 319.096679688 482.446289062 319.096679688 c 4
 482.291992188 319.096679688 479.266601562 320.716796875 475.72265625 322.697265625 c 4
 472.178710938 324.678710938 468.98828125 326.0078125 468.633789062 325.65234375 c 4
 468.278320312 325.297851562 474.198242188 320.188476562 481.790039062 314.298828125 c 4
 500.3046875 299.93359375 500.169921875 299.237304688 480.706054688 308.7109375 c 4
262.36328125 349.493164062 m 4
 316.016601562 355.475585938 363.94921875 390.012695312 396.129882812 445.875976562 c 4
 415.481445312 479.469726562 426.244140625 511.994140625 429.657226562 547.196289062 c 4
 433.420898438 586.009765625 421.912109375 627.424804688 396.98046875 664.788085938 c 4
 385.587890625 681.861328125 375.345703125 693.888671875 357.671875 710.9453125 c 4
 339.9140625 728.084960938 319.578125 743.9296875 312.408203125 746.21484375 c 4
 309.756835938 747.059570312 303.868164062 749.783203125 299.323242188 752.266601562 c 4
 289.1015625 757.8515625 268.154296875 764.622070312 252.162109375 767.510742188 c 4
 232.916992188 770.986328125 204.65625 770.403320312 188.140625 766.189453125 c 4
 152.510742188 757.098632812 127.602539062 734.58203125 106.458984375 692.3515625 c 4
 93.935546875 667.337890625 88.27734375 644.505859375 89.578125 624.23828125 c 6
 90.22265625 614.188476562 l 5
 82.708984375 617.51171875 l 6
 78.576171875 619.338867188 72.83203125 622.040039062 69.9453125 623.512695312 c 6
 64.6943359375 626.19140625 l 5
 62.5791015625 619.672851562 l 6
 50.19921875 581.541015625 43.0576171875 525.126953125 46.28125 490.94140625 c 4
 48.482421875 467.598632812 53.341796875 449.569335938 62.34375 431.348632812 c 4
 68.4794921875 418.930664062 72.142578125 413.651367188 82.654296875 402.079101562 c 4
 94.5234375 389.013671875 109.887695312 375.56640625 112.94921875 375.56640625 c 4
 113.663085938 375.56640625 120.87109375 372.737304688 128.966796875 369.278320312 c 4
 149.922851562 360.32421875 181.48046875 352.513671875 211.174804688 348.931640625 c 4
 220.578125 347.796875 250.056640625 348.120117188 262.36328125 349.493164062 c 4
EndSplineSet
EndChar

StartChar: W
Encoding: 87 87 23
Width: 1000
Flags: HW
LayerCount: 2
Fore
SplineSet
480.706054688 308.7109375 m 4
 463.87890625 316.900390625 449.748046875 326.63671875 440.379882812 336.493164062 c 4
 430.174804688 347.231445312 426.575195312 357.62890625 425.458984375 379.594726562 c 6
 424.66015625 395.329101562 l 1
 418.646484375 387.524414062 l 6
 403.748046875 368.186523438 377.176757812 346.608398438 354.018554688 335.041015625 c 0
 312.806640625 314.456054688 261.592773438 312.596679688 196.35546875 329.31640625 c 0
 171.200195312 335.763671875 156.028320312 341.83203125 129.912109375 355.891601562 c 4
 72.5791015625 386.756835938 54.3935546875 400.333984375 30.681640625 429.970703125 c 4
 8.8720703125 457.231445312 -1.9521484375 497.48046875 0.2900390625 542.98828125 c 4
 4.498046875 628.413085938 36.25390625 713.317382812 80.904296875 758.522460938 c 4
 90.7177734375 768.458007812 96.3974609375 773.001953125 103.0546875 776.244140625 c 4
 107.978515625 778.641601562 115.725585938 782.75390625 120.271484375 785.381835938 c 4
 144.802734375 799.565429688 181.55078125 803.767578125 217.453125 796.4921875 c 4
 246.02734375 790.702148438 273.143554688 780.081054688 304.97265625 762.212890625 c 4
 322.848632812 752.176757812 365.265625 724.067382812 379.208007812 713.015625 c 4
 401.833984375 695.08203125 426.905273438 668.419921875 440.403320312 647.935546875 c 4
 443.759765625 642.841796875 446.73046875 638.8984375 447.00390625 639.172851562 c 4
 447.278320312 639.446289062 448.66015625 647.233398438 450.076171875 656.4765625 c 4
 451.491210938 665.719726562 452.900390625 673.533203125 453.206054688 673.83984375 c 4
 453.59375 674.2265625 491.819335938 654.833007812 499.259765625 650.474609375 c 4
 499.383789062 650.40234375 498.9453125 647.553710938 498.28515625 644.145507812 c 4
 495.9296875 631.978515625 488.727132942 581.065364266 486.009765625 557.374023438 c 0
 477.78125 485.633789062 473.962890625 436.178710938 472.6640625 384.51953125 c 4
 471.73828125 347.755859375 472.608398438 339.639648438 478.826171875 327.016601562 c 4
 480.970703125 322.66015625 482.600585938 319.096679688 482.446289062 319.096679688 c 4
 482.291992188 319.096679688 479.266601562 320.716796875 475.72265625 322.697265625 c 4
 472.178710938 324.678710938 468.98828125 326.0078125 468.633789062 325.65234375 c 4
 468.278320312 325.297851562 474.198242188 320.188476562 481.790039062 314.298828125 c 4
 500.3046875 299.93359375 500.169921875 299.237304688 480.706054688 308.7109375 c 4
262.36328125 349.493164062 m 4
 316.016601562 355.475585938 363.94921875 390.012695312 396.129882812 445.875976562 c 4
 415.481445312 479.469726562 426.244140625 511.994140625 429.657226562 547.196289062 c 4
 433.420898438 586.009765625 421.912109375 627.424804688 396.98046875 664.788085938 c 4
 385.587890625 681.861328125 375.345703125 693.888671875 357.671875 710.9453125 c 4
 339.9140625 728.084960938 319.578125 743.9296875 312.408203125 746.21484375 c 4
 309.756835938 747.059570312 303.868164062 749.783203125 299.323242188 752.266601562 c 4
 289.1015625 757.8515625 268.154296875 764.622070312 252.162109375 767.510742188 c 4
 232.916992188 770.986328125 204.65625 770.403320312 188.140625 766.189453125 c 4
 152.510742188 757.098632812 127.602539062 734.58203125 106.458984375 692.3515625 c 4
 93.935546875 667.337890625 88.27734375 644.505859375 89.578125 624.23828125 c 6
 90.22265625 614.188476562 l 5
 82.708984375 617.51171875 l 6
 78.576171875 619.338867188 72.83203125 622.040039062 69.9453125 623.512695312 c 6
 64.6943359375 626.19140625 l 5
 62.5791015625 619.672851562 l 6
 50.19921875 581.541015625 43.0576171875 525.126953125 46.28125 490.94140625 c 4
 48.482421875 467.598632812 53.341796875 449.569335938 62.34375 431.348632812 c 4
 68.4794921875 418.930664062 72.142578125 413.651367188 82.654296875 402.079101562 c 4
 94.5234375 389.013671875 109.887695312 375.56640625 112.94921875 375.56640625 c 4
 113.663085938 375.56640625 120.87109375 372.737304688 128.966796875 369.278320312 c 4
 149.922851562 360.32421875 181.48046875 352.513671875 211.174804688 348.931640625 c 4
 220.578125 347.796875 250.056640625 348.120117188 262.36328125 349.493164062 c 4
EndSplineSet
EndChar

StartChar: X
Encoding: 88 88 24
Width: 1000
Flags: HW
LayerCount: 2
Fore
SplineSet
480.706054688 308.7109375 m 4
 463.87890625 316.900390625 449.748046875 326.63671875 440.379882812 336.493164062 c 4
 430.174804688 347.231445312 426.575195312 357.62890625 425.458984375 379.594726562 c 6
 424.66015625 395.329101562 l 1
 418.646484375 387.524414062 l 6
 403.748046875 368.186523438 377.176757812 346.608398438 354.018554688 335.041015625 c 0
 312.806640625 314.456054688 261.592773438 312.596679688 196.35546875 329.31640625 c 0
 171.200195312 335.763671875 156.028320312 341.83203125 129.912109375 355.891601562 c 4
 72.5791015625 386.756835938 54.3935546875 400.333984375 30.681640625 429.970703125 c 4
 8.8720703125 457.231445312 -1.9521484375 497.48046875 0.2900390625 542.98828125 c 4
 4.498046875 628.413085938 36.25390625 713.317382812 80.904296875 758.522460938 c 4
 90.7177734375 768.458007812 96.3974609375 773.001953125 103.0546875 776.244140625 c 4
 107.978515625 778.641601562 115.725585938 782.75390625 120.271484375 785.381835938 c 4
 144.802734375 799.565429688 181.55078125 803.767578125 217.453125 796.4921875 c 4
 246.02734375 790.702148438 273.143554688 780.081054688 304.97265625 762.212890625 c 4
 322.848632812 752.176757812 365.265625 724.067382812 379.208007812 713.015625 c 4
 401.833984375 695.08203125 426.905273438 668.419921875 440.403320312 647.935546875 c 4
 443.759765625 642.841796875 446.73046875 638.8984375 447.00390625 639.172851562 c 4
 447.278320312 639.446289062 448.66015625 647.233398438 450.076171875 656.4765625 c 4
 451.491210938 665.719726562 452.900390625 673.533203125 453.206054688 673.83984375 c 4
 453.59375 674.2265625 491.819335938 654.833007812 499.259765625 650.474609375 c 4
 499.383789062 650.40234375 498.9453125 647.553710938 498.28515625 644.145507812 c 4
 495.9296875 631.978515625 488.727132942 581.065364266 486.009765625 557.374023438 c 0
 477.78125 485.633789062 473.962890625 436.178710938 472.6640625 384.51953125 c 4
 471.73828125 347.755859375 472.608398438 339.639648438 478.826171875 327.016601562 c 4
 480.970703125 322.66015625 482.600585938 319.096679688 482.446289062 319.096679688 c 4
 482.291992188 319.096679688 479.266601562 320.716796875 475.72265625 322.697265625 c 4
 472.178710938 324.678710938 468.98828125 326.0078125 468.633789062 325.65234375 c 4
 468.278320312 325.297851562 474.198242188 320.188476562 481.790039062 314.298828125 c 4
 500.3046875 299.93359375 500.169921875 299.237304688 480.706054688 308.7109375 c 4
262.36328125 349.493164062 m 4
 316.016601562 355.475585938 363.94921875 390.012695312 396.129882812 445.875976562 c 4
 415.481445312 479.469726562 426.244140625 511.994140625 429.657226562 547.196289062 c 4
 433.420898438 586.009765625 421.912109375 627.424804688 396.98046875 664.788085938 c 4
 385.587890625 681.861328125 375.345703125 693.888671875 357.671875 710.9453125 c 4
 339.9140625 728.084960938 319.578125 743.9296875 312.408203125 746.21484375 c 4
 309.756835938 747.059570312 303.868164062 749.783203125 299.323242188 752.266601562 c 4
 289.1015625 757.8515625 268.154296875 764.622070312 252.162109375 767.510742188 c 4
 232.916992188 770.986328125 204.65625 770.403320312 188.140625 766.189453125 c 4
 152.510742188 757.098632812 127.602539062 734.58203125 106.458984375 692.3515625 c 4
 93.935546875 667.337890625 88.27734375 644.505859375 89.578125 624.23828125 c 6
 90.22265625 614.188476562 l 5
 82.708984375 617.51171875 l 6
 78.576171875 619.338867188 72.83203125 622.040039062 69.9453125 623.512695312 c 6
 64.6943359375 626.19140625 l 5
 62.5791015625 619.672851562 l 6
 50.19921875 581.541015625 43.0576171875 525.126953125 46.28125 490.94140625 c 4
 48.482421875 467.598632812 53.341796875 449.569335938 62.34375 431.348632812 c 4
 68.4794921875 418.930664062 72.142578125 413.651367188 82.654296875 402.079101562 c 4
 94.5234375 389.013671875 109.887695312 375.56640625 112.94921875 375.56640625 c 4
 113.663085938 375.56640625 120.87109375 372.737304688 128.966796875 369.278320312 c 4
 149.922851562 360.32421875 181.48046875 352.513671875 211.174804688 348.931640625 c 4
 220.578125 347.796875 250.056640625 348.120117188 262.36328125 349.493164062 c 4
EndSplineSet
EndChar

StartChar: Y
Encoding: 89 89 25
Width: 1000
Flags: HW
LayerCount: 2
Fore
SplineSet
480.706054688 308.7109375 m 4
 463.87890625 316.900390625 449.748046875 326.63671875 440.379882812 336.493164062 c 4
 430.174804688 347.231445312 426.575195312 357.62890625 425.458984375 379.594726562 c 6
 424.66015625 395.329101562 l 1
 418.646484375 387.524414062 l 6
 403.748046875 368.186523438 377.176757812 346.608398438 354.018554688 335.041015625 c 0
 312.806640625 314.456054688 261.592773438 312.596679688 196.35546875 329.31640625 c 0
 171.200195312 335.763671875 156.028320312 341.83203125 129.912109375 355.891601562 c 4
 72.5791015625 386.756835938 54.3935546875 400.333984375 30.681640625 429.970703125 c 4
 8.8720703125 457.231445312 -1.9521484375 497.48046875 0.2900390625 542.98828125 c 4
 4.498046875 628.413085938 36.25390625 713.317382812 80.904296875 758.522460938 c 4
 90.7177734375 768.458007812 96.3974609375 773.001953125 103.0546875 776.244140625 c 4
 107.978515625 778.641601562 115.725585938 782.75390625 120.271484375 785.381835938 c 4
 144.802734375 799.565429688 181.55078125 803.767578125 217.453125 796.4921875 c 4
 246.02734375 790.702148438 273.143554688 780.081054688 304.97265625 762.212890625 c 4
 322.848632812 752.176757812 365.265625 724.067382812 379.208007812 713.015625 c 4
 401.833984375 695.08203125 426.905273438 668.419921875 440.403320312 647.935546875 c 4
 443.759765625 642.841796875 446.73046875 638.8984375 447.00390625 639.172851562 c 4
 447.278320312 639.446289062 448.66015625 647.233398438 450.076171875 656.4765625 c 4
 451.491210938 665.719726562 452.900390625 673.533203125 453.206054688 673.83984375 c 4
 453.59375 674.2265625 491.819335938 654.833007812 499.259765625 650.474609375 c 4
 499.383789062 650.40234375 498.9453125 647.553710938 498.28515625 644.145507812 c 4
 495.9296875 631.978515625 488.727132942 581.065364266 486.009765625 557.374023438 c 0
 477.78125 485.633789062 473.962890625 436.178710938 472.6640625 384.51953125 c 4
 471.73828125 347.755859375 472.608398438 339.639648438 478.826171875 327.016601562 c 4
 480.970703125 322.66015625 482.600585938 319.096679688 482.446289062 319.096679688 c 4
 482.291992188 319.096679688 479.266601562 320.716796875 475.72265625 322.697265625 c 4
 472.178710938 324.678710938 468.98828125 326.0078125 468.633789062 325.65234375 c 4
 468.278320312 325.297851562 474.198242188 320.188476562 481.790039062 314.298828125 c 4
 500.3046875 299.93359375 500.169921875 299.237304688 480.706054688 308.7109375 c 4
262.36328125 349.493164062 m 4
 316.016601562 355.475585938 363.94921875 390.012695312 396.129882812 445.875976562 c 4
 415.481445312 479.469726562 426.244140625 511.994140625 429.657226562 547.196289062 c 4
 433.420898438 586.009765625 421.912109375 627.424804688 396.98046875 664.788085938 c 4
 385.587890625 681.861328125 375.345703125 693.888671875 357.671875 710.9453125 c 4
 339.9140625 728.084960938 319.578125 743.9296875 312.408203125 746.21484375 c 4
 309.756835938 747.059570312 303.868164062 749.783203125 299.323242188 752.266601562 c 4
 289.1015625 757.8515625 268.154296875 764.622070312 252.162109375 767.510742188 c 4
 232.916992188 770.986328125 204.65625 770.403320312 188.140625 766.189453125 c 4
 152.510742188 757.098632812 127.602539062 734.58203125 106.458984375 692.3515625 c 4
 93.935546875 667.337890625 88.27734375 644.505859375 89.578125 624.23828125 c 6
 90.22265625 614.188476562 l 5
 82.708984375 617.51171875 l 6
 78.576171875 619.338867188 72.83203125 622.040039062 69.9453125 623.512695312 c 6
 64.6943359375 626.19140625 l 5
 62.5791015625 619.672851562 l 6
 50.19921875 581.541015625 43.0576171875 525.126953125 46.28125 490.94140625 c 4
 48.482421875 467.598632812 53.341796875 449.569335938 62.34375 431.348632812 c 4
 68.4794921875 418.930664062 72.142578125 413.651367188 82.654296875 402.079101562 c 4
 94.5234375 389.013671875 109.887695312 375.56640625 112.94921875 375.56640625 c 4
 113.663085938 375.56640625 120.87109375 372.737304688 128.966796875 369.278320312 c 4
 149.922851562 360.32421875 181.48046875 352.513671875 211.174804688 348.931640625 c 4
 220.578125 347.796875 250.056640625 348.120117188 262.36328125 349.493164062 c 4
EndSplineSet
EndChar

StartChar: Z
Encoding: 90 90 26
Width: 1000
Flags: HW
LayerCount: 2
Fore
SplineSet
480.706054688 308.7109375 m 4
 463.87890625 316.900390625 449.748046875 326.63671875 440.379882812 336.493164062 c 4
 430.174804688 347.231445312 426.575195312 357.62890625 425.458984375 379.594726562 c 6
 424.66015625 395.329101562 l 1
 418.646484375 387.524414062 l 6
 403.748046875 368.186523438 377.176757812 346.608398438 354.018554688 335.041015625 c 0
 312.806640625 314.456054688 261.592773438 312.596679688 196.35546875 329.31640625 c 0
 171.200195312 335.763671875 156.028320312 341.83203125 129.912109375 355.891601562 c 4
 72.5791015625 386.756835938 54.3935546875 400.333984375 30.681640625 429.970703125 c 4
 8.8720703125 457.231445312 -1.9521484375 497.48046875 0.2900390625 542.98828125 c 4
 4.498046875 628.413085938 36.25390625 713.317382812 80.904296875 758.522460938 c 4
 90.7177734375 768.458007812 96.3974609375 773.001953125 103.0546875 776.244140625 c 4
 107.978515625 778.641601562 115.725585938 782.75390625 120.271484375 785.381835938 c 4
 144.802734375 799.565429688 181.55078125 803.767578125 217.453125 796.4921875 c 4
 246.02734375 790.702148438 273.143554688 780.081054688 304.97265625 762.212890625 c 4
 322.848632812 752.176757812 365.265625 724.067382812 379.208007812 713.015625 c 4
 401.833984375 695.08203125 426.905273438 668.419921875 440.403320312 647.935546875 c 4
 443.759765625 642.841796875 446.73046875 638.8984375 447.00390625 639.172851562 c 4
 447.278320312 639.446289062 448.66015625 647.233398438 450.076171875 656.4765625 c 4
 451.491210938 665.719726562 452.900390625 673.533203125 453.206054688 673.83984375 c 4
 453.59375 674.2265625 491.819335938 654.833007812 499.259765625 650.474609375 c 4
 499.383789062 650.40234375 498.9453125 647.553710938 498.28515625 644.145507812 c 4
 495.9296875 631.978515625 488.727132942 581.065364266 486.009765625 557.374023438 c 0
 477.78125 485.633789062 473.962890625 436.178710938 472.6640625 384.51953125 c 4
 471.73828125 347.755859375 472.608398438 339.639648438 478.826171875 327.016601562 c 4
 480.970703125 322.66015625 482.600585938 319.096679688 482.446289062 319.096679688 c 4
 482.291992188 319.096679688 479.266601562 320.716796875 475.72265625 322.697265625 c 4
 472.178710938 324.678710938 468.98828125 326.0078125 468.633789062 325.65234375 c 4
 468.278320312 325.297851562 474.198242188 320.188476562 481.790039062 314.298828125 c 4
 500.3046875 299.93359375 500.169921875 299.237304688 480.706054688 308.7109375 c 4
262.36328125 349.493164062 m 4
 316.016601562 355.475585938 363.94921875 390.012695312 396.129882812 445.875976562 c 4
 415.481445312 479.469726562 426.244140625 511.994140625 429.657226562 547.196289062 c 4
 433.420898438 586.009765625 421.912109375 627.424804688 396.98046875 664.788085938 c 4
 385.587890625 681.861328125 375.345703125 693.888671875 357.671875 710.9453125 c 4
 339.9140625 728.084960938 319.578125 743.9296875 312.408203125 746.21484375 c 4
 309.756835938 747.059570312 303.868164062 749.783203125 299.323242188 752.266601562 c 4
 289.1015625 757.8515625 268.154296875 764.622070312 252.162109375 767.510742188 c 4
 232.916992188 770.986328125 204.65625 770.403320312 188.140625 766.189453125 c 4
 152.510742188 757.098632812 127.602539062 734.58203125 106.458984375 692.3515625 c 4
 93.935546875 667.337890625 88.27734375 644.505859375 89.578125 624.23828125 c 6
 90.22265625 614.188476562 l 5
 82.708984375 617.51171875 l 6
 78.576171875 619.338867188 72.83203125 622.040039062 69.9453125 623.512695312 c 6
 64.6943359375 626.19140625 l 5
 62.5791015625 619.672851562 l 6
 50.19921875 581.541015625 43.0576171875 525.126953125 46.28125 490.94140625 c 4
 48.482421875 467.598632812 53.341796875 449.569335938 62.34375 431.348632812 c 4
 68.4794921875 418.930664062 72.142578125 413.651367188 82.654296875 402.079101562 c 4
 94.5234375 389.013671875 109.887695312 375.56640625 112.94921875 375.56640625 c 4
 113.663085938 375.56640625 120.87109375 372.737304688 128.966796875 369.278320312 c 4
 149.922851562 360.32421875 181.48046875 352.513671875 211.174804688 348.931640625 c 4
 220.578125 347.796875 250.056640625 348.120117188 262.36328125 349.493164062 c 4
EndSplineSet
EndChar

StartChar: b
Encoding: 98 98 27
Width: 1000
Flags: HW
LayerCount: 2
Fore
SplineSet
480.706054688 308.7109375 m 4
 463.87890625 316.900390625 449.748046875 326.63671875 440.379882812 336.493164062 c 4
 430.174804688 347.231445312 426.575195312 357.62890625 425.458984375 379.594726562 c 6
 424.66015625 395.329101562 l 1
 418.646484375 387.524414062 l 6
 403.748046875 368.186523438 377.176757812 346.608398438 354.018554688 335.041015625 c 0
 312.806640625 314.456054688 261.592773438 312.596679688 196.35546875 329.31640625 c 0
 171.200195312 335.763671875 156.028320312 341.83203125 129.912109375 355.891601562 c 4
 72.5791015625 386.756835938 54.3935546875 400.333984375 30.681640625 429.970703125 c 4
 8.8720703125 457.231445312 -1.9521484375 497.48046875 0.2900390625 542.98828125 c 4
 4.498046875 628.413085938 36.25390625 713.317382812 80.904296875 758.522460938 c 4
 90.7177734375 768.458007812 96.3974609375 773.001953125 103.0546875 776.244140625 c 4
 107.978515625 778.641601562 115.725585938 782.75390625 120.271484375 785.381835938 c 4
 144.802734375 799.565429688 181.55078125 803.767578125 217.453125 796.4921875 c 4
 246.02734375 790.702148438 273.143554688 780.081054688 304.97265625 762.212890625 c 4
 322.848632812 752.176757812 365.265625 724.067382812 379.208007812 713.015625 c 4
 401.833984375 695.08203125 426.905273438 668.419921875 440.403320312 647.935546875 c 4
 443.759765625 642.841796875 446.73046875 638.8984375 447.00390625 639.172851562 c 4
 447.278320312 639.446289062 448.66015625 647.233398438 450.076171875 656.4765625 c 4
 451.491210938 665.719726562 452.900390625 673.533203125 453.206054688 673.83984375 c 4
 453.59375 674.2265625 491.819335938 654.833007812 499.259765625 650.474609375 c 4
 499.383789062 650.40234375 498.9453125 647.553710938 498.28515625 644.145507812 c 4
 495.9296875 631.978515625 488.727132942 581.065364266 486.009765625 557.374023438 c 0
 477.78125 485.633789062 473.962890625 436.178710938 472.6640625 384.51953125 c 4
 471.73828125 347.755859375 472.608398438 339.639648438 478.826171875 327.016601562 c 4
 480.970703125 322.66015625 482.600585938 319.096679688 482.446289062 319.096679688 c 4
 482.291992188 319.096679688 479.266601562 320.716796875 475.72265625 322.697265625 c 4
 472.178710938 324.678710938 468.98828125 326.0078125 468.633789062 325.65234375 c 4
 468.278320312 325.297851562 474.198242188 320.188476562 481.790039062 314.298828125 c 4
 500.3046875 299.93359375 500.169921875 299.237304688 480.706054688 308.7109375 c 4
262.36328125 349.493164062 m 4
 316.016601562 355.475585938 363.94921875 390.012695312 396.129882812 445.875976562 c 4
 415.481445312 479.469726562 426.244140625 511.994140625 429.657226562 547.196289062 c 4
 433.420898438 586.009765625 421.912109375 627.424804688 396.98046875 664.788085938 c 4
 385.587890625 681.861328125 375.345703125 693.888671875 357.671875 710.9453125 c 4
 339.9140625 728.084960938 319.578125 743.9296875 312.408203125 746.21484375 c 4
 309.756835938 747.059570312 303.868164062 749.783203125 299.323242188 752.266601562 c 4
 289.1015625 757.8515625 268.154296875 764.622070312 252.162109375 767.510742188 c 4
 232.916992188 770.986328125 204.65625 770.403320312 188.140625 766.189453125 c 4
 152.510742188 757.098632812 127.602539062 734.58203125 106.458984375 692.3515625 c 4
 93.935546875 667.337890625 88.27734375 644.505859375 89.578125 624.23828125 c 6
 90.22265625 614.188476562 l 5
 82.708984375 617.51171875 l 6
 78.576171875 619.338867188 72.83203125 622.040039062 69.9453125 623.512695312 c 6
 64.6943359375 626.19140625 l 5
 62.5791015625 619.672851562 l 6
 50.19921875 581.541015625 43.0576171875 525.126953125 46.28125 490.94140625 c 4
 48.482421875 467.598632812 53.341796875 449.569335938 62.34375 431.348632812 c 4
 68.4794921875 418.930664062 72.142578125 413.651367188 82.654296875 402.079101562 c 4
 94.5234375 389.013671875 109.887695312 375.56640625 112.94921875 375.56640625 c 4
 113.663085938 375.56640625 120.87109375 372.737304688 128.966796875 369.278320312 c 4
 149.922851562 360.32421875 181.48046875 352.513671875 211.174804688 348.931640625 c 4
 220.578125 347.796875 250.056640625 348.120117188 262.36328125 349.493164062 c 4
EndSplineSet
EndChar

StartChar: c
Encoding: 99 99 28
Width: 1000
Flags: HW
LayerCount: 2
Fore
SplineSet
480.706054688 308.7109375 m 4
 463.87890625 316.900390625 449.748046875 326.63671875 440.379882812 336.493164062 c 4
 430.174804688 347.231445312 426.575195312 357.62890625 425.458984375 379.594726562 c 6
 424.66015625 395.329101562 l 1
 418.646484375 387.524414062 l 6
 403.748046875 368.186523438 377.176757812 346.608398438 354.018554688 335.041015625 c 0
 312.806640625 314.456054688 261.592773438 312.596679688 196.35546875 329.31640625 c 0
 171.200195312 335.763671875 156.028320312 341.83203125 129.912109375 355.891601562 c 4
 72.5791015625 386.756835938 54.3935546875 400.333984375 30.681640625 429.970703125 c 4
 8.8720703125 457.231445312 -1.9521484375 497.48046875 0.2900390625 542.98828125 c 4
 4.498046875 628.413085938 36.25390625 713.317382812 80.904296875 758.522460938 c 4
 90.7177734375 768.458007812 96.3974609375 773.001953125 103.0546875 776.244140625 c 4
 107.978515625 778.641601562 115.725585938 782.75390625 120.271484375 785.381835938 c 4
 144.802734375 799.565429688 181.55078125 803.767578125 217.453125 796.4921875 c 4
 246.02734375 790.702148438 273.143554688 780.081054688 304.97265625 762.212890625 c 4
 322.848632812 752.176757812 365.265625 724.067382812 379.208007812 713.015625 c 4
 401.833984375 695.08203125 426.905273438 668.419921875 440.403320312 647.935546875 c 4
 443.759765625 642.841796875 446.73046875 638.8984375 447.00390625 639.172851562 c 4
 447.278320312 639.446289062 448.66015625 647.233398438 450.076171875 656.4765625 c 4
 451.491210938 665.719726562 452.900390625 673.533203125 453.206054688 673.83984375 c 4
 453.59375 674.2265625 491.819335938 654.833007812 499.259765625 650.474609375 c 4
 499.383789062 650.40234375 498.9453125 647.553710938 498.28515625 644.145507812 c 4
 495.9296875 631.978515625 488.727132942 581.065364266 486.009765625 557.374023438 c 0
 477.78125 485.633789062 473.962890625 436.178710938 472.6640625 384.51953125 c 4
 471.73828125 347.755859375 472.608398438 339.639648438 478.826171875 327.016601562 c 4
 480.970703125 322.66015625 482.600585938 319.096679688 482.446289062 319.096679688 c 4
 482.291992188 319.096679688 479.266601562 320.716796875 475.72265625 322.697265625 c 4
 472.178710938 324.678710938 468.98828125 326.0078125 468.633789062 325.65234375 c 4
 468.278320312 325.297851562 474.198242188 320.188476562 481.790039062 314.298828125 c 4
 500.3046875 299.93359375 500.169921875 299.237304688 480.706054688 308.7109375 c 4
262.36328125 349.493164062 m 4
 316.016601562 355.475585938 363.94921875 390.012695312 396.129882812 445.875976562 c 4
 415.481445312 479.469726562 426.244140625 511.994140625 429.657226562 547.196289062 c 4
 433.420898438 586.009765625 421.912109375 627.424804688 396.98046875 664.788085938 c 4
 385.587890625 681.861328125 375.345703125 693.888671875 357.671875 710.9453125 c 4
 339.9140625 728.084960938 319.578125 743.9296875 312.408203125 746.21484375 c 4
 309.756835938 747.059570312 303.868164062 749.783203125 299.323242188 752.266601562 c 4
 289.1015625 757.8515625 268.154296875 764.622070312 252.162109375 767.510742188 c 4
 232.916992188 770.986328125 204.65625 770.403320312 188.140625 766.189453125 c 4
 152.510742188 757.098632812 127.602539062 734.58203125 106.458984375 692.3515625 c 4
 93.935546875 667.337890625 88.27734375 644.505859375 89.578125 624.23828125 c 6
 90.22265625 614.188476562 l 5
 82.708984375 617.51171875 l 6
 78.576171875 619.338867188 72.83203125 622.040039062 69.9453125 623.512695312 c 6
 64.6943359375 626.19140625 l 5
 62.5791015625 619.672851562 l 6
 50.19921875 581.541015625 43.0576171875 525.126953125 46.28125 490.94140625 c 4
 48.482421875 467.598632812 53.341796875 449.569335938 62.34375 431.348632812 c 4
 68.4794921875 418.930664062 72.142578125 413.651367188 82.654296875 402.079101562 c 4
 94.5234375 389.013671875 109.887695312 375.56640625 112.94921875 375.56640625 c 4
 113.663085938 375.56640625 120.87109375 372.737304688 128.966796875 369.278320312 c 4
 149.922851562 360.32421875 181.48046875 352.513671875 211.174804688 348.931640625 c 4
 220.578125 347.796875 250.056640625 348.120117188 262.36328125 349.493164062 c 4
EndSplineSet
EndChar

StartChar: d
Encoding: 100 100 29
Width: 1000
Flags: HW
LayerCount: 2
Fore
SplineSet
480.706054688 308.7109375 m 4
 463.87890625 316.900390625 449.748046875 326.63671875 440.379882812 336.493164062 c 4
 430.174804688 347.231445312 426.575195312 357.62890625 425.458984375 379.594726562 c 6
 424.66015625 395.329101562 l 1
 418.646484375 387.524414062 l 6
 403.748046875 368.186523438 377.176757812 346.608398438 354.018554688 335.041015625 c 0
 312.806640625 314.456054688 261.592773438 312.596679688 196.35546875 329.31640625 c 0
 171.200195312 335.763671875 156.028320312 341.83203125 129.912109375 355.891601562 c 4
 72.5791015625 386.756835938 54.3935546875 400.333984375 30.681640625 429.970703125 c 4
 8.8720703125 457.231445312 -1.9521484375 497.48046875 0.2900390625 542.98828125 c 4
 4.498046875 628.413085938 36.25390625 713.317382812 80.904296875 758.522460938 c 4
 90.7177734375 768.458007812 96.3974609375 773.001953125 103.0546875 776.244140625 c 4
 107.978515625 778.641601562 115.725585938 782.75390625 120.271484375 785.381835938 c 4
 144.802734375 799.565429688 181.55078125 803.767578125 217.453125 796.4921875 c 4
 246.02734375 790.702148438 273.143554688 780.081054688 304.97265625 762.212890625 c 4
 322.848632812 752.176757812 365.265625 724.067382812 379.208007812 713.015625 c 4
 401.833984375 695.08203125 426.905273438 668.419921875 440.403320312 647.935546875 c 4
 443.759765625 642.841796875 446.73046875 638.8984375 447.00390625 639.172851562 c 4
 447.278320312 639.446289062 448.66015625 647.233398438 450.076171875 656.4765625 c 4
 451.491210938 665.719726562 452.900390625 673.533203125 453.206054688 673.83984375 c 4
 453.59375 674.2265625 491.819335938 654.833007812 499.259765625 650.474609375 c 4
 499.383789062 650.40234375 498.9453125 647.553710938 498.28515625 644.145507812 c 4
 495.9296875 631.978515625 488.727132942 581.065364266 486.009765625 557.374023438 c 0
 477.78125 485.633789062 473.962890625 436.178710938 472.6640625 384.51953125 c 4
 471.73828125 347.755859375 472.608398438 339.639648438 478.826171875 327.016601562 c 4
 480.970703125 322.66015625 482.600585938 319.096679688 482.446289062 319.096679688 c 4
 482.291992188 319.096679688 479.266601562 320.716796875 475.72265625 322.697265625 c 4
 472.178710938 324.678710938 468.98828125 326.0078125 468.633789062 325.65234375 c 4
 468.278320312 325.297851562 474.198242188 320.188476562 481.790039062 314.298828125 c 4
 500.3046875 299.93359375 500.169921875 299.237304688 480.706054688 308.7109375 c 4
262.36328125 349.493164062 m 4
 316.016601562 355.475585938 363.94921875 390.012695312 396.129882812 445.875976562 c 4
 415.481445312 479.469726562 426.244140625 511.994140625 429.657226562 547.196289062 c 4
 433.420898438 586.009765625 421.912109375 627.424804688 396.98046875 664.788085938 c 4
 385.587890625 681.861328125 375.345703125 693.888671875 357.671875 710.9453125 c 4
 339.9140625 728.084960938 319.578125 743.9296875 312.408203125 746.21484375 c 4
 309.756835938 747.059570312 303.868164062 749.783203125 299.323242188 752.266601562 c 4
 289.1015625 757.8515625 268.154296875 764.622070312 252.162109375 767.510742188 c 4
 232.916992188 770.986328125 204.65625 770.403320312 188.140625 766.189453125 c 4
 152.510742188 757.098632812 127.602539062 734.58203125 106.458984375 692.3515625 c 4
 93.935546875 667.337890625 88.27734375 644.505859375 89.578125 624.23828125 c 6
 90.22265625 614.188476562 l 5
 82.708984375 617.51171875 l 6
 78.576171875 619.338867188 72.83203125 622.040039062 69.9453125 623.512695312 c 6
 64.6943359375 626.19140625 l 5
 62.5791015625 619.672851562 l 6
 50.19921875 581.541015625 43.0576171875 525.126953125 46.28125 490.94140625 c 4
 48.482421875 467.598632812 53.341796875 449.569335938 62.34375 431.348632812 c 4
 68.4794921875 418.930664062 72.142578125 413.651367188 82.654296875 402.079101562 c 4
 94.5234375 389.013671875 109.887695312 375.56640625 112.94921875 375.56640625 c 4
 113.663085938 375.56640625 120.87109375 372.737304688 128.966796875 369.278320312 c 4
 149.922851562 360.32421875 181.48046875 352.513671875 211.174804688 348.931640625 c 4
 220.578125 347.796875 250.056640625 348.120117188 262.36328125 349.493164062 c 4
EndSplineSet
EndChar

StartChar: e
Encoding: 101 101 30
Width: 1000
Flags: HW
LayerCount: 2
Fore
SplineSet
480.706054688 308.7109375 m 4
 463.87890625 316.900390625 449.748046875 326.63671875 440.379882812 336.493164062 c 4
 430.174804688 347.231445312 426.575195312 357.62890625 425.458984375 379.594726562 c 6
 424.66015625 395.329101562 l 1
 418.646484375 387.524414062 l 6
 403.748046875 368.186523438 377.176757812 346.608398438 354.018554688 335.041015625 c 0
 312.806640625 314.456054688 261.592773438 312.596679688 196.35546875 329.31640625 c 0
 171.200195312 335.763671875 156.028320312 341.83203125 129.912109375 355.891601562 c 4
 72.5791015625 386.756835938 54.3935546875 400.333984375 30.681640625 429.970703125 c 4
 8.8720703125 457.231445312 -1.9521484375 497.48046875 0.2900390625 542.98828125 c 4
 4.498046875 628.413085938 36.25390625 713.317382812 80.904296875 758.522460938 c 4
 90.7177734375 768.458007812 96.3974609375 773.001953125 103.0546875 776.244140625 c 4
 107.978515625 778.641601562 115.725585938 782.75390625 120.271484375 785.381835938 c 4
 144.802734375 799.565429688 181.55078125 803.767578125 217.453125 796.4921875 c 4
 246.02734375 790.702148438 273.143554688 780.081054688 304.97265625 762.212890625 c 4
 322.848632812 752.176757812 365.265625 724.067382812 379.208007812 713.015625 c 4
 401.833984375 695.08203125 426.905273438 668.419921875 440.403320312 647.935546875 c 4
 443.759765625 642.841796875 446.73046875 638.8984375 447.00390625 639.172851562 c 4
 447.278320312 639.446289062 448.66015625 647.233398438 450.076171875 656.4765625 c 4
 451.491210938 665.719726562 452.900390625 673.533203125 453.206054688 673.83984375 c 4
 453.59375 674.2265625 491.819335938 654.833007812 499.259765625 650.474609375 c 4
 499.383789062 650.40234375 498.9453125 647.553710938 498.28515625 644.145507812 c 4
 495.9296875 631.978515625 488.727132942 581.065364266 486.009765625 557.374023438 c 0
 477.78125 485.633789062 473.962890625 436.178710938 472.6640625 384.51953125 c 4
 471.73828125 347.755859375 472.608398438 339.639648438 478.826171875 327.016601562 c 4
 480.970703125 322.66015625 482.600585938 319.096679688 482.446289062 319.096679688 c 4
 482.291992188 319.096679688 479.266601562 320.716796875 475.72265625 322.697265625 c 4
 472.178710938 324.678710938 468.98828125 326.0078125 468.633789062 325.65234375 c 4
 468.278320312 325.297851562 474.198242188 320.188476562 481.790039062 314.298828125 c 4
 500.3046875 299.93359375 500.169921875 299.237304688 480.706054688 308.7109375 c 4
262.36328125 349.493164062 m 4
 316.016601562 355.475585938 363.94921875 390.012695312 396.129882812 445.875976562 c 4
 415.481445312 479.469726562 426.244140625 511.994140625 429.657226562 547.196289062 c 4
 433.420898438 586.009765625 421.912109375 627.424804688 396.98046875 664.788085938 c 4
 385.587890625 681.861328125 375.345703125 693.888671875 357.671875 710.9453125 c 4
 339.9140625 728.084960938 319.578125 743.9296875 312.408203125 746.21484375 c 4
 309.756835938 747.059570312 303.868164062 749.783203125 299.323242188 752.266601562 c 4
 289.1015625 757.8515625 268.154296875 764.622070312 252.162109375 767.510742188 c 4
 232.916992188 770.986328125 204.65625 770.403320312 188.140625 766.189453125 c 4
 152.510742188 757.098632812 127.602539062 734.58203125 106.458984375 692.3515625 c 4
 93.935546875 667.337890625 88.27734375 644.505859375 89.578125 624.23828125 c 6
 90.22265625 614.188476562 l 5
 82.708984375 617.51171875 l 6
 78.576171875 619.338867188 72.83203125 622.040039062 69.9453125 623.512695312 c 6
 64.6943359375 626.19140625 l 5
 62.5791015625 619.672851562 l 6
 50.19921875 581.541015625 43.0576171875 525.126953125 46.28125 490.94140625 c 4
 48.482421875 467.598632812 53.341796875 449.569335938 62.34375 431.348632812 c 4
 68.4794921875 418.930664062 72.142578125 413.651367188 82.654296875 402.079101562 c 4
 94.5234375 389.013671875 109.887695312 375.56640625 112.94921875 375.56640625 c 4
 113.663085938 375.56640625 120.87109375 372.737304688 128.966796875 369.278320312 c 4
 149.922851562 360.32421875 181.48046875 352.513671875 211.174804688 348.931640625 c 4
 220.578125 347.796875 250.056640625 348.120117188 262.36328125 349.493164062 c 4
EndSplineSet
EndChar

StartChar: f
Encoding: 102 102 31
Width: 1000
Flags: HW
LayerCount: 2
Fore
SplineSet
480.706054688 308.7109375 m 4
 463.87890625 316.900390625 449.748046875 326.63671875 440.379882812 336.493164062 c 4
 430.174804688 347.231445312 426.575195312 357.62890625 425.458984375 379.594726562 c 6
 424.66015625 395.329101562 l 1
 418.646484375 387.524414062 l 6
 403.748046875 368.186523438 377.176757812 346.608398438 354.018554688 335.041015625 c 0
 312.806640625 314.456054688 261.592773438 312.596679688 196.35546875 329.31640625 c 0
 171.200195312 335.763671875 156.028320312 341.83203125 129.912109375 355.891601562 c 4
 72.5791015625 386.756835938 54.3935546875 400.333984375 30.681640625 429.970703125 c 4
 8.8720703125 457.231445312 -1.9521484375 497.48046875 0.2900390625 542.98828125 c 4
 4.498046875 628.413085938 36.25390625 713.317382812 80.904296875 758.522460938 c 4
 90.7177734375 768.458007812 96.3974609375 773.001953125 103.0546875 776.244140625 c 4
 107.978515625 778.641601562 115.725585938 782.75390625 120.271484375 785.381835938 c 4
 144.802734375 799.565429688 181.55078125 803.767578125 217.453125 796.4921875 c 4
 246.02734375 790.702148438 273.143554688 780.081054688 304.97265625 762.212890625 c 4
 322.848632812 752.176757812 365.265625 724.067382812 379.208007812 713.015625 c 4
 401.833984375 695.08203125 426.905273438 668.419921875 440.403320312 647.935546875 c 4
 443.759765625 642.841796875 446.73046875 638.8984375 447.00390625 639.172851562 c 4
 447.278320312 639.446289062 448.66015625 647.233398438 450.076171875 656.4765625 c 4
 451.491210938 665.719726562 452.900390625 673.533203125 453.206054688 673.83984375 c 4
 453.59375 674.2265625 491.819335938 654.833007812 499.259765625 650.474609375 c 4
 499.383789062 650.40234375 498.9453125 647.553710938 498.28515625 644.145507812 c 4
 495.9296875 631.978515625 488.727132942 581.065364266 486.009765625 557.374023438 c 0
 477.78125 485.633789062 473.962890625 436.178710938 472.6640625 384.51953125 c 4
 471.73828125 347.755859375 472.608398438 339.639648438 478.826171875 327.016601562 c 4
 480.970703125 322.66015625 482.600585938 319.096679688 482.446289062 319.096679688 c 4
 482.291992188 319.096679688 479.266601562 320.716796875 475.72265625 322.697265625 c 4
 472.178710938 324.678710938 468.98828125 326.0078125 468.633789062 325.65234375 c 4
 468.278320312 325.297851562 474.198242188 320.188476562 481.790039062 314.298828125 c 4
 500.3046875 299.93359375 500.169921875 299.237304688 480.706054688 308.7109375 c 4
262.36328125 349.493164062 m 4
 316.016601562 355.475585938 363.94921875 390.012695312 396.129882812 445.875976562 c 4
 415.481445312 479.469726562 426.244140625 511.994140625 429.657226562 547.196289062 c 4
 433.420898438 586.009765625 421.912109375 627.424804688 396.98046875 664.788085938 c 4
 385.587890625 681.861328125 375.345703125 693.888671875 357.671875 710.9453125 c 4
 339.9140625 728.084960938 319.578125 743.9296875 312.408203125 746.21484375 c 4
 309.756835938 747.059570312 303.868164062 749.783203125 299.323242188 752.266601562 c 4
 289.1015625 757.8515625 268.154296875 764.622070312 252.162109375 767.510742188 c 4
 232.916992188 770.986328125 204.65625 770.403320312 188.140625 766.189453125 c 4
 152.510742188 757.098632812 127.602539062 734.58203125 106.458984375 692.3515625 c 4
 93.935546875 667.337890625 88.27734375 644.505859375 89.578125 624.23828125 c 6
 90.22265625 614.188476562 l 5
 82.708984375 617.51171875 l 6
 78.576171875 619.338867188 72.83203125 622.040039062 69.9453125 623.512695312 c 6
 64.6943359375 626.19140625 l 5
 62.5791015625 619.672851562 l 6
 50.19921875 581.541015625 43.0576171875 525.126953125 46.28125 490.94140625 c 4
 48.482421875 467.598632812 53.341796875 449.569335938 62.34375 431.348632812 c 4
 68.4794921875 418.930664062 72.142578125 413.651367188 82.654296875 402.079101562 c 4
 94.5234375 389.013671875 109.887695312 375.56640625 112.94921875 375.56640625 c 4
 113.663085938 375.56640625 120.87109375 372.737304688 128.966796875 369.278320312 c 4
 149.922851562 360.32421875 181.48046875 352.513671875 211.174804688 348.931640625 c 4
 220.578125 347.796875 250.056640625 348.120117188 262.36328125 349.493164062 c 4
EndSplineSet
EndChar

StartChar: g
Encoding: 103 103 32
Width: 1000
Flags: HW
LayerCount: 2
Fore
SplineSet
480.706054688 308.7109375 m 4
 463.87890625 316.900390625 449.748046875 326.63671875 440.379882812 336.493164062 c 4
 430.174804688 347.231445312 426.575195312 357.62890625 425.458984375 379.594726562 c 6
 424.66015625 395.329101562 l 1
 418.646484375 387.524414062 l 6
 403.748046875 368.186523438 377.176757812 346.608398438 354.018554688 335.041015625 c 0
 312.806640625 314.456054688 261.592773438 312.596679688 196.35546875 329.31640625 c 0
 171.200195312 335.763671875 156.028320312 341.83203125 129.912109375 355.891601562 c 4
 72.5791015625 386.756835938 54.3935546875 400.333984375 30.681640625 429.970703125 c 4
 8.8720703125 457.231445312 -1.9521484375 497.48046875 0.2900390625 542.98828125 c 4
 4.498046875 628.413085938 36.25390625 713.317382812 80.904296875 758.522460938 c 4
 90.7177734375 768.458007812 96.3974609375 773.001953125 103.0546875 776.244140625 c 4
 107.978515625 778.641601562 115.725585938 782.75390625 120.271484375 785.381835938 c 4
 144.802734375 799.565429688 181.55078125 803.767578125 217.453125 796.4921875 c 4
 246.02734375 790.702148438 273.143554688 780.081054688 304.97265625 762.212890625 c 4
 322.848632812 752.176757812 365.265625 724.067382812 379.208007812 713.015625 c 4
 401.833984375 695.08203125 426.905273438 668.419921875 440.403320312 647.935546875 c 4
 443.759765625 642.841796875 446.73046875 638.8984375 447.00390625 639.172851562 c 4
 447.278320312 639.446289062 448.66015625 647.233398438 450.076171875 656.4765625 c 4
 451.491210938 665.719726562 452.900390625 673.533203125 453.206054688 673.83984375 c 4
 453.59375 674.2265625 491.819335938 654.833007812 499.259765625 650.474609375 c 4
 499.383789062 650.40234375 498.9453125 647.553710938 498.28515625 644.145507812 c 4
 495.9296875 631.978515625 488.727132942 581.065364266 486.009765625 557.374023438 c 0
 477.78125 485.633789062 473.962890625 436.178710938 472.6640625 384.51953125 c 4
 471.73828125 347.755859375 472.608398438 339.639648438 478.826171875 327.016601562 c 4
 480.970703125 322.66015625 482.600585938 319.096679688 482.446289062 319.096679688 c 4
 482.291992188 319.096679688 479.266601562 320.716796875 475.72265625 322.697265625 c 4
 472.178710938 324.678710938 468.98828125 326.0078125 468.633789062 325.65234375 c 4
 468.278320312 325.297851562 474.198242188 320.188476562 481.790039062 314.298828125 c 4
 500.3046875 299.93359375 500.169921875 299.237304688 480.706054688 308.7109375 c 4
262.36328125 349.493164062 m 4
 316.016601562 355.475585938 363.94921875 390.012695312 396.129882812 445.875976562 c 4
 415.481445312 479.469726562 426.244140625 511.994140625 429.657226562 547.196289062 c 4
 433.420898438 586.009765625 421.912109375 627.424804688 396.98046875 664.788085938 c 4
 385.587890625 681.861328125 375.345703125 693.888671875 357.671875 710.9453125 c 4
 339.9140625 728.084960938 319.578125 743.9296875 312.408203125 746.21484375 c 4
 309.756835938 747.059570312 303.868164062 749.783203125 299.323242188 752.266601562 c 4
 289.1015625 757.8515625 268.154296875 764.622070312 252.162109375 767.510742188 c 4
 232.916992188 770.986328125 204.65625 770.403320312 188.140625 766.189453125 c 4
 152.510742188 757.098632812 127.602539062 734.58203125 106.458984375 692.3515625 c 4
 93.935546875 667.337890625 88.27734375 644.505859375 89.578125 624.23828125 c 6
 90.22265625 614.188476562 l 5
 82.708984375 617.51171875 l 6
 78.576171875 619.338867188 72.83203125 622.040039062 69.9453125 623.512695312 c 6
 64.6943359375 626.19140625 l 5
 62.5791015625 619.672851562 l 6
 50.19921875 581.541015625 43.0576171875 525.126953125 46.28125 490.94140625 c 4
 48.482421875 467.598632812 53.341796875 449.569335938 62.34375 431.348632812 c 4
 68.4794921875 418.930664062 72.142578125 413.651367188 82.654296875 402.079101562 c 4
 94.5234375 389.013671875 109.887695312 375.56640625 112.94921875 375.56640625 c 4
 113.663085938 375.56640625 120.87109375 372.737304688 128.966796875 369.278320312 c 4
 149.922851562 360.32421875 181.48046875 352.513671875 211.174804688 348.931640625 c 4
 220.578125 347.796875 250.056640625 348.120117188 262.36328125 349.493164062 c 4
EndSplineSet
EndChar

StartChar: h
Encoding: 104 104 33
Width: 1000
Flags: HW
LayerCount: 2
Fore
SplineSet
480.706054688 308.7109375 m 4
 463.87890625 316.900390625 449.748046875 326.63671875 440.379882812 336.493164062 c 4
 430.174804688 347.231445312 426.575195312 357.62890625 425.458984375 379.594726562 c 6
 424.66015625 395.329101562 l 1
 418.646484375 387.524414062 l 6
 403.748046875 368.186523438 377.176757812 346.608398438 354.018554688 335.041015625 c 0
 312.806640625 314.456054688 261.592773438 312.596679688 196.35546875 329.31640625 c 0
 171.200195312 335.763671875 156.028320312 341.83203125 129.912109375 355.891601562 c 4
 72.5791015625 386.756835938 54.3935546875 400.333984375 30.681640625 429.970703125 c 4
 8.8720703125 457.231445312 -1.9521484375 497.48046875 0.2900390625 542.98828125 c 4
 4.498046875 628.413085938 36.25390625 713.317382812 80.904296875 758.522460938 c 4
 90.7177734375 768.458007812 96.3974609375 773.001953125 103.0546875 776.244140625 c 4
 107.978515625 778.641601562 115.725585938 782.75390625 120.271484375 785.381835938 c 4
 144.802734375 799.565429688 181.55078125 803.767578125 217.453125 796.4921875 c 4
 246.02734375 790.702148438 273.143554688 780.081054688 304.97265625 762.212890625 c 4
 322.848632812 752.176757812 365.265625 724.067382812 379.208007812 713.015625 c 4
 401.833984375 695.08203125 426.905273438 668.419921875 440.403320312 647.935546875 c 4
 443.759765625 642.841796875 446.73046875 638.8984375 447.00390625 639.172851562 c 4
 447.278320312 639.446289062 448.66015625 647.233398438 450.076171875 656.4765625 c 4
 451.491210938 665.719726562 452.900390625 673.533203125 453.206054688 673.83984375 c 4
 453.59375 674.2265625 491.819335938 654.833007812 499.259765625 650.474609375 c 4
 499.383789062 650.40234375 498.9453125 647.553710938 498.28515625 644.145507812 c 4
 495.9296875 631.978515625 488.727132942 581.065364266 486.009765625 557.374023438 c 0
 477.78125 485.633789062 473.962890625 436.178710938 472.6640625 384.51953125 c 4
 471.73828125 347.755859375 472.608398438 339.639648438 478.826171875 327.016601562 c 4
 480.970703125 322.66015625 482.600585938 319.096679688 482.446289062 319.096679688 c 4
 482.291992188 319.096679688 479.266601562 320.716796875 475.72265625 322.697265625 c 4
 472.178710938 324.678710938 468.98828125 326.0078125 468.633789062 325.65234375 c 4
 468.278320312 325.297851562 474.198242188 320.188476562 481.790039062 314.298828125 c 4
 500.3046875 299.93359375 500.169921875 299.237304688 480.706054688 308.7109375 c 4
262.36328125 349.493164062 m 4
 316.016601562 355.475585938 363.94921875 390.012695312 396.129882812 445.875976562 c 4
 415.481445312 479.469726562 426.244140625 511.994140625 429.657226562 547.196289062 c 4
 433.420898438 586.009765625 421.912109375 627.424804688 396.98046875 664.788085938 c 4
 385.587890625 681.861328125 375.345703125 693.888671875 357.671875 710.9453125 c 4
 339.9140625 728.084960938 319.578125 743.9296875 312.408203125 746.21484375 c 4
 309.756835938 747.059570312 303.868164062 749.783203125 299.323242188 752.266601562 c 4
 289.1015625 757.8515625 268.154296875 764.622070312 252.162109375 767.510742188 c 4
 232.916992188 770.986328125 204.65625 770.403320312 188.140625 766.189453125 c 4
 152.510742188 757.098632812 127.602539062 734.58203125 106.458984375 692.3515625 c 4
 93.935546875 667.337890625 88.27734375 644.505859375 89.578125 624.23828125 c 6
 90.22265625 614.188476562 l 5
 82.708984375 617.51171875 l 6
 78.576171875 619.338867188 72.83203125 622.040039062 69.9453125 623.512695312 c 6
 64.6943359375 626.19140625 l 5
 62.5791015625 619.672851562 l 6
 50.19921875 581.541015625 43.0576171875 525.126953125 46.28125 490.94140625 c 4
 48.482421875 467.598632812 53.341796875 449.569335938 62.34375 431.348632812 c 4
 68.4794921875 418.930664062 72.142578125 413.651367188 82.654296875 402.079101562 c 4
 94.5234375 389.013671875 109.887695312 375.56640625 112.94921875 375.56640625 c 4
 113.663085938 375.56640625 120.87109375 372.737304688 128.966796875 369.278320312 c 4
 149.922851562 360.32421875 181.48046875 352.513671875 211.174804688 348.931640625 c 4
 220.578125 347.796875 250.056640625 348.120117188 262.36328125 349.493164062 c 4
EndSplineSet
EndChar

StartChar: i
Encoding: 105 105 34
Width: 1000
Flags: HW
LayerCount: 2
Fore
SplineSet
480.706054688 308.7109375 m 4
 463.87890625 316.900390625 449.748046875 326.63671875 440.379882812 336.493164062 c 4
 430.174804688 347.231445312 426.575195312 357.62890625 425.458984375 379.594726562 c 6
 424.66015625 395.329101562 l 1
 418.646484375 387.524414062 l 6
 403.748046875 368.186523438 377.176757812 346.608398438 354.018554688 335.041015625 c 0
 312.806640625 314.456054688 261.592773438 312.596679688 196.35546875 329.31640625 c 0
 171.200195312 335.763671875 156.028320312 341.83203125 129.912109375 355.891601562 c 4
 72.5791015625 386.756835938 54.3935546875 400.333984375 30.681640625 429.970703125 c 4
 8.8720703125 457.231445312 -1.9521484375 497.48046875 0.2900390625 542.98828125 c 4
 4.498046875 628.413085938 36.25390625 713.317382812 80.904296875 758.522460938 c 4
 90.7177734375 768.458007812 96.3974609375 773.001953125 103.0546875 776.244140625 c 4
 107.978515625 778.641601562 115.725585938 782.75390625 120.271484375 785.381835938 c 4
 144.802734375 799.565429688 181.55078125 803.767578125 217.453125 796.4921875 c 4
 246.02734375 790.702148438 273.143554688 780.081054688 304.97265625 762.212890625 c 4
 322.848632812 752.176757812 365.265625 724.067382812 379.208007812 713.015625 c 4
 401.833984375 695.08203125 426.905273438 668.419921875 440.403320312 647.935546875 c 4
 443.759765625 642.841796875 446.73046875 638.8984375 447.00390625 639.172851562 c 4
 447.278320312 639.446289062 448.66015625 647.233398438 450.076171875 656.4765625 c 4
 451.491210938 665.719726562 452.900390625 673.533203125 453.206054688 673.83984375 c 4
 453.59375 674.2265625 491.819335938 654.833007812 499.259765625 650.474609375 c 4
 499.383789062 650.40234375 498.9453125 647.553710938 498.28515625 644.145507812 c 4
 495.9296875 631.978515625 488.727132942 581.065364266 486.009765625 557.374023438 c 0
 477.78125 485.633789062 473.962890625 436.178710938 472.6640625 384.51953125 c 4
 471.73828125 347.755859375 472.608398438 339.639648438 478.826171875 327.016601562 c 4
 480.970703125 322.66015625 482.600585938 319.096679688 482.446289062 319.096679688 c 4
 482.291992188 319.096679688 479.266601562 320.716796875 475.72265625 322.697265625 c 4
 472.178710938 324.678710938 468.98828125 326.0078125 468.633789062 325.65234375 c 4
 468.278320312 325.297851562 474.198242188 320.188476562 481.790039062 314.298828125 c 4
 500.3046875 299.93359375 500.169921875 299.237304688 480.706054688 308.7109375 c 4
262.36328125 349.493164062 m 4
 316.016601562 355.475585938 363.94921875 390.012695312 396.129882812 445.875976562 c 4
 415.481445312 479.469726562 426.244140625 511.994140625 429.657226562 547.196289062 c 4
 433.420898438 586.009765625 421.912109375 627.424804688 396.98046875 664.788085938 c 4
 385.587890625 681.861328125 375.345703125 693.888671875 357.671875 710.9453125 c 4
 339.9140625 728.084960938 319.578125 743.9296875 312.408203125 746.21484375 c 4
 309.756835938 747.059570312 303.868164062 749.783203125 299.323242188 752.266601562 c 4
 289.1015625 757.8515625 268.154296875 764.622070312 252.162109375 767.510742188 c 4
 232.916992188 770.986328125 204.65625 770.403320312 188.140625 766.189453125 c 4
 152.510742188 757.098632812 127.602539062 734.58203125 106.458984375 692.3515625 c 4
 93.935546875 667.337890625 88.27734375 644.505859375 89.578125 624.23828125 c 6
 90.22265625 614.188476562 l 5
 82.708984375 617.51171875 l 6
 78.576171875 619.338867188 72.83203125 622.040039062 69.9453125 623.512695312 c 6
 64.6943359375 626.19140625 l 5
 62.5791015625 619.672851562 l 6
 50.19921875 581.541015625 43.0576171875 525.126953125 46.28125 490.94140625 c 4
 48.482421875 467.598632812 53.341796875 449.569335938 62.34375 431.348632812 c 4
 68.4794921875 418.930664062 72.142578125 413.651367188 82.654296875 402.079101562 c 4
 94.5234375 389.013671875 109.887695312 375.56640625 112.94921875 375.56640625 c 4
 113.663085938 375.56640625 120.87109375 372.737304688 128.966796875 369.278320312 c 4
 149.922851562 360.32421875 181.48046875 352.513671875 211.174804688 348.931640625 c 4
 220.578125 347.796875 250.056640625 348.120117188 262.36328125 349.493164062 c 4
EndSplineSet
EndChar

StartChar: j
Encoding: 106 106 35
Width: 1000
Flags: HW
LayerCount: 2
Fore
SplineSet
480.706054688 308.7109375 m 4
 463.87890625 316.900390625 449.748046875 326.63671875 440.379882812 336.493164062 c 4
 430.174804688 347.231445312 426.575195312 357.62890625 425.458984375 379.594726562 c 6
 424.66015625 395.329101562 l 1
 418.646484375 387.524414062 l 6
 403.748046875 368.186523438 377.176757812 346.608398438 354.018554688 335.041015625 c 0
 312.806640625 314.456054688 261.592773438 312.596679688 196.35546875 329.31640625 c 0
 171.200195312 335.763671875 156.028320312 341.83203125 129.912109375 355.891601562 c 4
 72.5791015625 386.756835938 54.3935546875 400.333984375 30.681640625 429.970703125 c 4
 8.8720703125 457.231445312 -1.9521484375 497.48046875 0.2900390625 542.98828125 c 4
 4.498046875 628.413085938 36.25390625 713.317382812 80.904296875 758.522460938 c 4
 90.7177734375 768.458007812 96.3974609375 773.001953125 103.0546875 776.244140625 c 4
 107.978515625 778.641601562 115.725585938 782.75390625 120.271484375 785.381835938 c 4
 144.802734375 799.565429688 181.55078125 803.767578125 217.453125 796.4921875 c 4
 246.02734375 790.702148438 273.143554688 780.081054688 304.97265625 762.212890625 c 4
 322.848632812 752.176757812 365.265625 724.067382812 379.208007812 713.015625 c 4
 401.833984375 695.08203125 426.905273438 668.419921875 440.403320312 647.935546875 c 4
 443.759765625 642.841796875 446.73046875 638.8984375 447.00390625 639.172851562 c 4
 447.278320312 639.446289062 448.66015625 647.233398438 450.076171875 656.4765625 c 4
 451.491210938 665.719726562 452.900390625 673.533203125 453.206054688 673.83984375 c 4
 453.59375 674.2265625 491.819335938 654.833007812 499.259765625 650.474609375 c 4
 499.383789062 650.40234375 498.9453125 647.553710938 498.28515625 644.145507812 c 4
 495.9296875 631.978515625 488.727132942 581.065364266 486.009765625 557.374023438 c 0
 477.78125 485.633789062 473.962890625 436.178710938 472.6640625 384.51953125 c 4
 471.73828125 347.755859375 472.608398438 339.639648438 478.826171875 327.016601562 c 4
 480.970703125 322.66015625 482.600585938 319.096679688 482.446289062 319.096679688 c 4
 482.291992188 319.096679688 479.266601562 320.716796875 475.72265625 322.697265625 c 4
 472.178710938 324.678710938 468.98828125 326.0078125 468.633789062 325.65234375 c 4
 468.278320312 325.297851562 474.198242188 320.188476562 481.790039062 314.298828125 c 4
 500.3046875 299.93359375 500.169921875 299.237304688 480.706054688 308.7109375 c 4
262.36328125 349.493164062 m 4
 316.016601562 355.475585938 363.94921875 390.012695312 396.129882812 445.875976562 c 4
 415.481445312 479.469726562 426.244140625 511.994140625 429.657226562 547.196289062 c 4
 433.420898438 586.009765625 421.912109375 627.424804688 396.98046875 664.788085938 c 4
 385.587890625 681.861328125 375.345703125 693.888671875 357.671875 710.9453125 c 4
 339.9140625 728.084960938 319.578125 743.9296875 312.408203125 746.21484375 c 4
 309.756835938 747.059570312 303.868164062 749.783203125 299.323242188 752.266601562 c 4
 289.1015625 757.8515625 268.154296875 764.622070312 252.162109375 767.510742188 c 4
 232.916992188 770.986328125 204.65625 770.403320312 188.140625 766.189453125 c 4
 152.510742188 757.098632812 127.602539062 734.58203125 106.458984375 692.3515625 c 4
 93.935546875 667.337890625 88.27734375 644.505859375 89.578125 624.23828125 c 6
 90.22265625 614.188476562 l 5
 82.708984375 617.51171875 l 6
 78.576171875 619.338867188 72.83203125 622.040039062 69.9453125 623.512695312 c 6
 64.6943359375 626.19140625 l 5
 62.5791015625 619.672851562 l 6
 50.19921875 581.541015625 43.0576171875 525.126953125 46.28125 490.94140625 c 4
 48.482421875 467.598632812 53.341796875 449.569335938 62.34375 431.348632812 c 4
 68.4794921875 418.930664062 72.142578125 413.651367188 82.654296875 402.079101562 c 4
 94.5234375 389.013671875 109.887695312 375.56640625 112.94921875 375.56640625 c 4
 113.663085938 375.56640625 120.87109375 372.737304688 128.966796875 369.278320312 c 4
 149.922851562 360.32421875 181.48046875 352.513671875 211.174804688 348.931640625 c 4
 220.578125 347.796875 250.056640625 348.120117188 262.36328125 349.493164062 c 4
EndSplineSet
EndChar

StartChar: k
Encoding: 107 107 36
Width: 1000
Flags: HW
LayerCount: 2
Fore
SplineSet
480.706054688 308.7109375 m 4
 463.87890625 316.900390625 449.748046875 326.63671875 440.379882812 336.493164062 c 4
 430.174804688 347.231445312 426.575195312 357.62890625 425.458984375 379.594726562 c 6
 424.66015625 395.329101562 l 1
 418.646484375 387.524414062 l 6
 403.748046875 368.186523438 377.176757812 346.608398438 354.018554688 335.041015625 c 0
 312.806640625 314.456054688 261.592773438 312.596679688 196.35546875 329.31640625 c 0
 171.200195312 335.763671875 156.028320312 341.83203125 129.912109375 355.891601562 c 4
 72.5791015625 386.756835938 54.3935546875 400.333984375 30.681640625 429.970703125 c 4
 8.8720703125 457.231445312 -1.9521484375 497.48046875 0.2900390625 542.98828125 c 4
 4.498046875 628.413085938 36.25390625 713.317382812 80.904296875 758.522460938 c 4
 90.7177734375 768.458007812 96.3974609375 773.001953125 103.0546875 776.244140625 c 4
 107.978515625 778.641601562 115.725585938 782.75390625 120.271484375 785.381835938 c 4
 144.802734375 799.565429688 181.55078125 803.767578125 217.453125 796.4921875 c 4
 246.02734375 790.702148438 273.143554688 780.081054688 304.97265625 762.212890625 c 4
 322.848632812 752.176757812 365.265625 724.067382812 379.208007812 713.015625 c 4
 401.833984375 695.08203125 426.905273438 668.419921875 440.403320312 647.935546875 c 4
 443.759765625 642.841796875 446.73046875 638.8984375 447.00390625 639.172851562 c 4
 447.278320312 639.446289062 448.66015625 647.233398438 450.076171875 656.4765625 c 4
 451.491210938 665.719726562 452.900390625 673.533203125 453.206054688 673.83984375 c 4
 453.59375 674.2265625 491.819335938 654.833007812 499.259765625 650.474609375 c 4
 499.383789062 650.40234375 498.9453125 647.553710938 498.28515625 644.145507812 c 4
 495.9296875 631.978515625 488.727132942 581.065364266 486.009765625 557.374023438 c 0
 477.78125 485.633789062 473.962890625 436.178710938 472.6640625 384.51953125 c 4
 471.73828125 347.755859375 472.608398438 339.639648438 478.826171875 327.016601562 c 4
 480.970703125 322.66015625 482.600585938 319.096679688 482.446289062 319.096679688 c 4
 482.291992188 319.096679688 479.266601562 320.716796875 475.72265625 322.697265625 c 4
 472.178710938 324.678710938 468.98828125 326.0078125 468.633789062 325.65234375 c 4
 468.278320312 325.297851562 474.198242188 320.188476562 481.790039062 314.298828125 c 4
 500.3046875 299.93359375 500.169921875 299.237304688 480.706054688 308.7109375 c 4
262.36328125 349.493164062 m 4
 316.016601562 355.475585938 363.94921875 390.012695312 396.129882812 445.875976562 c 4
 415.481445312 479.469726562 426.244140625 511.994140625 429.657226562 547.196289062 c 4
 433.420898438 586.009765625 421.912109375 627.424804688 396.98046875 664.788085938 c 4
 385.587890625 681.861328125 375.345703125 693.888671875 357.671875 710.9453125 c 4
 339.9140625 728.084960938 319.578125 743.9296875 312.408203125 746.21484375 c 4
 309.756835938 747.059570312 303.868164062 749.783203125 299.323242188 752.266601562 c 4
 289.1015625 757.8515625 268.154296875 764.622070312 252.162109375 767.510742188 c 4
 232.916992188 770.986328125 204.65625 770.403320312 188.140625 766.189453125 c 4
 152.510742188 757.098632812 127.602539062 734.58203125 106.458984375 692.3515625 c 4
 93.935546875 667.337890625 88.27734375 644.505859375 89.578125 624.23828125 c 6
 90.22265625 614.188476562 l 5
 82.708984375 617.51171875 l 6
 78.576171875 619.338867188 72.83203125 622.040039062 69.9453125 623.512695312 c 6
 64.6943359375 626.19140625 l 5
 62.5791015625 619.672851562 l 6
 50.19921875 581.541015625 43.0576171875 525.126953125 46.28125 490.94140625 c 4
 48.482421875 467.598632812 53.341796875 449.569335938 62.34375 431.348632812 c 4
 68.4794921875 418.930664062 72.142578125 413.651367188 82.654296875 402.079101562 c 4
 94.5234375 389.013671875 109.887695312 375.56640625 112.94921875 375.56640625 c 4
 113.663085938 375.56640625 120.87109375 372.737304688 128.966796875 369.278320312 c 4
 149.922851562 360.32421875 181.48046875 352.513671875 211.174804688 348.931640625 c 4
 220.578125 347.796875 250.056640625 348.120117188 262.36328125 349.493164062 c 4
EndSplineSet
EndChar

StartChar: l
Encoding: 108 108 37
Width: 1000
Flags: HW
LayerCount: 2
Fore
SplineSet
480.706054688 308.7109375 m 4
 463.87890625 316.900390625 449.748046875 326.63671875 440.379882812 336.493164062 c 4
 430.174804688 347.231445312 426.575195312 357.62890625 425.458984375 379.594726562 c 6
 424.66015625 395.329101562 l 1
 418.646484375 387.524414062 l 6
 403.748046875 368.186523438 377.176757812 346.608398438 354.018554688 335.041015625 c 0
 312.806640625 314.456054688 261.592773438 312.596679688 196.35546875 329.31640625 c 0
 171.200195312 335.763671875 156.028320312 341.83203125 129.912109375 355.891601562 c 4
 72.5791015625 386.756835938 54.3935546875 400.333984375 30.681640625 429.970703125 c 4
 8.8720703125 457.231445312 -1.9521484375 497.48046875 0.2900390625 542.98828125 c 4
 4.498046875 628.413085938 36.25390625 713.317382812 80.904296875 758.522460938 c 4
 90.7177734375 768.458007812 96.3974609375 773.001953125 103.0546875 776.244140625 c 4
 107.978515625 778.641601562 115.725585938 782.75390625 120.271484375 785.381835938 c 4
 144.802734375 799.565429688 181.55078125 803.767578125 217.453125 796.4921875 c 4
 246.02734375 790.702148438 273.143554688 780.081054688 304.97265625 762.212890625 c 4
 322.848632812 752.176757812 365.265625 724.067382812 379.208007812 713.015625 c 4
 401.833984375 695.08203125 426.905273438 668.419921875 440.403320312 647.935546875 c 4
 443.759765625 642.841796875 446.73046875 638.8984375 447.00390625 639.172851562 c 4
 447.278320312 639.446289062 448.66015625 647.233398438 450.076171875 656.4765625 c 4
 451.491210938 665.719726562 452.900390625 673.533203125 453.206054688 673.83984375 c 4
 453.59375 674.2265625 491.819335938 654.833007812 499.259765625 650.474609375 c 4
 499.383789062 650.40234375 498.9453125 647.553710938 498.28515625 644.145507812 c 4
 495.9296875 631.978515625 488.727132942 581.065364266 486.009765625 557.374023438 c 0
 477.78125 485.633789062 473.962890625 436.178710938 472.6640625 384.51953125 c 4
 471.73828125 347.755859375 472.608398438 339.639648438 478.826171875 327.016601562 c 4
 480.970703125 322.66015625 482.600585938 319.096679688 482.446289062 319.096679688 c 4
 482.291992188 319.096679688 479.266601562 320.716796875 475.72265625 322.697265625 c 4
 472.178710938 324.678710938 468.98828125 326.0078125 468.633789062 325.65234375 c 4
 468.278320312 325.297851562 474.198242188 320.188476562 481.790039062 314.298828125 c 4
 500.3046875 299.93359375 500.169921875 299.237304688 480.706054688 308.7109375 c 4
262.36328125 349.493164062 m 4
 316.016601562 355.475585938 363.94921875 390.012695312 396.129882812 445.875976562 c 4
 415.481445312 479.469726562 426.244140625 511.994140625 429.657226562 547.196289062 c 4
 433.420898438 586.009765625 421.912109375 627.424804688 396.98046875 664.788085938 c 4
 385.587890625 681.861328125 375.345703125 693.888671875 357.671875 710.9453125 c 4
 339.9140625 728.084960938 319.578125 743.9296875 312.408203125 746.21484375 c 4
 309.756835938 747.059570312 303.868164062 749.783203125 299.323242188 752.266601562 c 4
 289.1015625 757.8515625 268.154296875 764.622070312 252.162109375 767.510742188 c 4
 232.916992188 770.986328125 204.65625 770.403320312 188.140625 766.189453125 c 4
 152.510742188 757.098632812 127.602539062 734.58203125 106.458984375 692.3515625 c 4
 93.935546875 667.337890625 88.27734375 644.505859375 89.578125 624.23828125 c 6
 90.22265625 614.188476562 l 5
 82.708984375 617.51171875 l 6
 78.576171875 619.338867188 72.83203125 622.040039062 69.9453125 623.512695312 c 6
 64.6943359375 626.19140625 l 5
 62.5791015625 619.672851562 l 6
 50.19921875 581.541015625 43.0576171875 525.126953125 46.28125 490.94140625 c 4
 48.482421875 467.598632812 53.341796875 449.569335938 62.34375 431.348632812 c 4
 68.4794921875 418.930664062 72.142578125 413.651367188 82.654296875 402.079101562 c 4
 94.5234375 389.013671875 109.887695312 375.56640625 112.94921875 375.56640625 c 4
 113.663085938 375.56640625 120.87109375 372.737304688 128.966796875 369.278320312 c 4
 149.922851562 360.32421875 181.48046875 352.513671875 211.174804688 348.931640625 c 4
 220.578125 347.796875 250.056640625 348.120117188 262.36328125 349.493164062 c 4
EndSplineSet
EndChar

StartChar: m
Encoding: 109 109 38
Width: 1000
Flags: HW
LayerCount: 2
Fore
SplineSet
480.706054688 308.7109375 m 4
 463.87890625 316.900390625 449.748046875 326.63671875 440.379882812 336.493164062 c 4
 430.174804688 347.231445312 426.575195312 357.62890625 425.458984375 379.594726562 c 6
 424.66015625 395.329101562 l 1
 418.646484375 387.524414062 l 6
 403.748046875 368.186523438 377.176757812 346.608398438 354.018554688 335.041015625 c 0
 312.806640625 314.456054688 261.592773438 312.596679688 196.35546875 329.31640625 c 0
 171.200195312 335.763671875 156.028320312 341.83203125 129.912109375 355.891601562 c 4
 72.5791015625 386.756835938 54.3935546875 400.333984375 30.681640625 429.970703125 c 4
 8.8720703125 457.231445312 -1.9521484375 497.48046875 0.2900390625 542.98828125 c 4
 4.498046875 628.413085938 36.25390625 713.317382812 80.904296875 758.522460938 c 4
 90.7177734375 768.458007812 96.3974609375 773.001953125 103.0546875 776.244140625 c 4
 107.978515625 778.641601562 115.725585938 782.75390625 120.271484375 785.381835938 c 4
 144.802734375 799.565429688 181.55078125 803.767578125 217.453125 796.4921875 c 4
 246.02734375 790.702148438 273.143554688 780.081054688 304.97265625 762.212890625 c 4
 322.848632812 752.176757812 365.265625 724.067382812 379.208007812 713.015625 c 4
 401.833984375 695.08203125 426.905273438 668.419921875 440.403320312 647.935546875 c 4
 443.759765625 642.841796875 446.73046875 638.8984375 447.00390625 639.172851562 c 4
 447.278320312 639.446289062 448.66015625 647.233398438 450.076171875 656.4765625 c 4
 451.491210938 665.719726562 452.900390625 673.533203125 453.206054688 673.83984375 c 4
 453.59375 674.2265625 491.819335938 654.833007812 499.259765625 650.474609375 c 4
 499.383789062 650.40234375 498.9453125 647.553710938 498.28515625 644.145507812 c 4
 495.9296875 631.978515625 488.727132942 581.065364266 486.009765625 557.374023438 c 0
 477.78125 485.633789062 473.962890625 436.178710938 472.6640625 384.51953125 c 4
 471.73828125 347.755859375 472.608398438 339.639648438 478.826171875 327.016601562 c 4
 480.970703125 322.66015625 482.600585938 319.096679688 482.446289062 319.096679688 c 4
 482.291992188 319.096679688 479.266601562 320.716796875 475.72265625 322.697265625 c 4
 472.178710938 324.678710938 468.98828125 326.0078125 468.633789062 325.65234375 c 4
 468.278320312 325.297851562 474.198242188 320.188476562 481.790039062 314.298828125 c 4
 500.3046875 299.93359375 500.169921875 299.237304688 480.706054688 308.7109375 c 4
262.36328125 349.493164062 m 4
 316.016601562 355.475585938 363.94921875 390.012695312 396.129882812 445.875976562 c 4
 415.481445312 479.469726562 426.244140625 511.994140625 429.657226562 547.196289062 c 4
 433.420898438 586.009765625 421.912109375 627.424804688 396.98046875 664.788085938 c 4
 385.587890625 681.861328125 375.345703125 693.888671875 357.671875 710.9453125 c 4
 339.9140625 728.084960938 319.578125 743.9296875 312.408203125 746.21484375 c 4
 309.756835938 747.059570312 303.868164062 749.783203125 299.323242188 752.266601562 c 4
 289.1015625 757.8515625 268.154296875 764.622070312 252.162109375 767.510742188 c 4
 232.916992188 770.986328125 204.65625 770.403320312 188.140625 766.189453125 c 4
 152.510742188 757.098632812 127.602539062 734.58203125 106.458984375 692.3515625 c 4
 93.935546875 667.337890625 88.27734375 644.505859375 89.578125 624.23828125 c 6
 90.22265625 614.188476562 l 5
 82.708984375 617.51171875 l 6
 78.576171875 619.338867188 72.83203125 622.040039062 69.9453125 623.512695312 c 6
 64.6943359375 626.19140625 l 5
 62.5791015625 619.672851562 l 6
 50.19921875 581.541015625 43.0576171875 525.126953125 46.28125 490.94140625 c 4
 48.482421875 467.598632812 53.341796875 449.569335938 62.34375 431.348632812 c 4
 68.4794921875 418.930664062 72.142578125 413.651367188 82.654296875 402.079101562 c 4
 94.5234375 389.013671875 109.887695312 375.56640625 112.94921875 375.56640625 c 4
 113.663085938 375.56640625 120.87109375 372.737304688 128.966796875 369.278320312 c 4
 149.922851562 360.32421875 181.48046875 352.513671875 211.174804688 348.931640625 c 4
 220.578125 347.796875 250.056640625 348.120117188 262.36328125 349.493164062 c 4
EndSplineSet
EndChar

StartChar: n
Encoding: 110 110 39
Width: 1000
Flags: HW
LayerCount: 2
Fore
SplineSet
480.706054688 308.7109375 m 4
 463.87890625 316.900390625 449.748046875 326.63671875 440.379882812 336.493164062 c 4
 430.174804688 347.231445312 426.575195312 357.62890625 425.458984375 379.594726562 c 6
 424.66015625 395.329101562 l 1
 418.646484375 387.524414062 l 6
 403.748046875 368.186523438 377.176757812 346.608398438 354.018554688 335.041015625 c 0
 312.806640625 314.456054688 261.592773438 312.596679688 196.35546875 329.31640625 c 0
 171.200195312 335.763671875 156.028320312 341.83203125 129.912109375 355.891601562 c 4
 72.5791015625 386.756835938 54.3935546875 400.333984375 30.681640625 429.970703125 c 4
 8.8720703125 457.231445312 -1.9521484375 497.48046875 0.2900390625 542.98828125 c 4
 4.498046875 628.413085938 36.25390625 713.317382812 80.904296875 758.522460938 c 4
 90.7177734375 768.458007812 96.3974609375 773.001953125 103.0546875 776.244140625 c 4
 107.978515625 778.641601562 115.725585938 782.75390625 120.271484375 785.381835938 c 4
 144.802734375 799.565429688 181.55078125 803.767578125 217.453125 796.4921875 c 4
 246.02734375 790.702148438 273.143554688 780.081054688 304.97265625 762.212890625 c 4
 322.848632812 752.176757812 365.265625 724.067382812 379.208007812 713.015625 c 4
 401.833984375 695.08203125 426.905273438 668.419921875 440.403320312 647.935546875 c 4
 443.759765625 642.841796875 446.73046875 638.8984375 447.00390625 639.172851562 c 4
 447.278320312 639.446289062 448.66015625 647.233398438 450.076171875 656.4765625 c 4
 451.491210938 665.719726562 452.900390625 673.533203125 453.206054688 673.83984375 c 4
 453.59375 674.2265625 491.819335938 654.833007812 499.259765625 650.474609375 c 4
 499.383789062 650.40234375 498.9453125 647.553710938 498.28515625 644.145507812 c 4
 495.9296875 631.978515625 488.727132942 581.065364266 486.009765625 557.374023438 c 0
 477.78125 485.633789062 473.962890625 436.178710938 472.6640625 384.51953125 c 4
 471.73828125 347.755859375 472.608398438 339.639648438 478.826171875 327.016601562 c 4
 480.970703125 322.66015625 482.600585938 319.096679688 482.446289062 319.096679688 c 4
 482.291992188 319.096679688 479.266601562 320.716796875 475.72265625 322.697265625 c 4
 472.178710938 324.678710938 468.98828125 326.0078125 468.633789062 325.65234375 c 4
 468.278320312 325.297851562 474.198242188 320.188476562 481.790039062 314.298828125 c 4
 500.3046875 299.93359375 500.169921875 299.237304688 480.706054688 308.7109375 c 4
262.36328125 349.493164062 m 4
 316.016601562 355.475585938 363.94921875 390.012695312 396.129882812 445.875976562 c 4
 415.481445312 479.469726562 426.244140625 511.994140625 429.657226562 547.196289062 c 4
 433.420898438 586.009765625 421.912109375 627.424804688 396.98046875 664.788085938 c 4
 385.587890625 681.861328125 375.345703125 693.888671875 357.671875 710.9453125 c 4
 339.9140625 728.084960938 319.578125 743.9296875 312.408203125 746.21484375 c 4
 309.756835938 747.059570312 303.868164062 749.783203125 299.323242188 752.266601562 c 4
 289.1015625 757.8515625 268.154296875 764.622070312 252.162109375 767.510742188 c 4
 232.916992188 770.986328125 204.65625 770.403320312 188.140625 766.189453125 c 4
 152.510742188 757.098632812 127.602539062 734.58203125 106.458984375 692.3515625 c 4
 93.935546875 667.337890625 88.27734375 644.505859375 89.578125 624.23828125 c 6
 90.22265625 614.188476562 l 5
 82.708984375 617.51171875 l 6
 78.576171875 619.338867188 72.83203125 622.040039062 69.9453125 623.512695312 c 6
 64.6943359375 626.19140625 l 5
 62.5791015625 619.672851562 l 6
 50.19921875 581.541015625 43.0576171875 525.126953125 46.28125 490.94140625 c 4
 48.482421875 467.598632812 53.341796875 449.569335938 62.34375 431.348632812 c 4
 68.4794921875 418.930664062 72.142578125 413.651367188 82.654296875 402.079101562 c 4
 94.5234375 389.013671875 109.887695312 375.56640625 112.94921875 375.56640625 c 4
 113.663085938 375.56640625 120.87109375 372.737304688 128.966796875 369.278320312 c 4
 149.922851562 360.32421875 181.48046875 352.513671875 211.174804688 348.931640625 c 4
 220.578125 347.796875 250.056640625 348.120117188 262.36328125 349.493164062 c 4
EndSplineSet
EndChar

StartChar: o
Encoding: 111 111 40
Width: 1000
Flags: HW
LayerCount: 2
Fore
SplineSet
480.706054688 308.7109375 m 4
 463.87890625 316.900390625 449.748046875 326.63671875 440.379882812 336.493164062 c 4
 430.174804688 347.231445312 426.575195312 357.62890625 425.458984375 379.594726562 c 6
 424.66015625 395.329101562 l 1
 418.646484375 387.524414062 l 6
 403.748046875 368.186523438 377.176757812 346.608398438 354.018554688 335.041015625 c 0
 312.806640625 314.456054688 261.592773438 312.596679688 196.35546875 329.31640625 c 0
 171.200195312 335.763671875 156.028320312 341.83203125 129.912109375 355.891601562 c 4
 72.5791015625 386.756835938 54.3935546875 400.333984375 30.681640625 429.970703125 c 4
 8.8720703125 457.231445312 -1.9521484375 497.48046875 0.2900390625 542.98828125 c 4
 4.498046875 628.413085938 36.25390625 713.317382812 80.904296875 758.522460938 c 4
 90.7177734375 768.458007812 96.3974609375 773.001953125 103.0546875 776.244140625 c 4
 107.978515625 778.641601562 115.725585938 782.75390625 120.271484375 785.381835938 c 4
 144.802734375 799.565429688 181.55078125 803.767578125 217.453125 796.4921875 c 4
 246.02734375 790.702148438 273.143554688 780.081054688 304.97265625 762.212890625 c 4
 322.848632812 752.176757812 365.265625 724.067382812 379.208007812 713.015625 c 4
 401.833984375 695.08203125 426.905273438 668.419921875 440.403320312 647.935546875 c 4
 443.759765625 642.841796875 446.73046875 638.8984375 447.00390625 639.172851562 c 4
 447.278320312 639.446289062 448.66015625 647.233398438 450.076171875 656.4765625 c 4
 451.491210938 665.719726562 452.900390625 673.533203125 453.206054688 673.83984375 c 4
 453.59375 674.2265625 491.819335938 654.833007812 499.259765625 650.474609375 c 4
 499.383789062 650.40234375 498.9453125 647.553710938 498.28515625 644.145507812 c 4
 495.9296875 631.978515625 488.727132942 581.065364266 486.009765625 557.374023438 c 0
 477.78125 485.633789062 473.962890625 436.178710938 472.6640625 384.51953125 c 4
 471.73828125 347.755859375 472.608398438 339.639648438 478.826171875 327.016601562 c 4
 480.970703125 322.66015625 482.600585938 319.096679688 482.446289062 319.096679688 c 4
 482.291992188 319.096679688 479.266601562 320.716796875 475.72265625 322.697265625 c 4
 472.178710938 324.678710938 468.98828125 326.0078125 468.633789062 325.65234375 c 4
 468.278320312 325.297851562 474.198242188 320.188476562 481.790039062 314.298828125 c 4
 500.3046875 299.93359375 500.169921875 299.237304688 480.706054688 308.7109375 c 4
262.36328125 349.493164062 m 4
 316.016601562 355.475585938 363.94921875 390.012695312 396.129882812 445.875976562 c 4
 415.481445312 479.469726562 426.244140625 511.994140625 429.657226562 547.196289062 c 4
 433.420898438 586.009765625 421.912109375 627.424804688 396.98046875 664.788085938 c 4
 385.587890625 681.861328125 375.345703125 693.888671875 357.671875 710.9453125 c 4
 339.9140625 728.084960938 319.578125 743.9296875 312.408203125 746.21484375 c 4
 309.756835938 747.059570312 303.868164062 749.783203125 299.323242188 752.266601562 c 4
 289.1015625 757.8515625 268.154296875 764.622070312 252.162109375 767.510742188 c 4
 232.916992188 770.986328125 204.65625 770.403320312 188.140625 766.189453125 c 4
 152.510742188 757.098632812 127.602539062 734.58203125 106.458984375 692.3515625 c 4
 93.935546875 667.337890625 88.27734375 644.505859375 89.578125 624.23828125 c 6
 90.22265625 614.188476562 l 5
 82.708984375 617.51171875 l 6
 78.576171875 619.338867188 72.83203125 622.040039062 69.9453125 623.512695312 c 6
 64.6943359375 626.19140625 l 5
 62.5791015625 619.672851562 l 6
 50.19921875 581.541015625 43.0576171875 525.126953125 46.28125 490.94140625 c 4
 48.482421875 467.598632812 53.341796875 449.569335938 62.34375 431.348632812 c 4
 68.4794921875 418.930664062 72.142578125 413.651367188 82.654296875 402.079101562 c 4
 94.5234375 389.013671875 109.887695312 375.56640625 112.94921875 375.56640625 c 4
 113.663085938 375.56640625 120.87109375 372.737304688 128.966796875 369.278320312 c 4
 149.922851562 360.32421875 181.48046875 352.513671875 211.174804688 348.931640625 c 4
 220.578125 347.796875 250.056640625 348.120117188 262.36328125 349.493164062 c 4
EndSplineSet
EndChar

StartChar: p
Encoding: 112 112 41
Width: 1000
Flags: HW
LayerCount: 2
Fore
SplineSet
480.706054688 308.7109375 m 4
 463.87890625 316.900390625 449.748046875 326.63671875 440.379882812 336.493164062 c 4
 430.174804688 347.231445312 426.575195312 357.62890625 425.458984375 379.594726562 c 6
 424.66015625 395.329101562 l 1
 418.646484375 387.524414062 l 6
 403.748046875 368.186523438 377.176757812 346.608398438 354.018554688 335.041015625 c 0
 312.806640625 314.456054688 261.592773438 312.596679688 196.35546875 329.31640625 c 0
 171.200195312 335.763671875 156.028320312 341.83203125 129.912109375 355.891601562 c 4
 72.5791015625 386.756835938 54.3935546875 400.333984375 30.681640625 429.970703125 c 4
 8.8720703125 457.231445312 -1.9521484375 497.48046875 0.2900390625 542.98828125 c 4
 4.498046875 628.413085938 36.25390625 713.317382812 80.904296875 758.522460938 c 4
 90.7177734375 768.458007812 96.3974609375 773.001953125 103.0546875 776.244140625 c 4
 107.978515625 778.641601562 115.725585938 782.75390625 120.271484375 785.381835938 c 4
 144.802734375 799.565429688 181.55078125 803.767578125 217.453125 796.4921875 c 4
 246.02734375 790.702148438 273.143554688 780.081054688 304.97265625 762.212890625 c 4
 322.848632812 752.176757812 365.265625 724.067382812 379.208007812 713.015625 c 4
 401.833984375 695.08203125 426.905273438 668.419921875 440.403320312 647.935546875 c 4
 443.759765625 642.841796875 446.73046875 638.8984375 447.00390625 639.172851562 c 4
 447.278320312 639.446289062 448.66015625 647.233398438 450.076171875 656.4765625 c 4
 451.491210938 665.719726562 452.900390625 673.533203125 453.206054688 673.83984375 c 4
 453.59375 674.2265625 491.819335938 654.833007812 499.259765625 650.474609375 c 4
 499.383789062 650.40234375 498.9453125 647.553710938 498.28515625 644.145507812 c 4
 495.9296875 631.978515625 488.727132942 581.065364266 486.009765625 557.374023438 c 0
 477.78125 485.633789062 473.962890625 436.178710938 472.6640625 384.51953125 c 4
 471.73828125 347.755859375 472.608398438 339.639648438 478.826171875 327.016601562 c 4
 480.970703125 322.66015625 482.600585938 319.096679688 482.446289062 319.096679688 c 4
 482.291992188 319.096679688 479.266601562 320.716796875 475.72265625 322.697265625 c 4
 472.178710938 324.678710938 468.98828125 326.0078125 468.633789062 325.65234375 c 4
 468.278320312 325.297851562 474.198242188 320.188476562 481.790039062 314.298828125 c 4
 500.3046875 299.93359375 500.169921875 299.237304688 480.706054688 308.7109375 c 4
262.36328125 349.493164062 m 4
 316.016601562 355.475585938 363.94921875 390.012695312 396.129882812 445.875976562 c 4
 415.481445312 479.469726562 426.244140625 511.994140625 429.657226562 547.196289062 c 4
 433.420898438 586.009765625 421.912109375 627.424804688 396.98046875 664.788085938 c 4
 385.587890625 681.861328125 375.345703125 693.888671875 357.671875 710.9453125 c 4
 339.9140625 728.084960938 319.578125 743.9296875 312.408203125 746.21484375 c 4
 309.756835938 747.059570312 303.868164062 749.783203125 299.323242188 752.266601562 c 4
 289.1015625 757.8515625 268.154296875 764.622070312 252.162109375 767.510742188 c 4
 232.916992188 770.986328125 204.65625 770.403320312 188.140625 766.189453125 c 4
 152.510742188 757.098632812 127.602539062 734.58203125 106.458984375 692.3515625 c 4
 93.935546875 667.337890625 88.27734375 644.505859375 89.578125 624.23828125 c 6
 90.22265625 614.188476562 l 5
 82.708984375 617.51171875 l 6
 78.576171875 619.338867188 72.83203125 622.040039062 69.9453125 623.512695312 c 6
 64.6943359375 626.19140625 l 5
 62.5791015625 619.672851562 l 6
 50.19921875 581.541015625 43.0576171875 525.126953125 46.28125 490.94140625 c 4
 48.482421875 467.598632812 53.341796875 449.569335938 62.34375 431.348632812 c 4
 68.4794921875 418.930664062 72.142578125 413.651367188 82.654296875 402.079101562 c 4
 94.5234375 389.013671875 109.887695312 375.56640625 112.94921875 375.56640625 c 4
 113.663085938 375.56640625 120.87109375 372.737304688 128.966796875 369.278320312 c 4
 149.922851562 360.32421875 181.48046875 352.513671875 211.174804688 348.931640625 c 4
 220.578125 347.796875 250.056640625 348.120117188 262.36328125 349.493164062 c 4
EndSplineSet
EndChar

StartChar: q
Encoding: 113 113 42
Width: 1000
Flags: HW
LayerCount: 2
Fore
SplineSet
480.706054688 308.7109375 m 4
 463.87890625 316.900390625 449.748046875 326.63671875 440.379882812 336.493164062 c 4
 430.174804688 347.231445312 426.575195312 357.62890625 425.458984375 379.594726562 c 6
 424.66015625 395.329101562 l 1
 418.646484375 387.524414062 l 6
 403.748046875 368.186523438 377.176757812 346.608398438 354.018554688 335.041015625 c 0
 312.806640625 314.456054688 261.592773438 312.596679688 196.35546875 329.31640625 c 0
 171.200195312 335.763671875 156.028320312 341.83203125 129.912109375 355.891601562 c 4
 72.5791015625 386.756835938 54.3935546875 400.333984375 30.681640625 429.970703125 c 4
 8.8720703125 457.231445312 -1.9521484375 497.48046875 0.2900390625 542.98828125 c 4
 4.498046875 628.413085938 36.25390625 713.317382812 80.904296875 758.522460938 c 4
 90.7177734375 768.458007812 96.3974609375 773.001953125 103.0546875 776.244140625 c 4
 107.978515625 778.641601562 115.725585938 782.75390625 120.271484375 785.381835938 c 4
 144.802734375 799.565429688 181.55078125 803.767578125 217.453125 796.4921875 c 4
 246.02734375 790.702148438 273.143554688 780.081054688 304.97265625 762.212890625 c 4
 322.848632812 752.176757812 365.265625 724.067382812 379.208007812 713.015625 c 4
 401.833984375 695.08203125 426.905273438 668.419921875 440.403320312 647.935546875 c 4
 443.759765625 642.841796875 446.73046875 638.8984375 447.00390625 639.172851562 c 4
 447.278320312 639.446289062 448.66015625 647.233398438 450.076171875 656.4765625 c 4
 451.491210938 665.719726562 452.900390625 673.533203125 453.206054688 673.83984375 c 4
 453.59375 674.2265625 491.819335938 654.833007812 499.259765625 650.474609375 c 4
 499.383789062 650.40234375 498.9453125 647.553710938 498.28515625 644.145507812 c 4
 495.9296875 631.978515625 488.727132942 581.065364266 486.009765625 557.374023438 c 0
 477.78125 485.633789062 473.962890625 436.178710938 472.6640625 384.51953125 c 4
 471.73828125 347.755859375 472.608398438 339.639648438 478.826171875 327.016601562 c 4
 480.970703125 322.66015625 482.600585938 319.096679688 482.446289062 319.096679688 c 4
 482.291992188 319.096679688 479.266601562 320.716796875 475.72265625 322.697265625 c 4
 472.178710938 324.678710938 468.98828125 326.0078125 468.633789062 325.65234375 c 4
 468.278320312 325.297851562 474.198242188 320.188476562 481.790039062 314.298828125 c 4
 500.3046875 299.93359375 500.169921875 299.237304688 480.706054688 308.7109375 c 4
262.36328125 349.493164062 m 4
 316.016601562 355.475585938 363.94921875 390.012695312 396.129882812 445.875976562 c 4
 415.481445312 479.469726562 426.244140625 511.994140625 429.657226562 547.196289062 c 4
 433.420898438 586.009765625 421.912109375 627.424804688 396.98046875 664.788085938 c 4
 385.587890625 681.861328125 375.345703125 693.888671875 357.671875 710.9453125 c 4
 339.9140625 728.084960938 319.578125 743.9296875 312.408203125 746.21484375 c 4
 309.756835938 747.059570312 303.868164062 749.783203125 299.323242188 752.266601562 c 4
 289.1015625 757.8515625 268.154296875 764.622070312 252.162109375 767.510742188 c 4
 232.916992188 770.986328125 204.65625 770.403320312 188.140625 766.189453125 c 4
 152.510742188 757.098632812 127.602539062 734.58203125 106.458984375 692.3515625 c 4
 93.935546875 667.337890625 88.27734375 644.505859375 89.578125 624.23828125 c 6
 90.22265625 614.188476562 l 5
 82.708984375 617.51171875 l 6
 78.576171875 619.338867188 72.83203125 622.040039062 69.9453125 623.512695312 c 6
 64.6943359375 626.19140625 l 5
 62.5791015625 619.672851562 l 6
 50.19921875 581.541015625 43.0576171875 525.126953125 46.28125 490.94140625 c 4
 48.482421875 467.598632812 53.341796875 449.569335938 62.34375 431.348632812 c 4
 68.4794921875 418.930664062 72.142578125 413.651367188 82.654296875 402.079101562 c 4
 94.5234375 389.013671875 109.887695312 375.56640625 112.94921875 375.56640625 c 4
 113.663085938 375.56640625 120.87109375 372.737304688 128.966796875 369.278320312 c 4
 149.922851562 360.32421875 181.48046875 352.513671875 211.174804688 348.931640625 c 4
 220.578125 347.796875 250.056640625 348.120117188 262.36328125 349.493164062 c 4
EndSplineSet
EndChar

StartChar: r
Encoding: 114 114 43
Width: 1000
Flags: HW
LayerCount: 2
Fore
SplineSet
480.706054688 308.7109375 m 4
 463.87890625 316.900390625 449.748046875 326.63671875 440.379882812 336.493164062 c 4
 430.174804688 347.231445312 426.575195312 357.62890625 425.458984375 379.594726562 c 6
 424.66015625 395.329101562 l 1
 418.646484375 387.524414062 l 6
 403.748046875 368.186523438 377.176757812 346.608398438 354.018554688 335.041015625 c 0
 312.806640625 314.456054688 261.592773438 312.596679688 196.35546875 329.31640625 c 0
 171.200195312 335.763671875 156.028320312 341.83203125 129.912109375 355.891601562 c 4
 72.5791015625 386.756835938 54.3935546875 400.333984375 30.681640625 429.970703125 c 4
 8.8720703125 457.231445312 -1.9521484375 497.48046875 0.2900390625 542.98828125 c 4
 4.498046875 628.413085938 36.25390625 713.317382812 80.904296875 758.522460938 c 4
 90.7177734375 768.458007812 96.3974609375 773.001953125 103.0546875 776.244140625 c 4
 107.978515625 778.641601562 115.725585938 782.75390625 120.271484375 785.381835938 c 4
 144.802734375 799.565429688 181.55078125 803.767578125 217.453125 796.4921875 c 4
 246.02734375 790.702148438 273.143554688 780.081054688 304.97265625 762.212890625 c 4
 322.848632812 752.176757812 365.265625 724.067382812 379.208007812 713.015625 c 4
 401.833984375 695.08203125 426.905273438 668.419921875 440.403320312 647.935546875 c 4
 443.759765625 642.841796875 446.73046875 638.8984375 447.00390625 639.172851562 c 4
 447.278320312 639.446289062 448.66015625 647.233398438 450.076171875 656.4765625 c 4
 451.491210938 665.719726562 452.900390625 673.533203125 453.206054688 673.83984375 c 4
 453.59375 674.2265625 491.819335938 654.833007812 499.259765625 650.474609375 c 4
 499.383789062 650.40234375 498.9453125 647.553710938 498.28515625 644.145507812 c 4
 495.9296875 631.978515625 488.727132942 581.065364266 486.009765625 557.374023438 c 0
 477.78125 485.633789062 473.962890625 436.178710938 472.6640625 384.51953125 c 4
 471.73828125 347.755859375 472.608398438 339.639648438 478.826171875 327.016601562 c 4
 480.970703125 322.66015625 482.600585938 319.096679688 482.446289062 319.096679688 c 4
 482.291992188 319.096679688 479.266601562 320.716796875 475.72265625 322.697265625 c 4
 472.178710938 324.678710938 468.98828125 326.0078125 468.633789062 325.65234375 c 4
 468.278320312 325.297851562 474.198242188 320.188476562 481.790039062 314.298828125 c 4
 500.3046875 299.93359375 500.169921875 299.237304688 480.706054688 308.7109375 c 4
262.36328125 349.493164062 m 4
 316.016601562 355.475585938 363.94921875 390.012695312 396.129882812 445.875976562 c 4
 415.481445312 479.469726562 426.244140625 511.994140625 429.657226562 547.196289062 c 4
 433.420898438 586.009765625 421.912109375 627.424804688 396.98046875 664.788085938 c 4
 385.587890625 681.861328125 375.345703125 693.888671875 357.671875 710.9453125 c 4
 339.9140625 728.084960938 319.578125 743.9296875 312.408203125 746.21484375 c 4
 309.756835938 747.059570312 303.868164062 749.783203125 299.323242188 752.266601562 c 4
 289.1015625 757.8515625 268.154296875 764.622070312 252.162109375 767.510742188 c 4
 232.916992188 770.986328125 204.65625 770.403320312 188.140625 766.189453125 c 4
 152.510742188 757.098632812 127.602539062 734.58203125 106.458984375 692.3515625 c 4
 93.935546875 667.337890625 88.27734375 644.505859375 89.578125 624.23828125 c 6
 90.22265625 614.188476562 l 5
 82.708984375 617.51171875 l 6
 78.576171875 619.338867188 72.83203125 622.040039062 69.9453125 623.512695312 c 6
 64.6943359375 626.19140625 l 5
 62.5791015625 619.672851562 l 6
 50.19921875 581.541015625 43.0576171875 525.126953125 46.28125 490.94140625 c 4
 48.482421875 467.598632812 53.341796875 449.569335938 62.34375 431.348632812 c 4
 68.4794921875 418.930664062 72.142578125 413.651367188 82.654296875 402.079101562 c 4
 94.5234375 389.013671875 109.887695312 375.56640625 112.94921875 375.56640625 c 4
 113.663085938 375.56640625 120.87109375 372.737304688 128.966796875 369.278320312 c 4
 149.922851562 360.32421875 181.48046875 352.513671875 211.174804688 348.931640625 c 4
 220.578125 347.796875 250.056640625 348.120117188 262.36328125 349.493164062 c 4
EndSplineSet
EndChar

StartChar: s
Encoding: 115 115 44
Width: 1000
Flags: HW
LayerCount: 2
Fore
SplineSet
480.706054688 308.7109375 m 4
 463.87890625 316.900390625 449.748046875 326.63671875 440.379882812 336.493164062 c 4
 430.174804688 347.231445312 426.575195312 357.62890625 425.458984375 379.594726562 c 6
 424.66015625 395.329101562 l 1
 418.646484375 387.524414062 l 6
 403.748046875 368.186523438 377.176757812 346.608398438 354.018554688 335.041015625 c 0
 312.806640625 314.456054688 261.592773438 312.596679688 196.35546875 329.31640625 c 0
 171.200195312 335.763671875 156.028320312 341.83203125 129.912109375 355.891601562 c 4
 72.5791015625 386.756835938 54.3935546875 400.333984375 30.681640625 429.970703125 c 4
 8.8720703125 457.231445312 -1.9521484375 497.48046875 0.2900390625 542.98828125 c 4
 4.498046875 628.413085938 36.25390625 713.317382812 80.904296875 758.522460938 c 4
 90.7177734375 768.458007812 96.3974609375 773.001953125 103.0546875 776.244140625 c 4
 107.978515625 778.641601562 115.725585938 782.75390625 120.271484375 785.381835938 c 4
 144.802734375 799.565429688 181.55078125 803.767578125 217.453125 796.4921875 c 4
 246.02734375 790.702148438 273.143554688 780.081054688 304.97265625 762.212890625 c 4
 322.848632812 752.176757812 365.265625 724.067382812 379.208007812 713.015625 c 4
 401.833984375 695.08203125 426.905273438 668.419921875 440.403320312 647.935546875 c 4
 443.759765625 642.841796875 446.73046875 638.8984375 447.00390625 639.172851562 c 4
 447.278320312 639.446289062 448.66015625 647.233398438 450.076171875 656.4765625 c 4
 451.491210938 665.719726562 452.900390625 673.533203125 453.206054688 673.83984375 c 4
 453.59375 674.2265625 491.819335938 654.833007812 499.259765625 650.474609375 c 4
 499.383789062 650.40234375 498.9453125 647.553710938 498.28515625 644.145507812 c 4
 495.9296875 631.978515625 488.727132942 581.065364266 486.009765625 557.374023438 c 0
 477.78125 485.633789062 473.962890625 436.178710938 472.6640625 384.51953125 c 4
 471.73828125 347.755859375 472.608398438 339.639648438 478.826171875 327.016601562 c 4
 480.970703125 322.66015625 482.600585938 319.096679688 482.446289062 319.096679688 c 4
 482.291992188 319.096679688 479.266601562 320.716796875 475.72265625 322.697265625 c 4
 472.178710938 324.678710938 468.98828125 326.0078125 468.633789062 325.65234375 c 4
 468.278320312 325.297851562 474.198242188 320.188476562 481.790039062 314.298828125 c 4
 500.3046875 299.93359375 500.169921875 299.237304688 480.706054688 308.7109375 c 4
262.36328125 349.493164062 m 4
 316.016601562 355.475585938 363.94921875 390.012695312 396.129882812 445.875976562 c 4
 415.481445312 479.469726562 426.244140625 511.994140625 429.657226562 547.196289062 c 4
 433.420898438 586.009765625 421.912109375 627.424804688 396.98046875 664.788085938 c 4
 385.587890625 681.861328125 375.345703125 693.888671875 357.671875 710.9453125 c 4
 339.9140625 728.084960938 319.578125 743.9296875 312.408203125 746.21484375 c 4
 309.756835938 747.059570312 303.868164062 749.783203125 299.323242188 752.266601562 c 4
 289.1015625 757.8515625 268.154296875 764.622070312 252.162109375 767.510742188 c 4
 232.916992188 770.986328125 204.65625 770.403320312 188.140625 766.189453125 c 4
 152.510742188 757.098632812 127.602539062 734.58203125 106.458984375 692.3515625 c 4
 93.935546875 667.337890625 88.27734375 644.505859375 89.578125 624.23828125 c 6
 90.22265625 614.188476562 l 5
 82.708984375 617.51171875 l 6
 78.576171875 619.338867188 72.83203125 622.040039062 69.9453125 623.512695312 c 6
 64.6943359375 626.19140625 l 5
 62.5791015625 619.672851562 l 6
 50.19921875 581.541015625 43.0576171875 525.126953125 46.28125 490.94140625 c 4
 48.482421875 467.598632812 53.341796875 449.569335938 62.34375 431.348632812 c 4
 68.4794921875 418.930664062 72.142578125 413.651367188 82.654296875 402.079101562 c 4
 94.5234375 389.013671875 109.887695312 375.56640625 112.94921875 375.56640625 c 4
 113.663085938 375.56640625 120.87109375 372.737304688 128.966796875 369.278320312 c 4
 149.922851562 360.32421875 181.48046875 352.513671875 211.174804688 348.931640625 c 4
 220.578125 347.796875 250.056640625 348.120117188 262.36328125 349.493164062 c 4
EndSplineSet
EndChar

StartChar: t
Encoding: 116 116 45
Width: 1000
Flags: HW
LayerCount: 2
Fore
SplineSet
480.706054688 308.7109375 m 4
 463.87890625 316.900390625 449.748046875 326.63671875 440.379882812 336.493164062 c 4
 430.174804688 347.231445312 426.575195312 357.62890625 425.458984375 379.594726562 c 6
 424.66015625 395.329101562 l 1
 418.646484375 387.524414062 l 6
 403.748046875 368.186523438 377.176757812 346.608398438 354.018554688 335.041015625 c 0
 312.806640625 314.456054688 261.592773438 312.596679688 196.35546875 329.31640625 c 0
 171.200195312 335.763671875 156.028320312 341.83203125 129.912109375 355.891601562 c 4
 72.5791015625 386.756835938 54.3935546875 400.333984375 30.681640625 429.970703125 c 4
 8.8720703125 457.231445312 -1.9521484375 497.48046875 0.2900390625 542.98828125 c 4
 4.498046875 628.413085938 36.25390625 713.317382812 80.904296875 758.522460938 c 4
 90.7177734375 768.458007812 96.3974609375 773.001953125 103.0546875 776.244140625 c 4
 107.978515625 778.641601562 115.725585938 782.75390625 120.271484375 785.381835938 c 4
 144.802734375 799.565429688 181.55078125 803.767578125 217.453125 796.4921875 c 4
 246.02734375 790.702148438 273.143554688 780.081054688 304.97265625 762.212890625 c 4
 322.848632812 752.176757812 365.265625 724.067382812 379.208007812 713.015625 c 4
 401.833984375 695.08203125 426.905273438 668.419921875 440.403320312 647.935546875 c 4
 443.759765625 642.841796875 446.73046875 638.8984375 447.00390625 639.172851562 c 4
 447.278320312 639.446289062 448.66015625 647.233398438 450.076171875 656.4765625 c 4
 451.491210938 665.719726562 452.900390625 673.533203125 453.206054688 673.83984375 c 4
 453.59375 674.2265625 491.819335938 654.833007812 499.259765625 650.474609375 c 4
 499.383789062 650.40234375 498.9453125 647.553710938 498.28515625 644.145507812 c 4
 495.9296875 631.978515625 488.727132942 581.065364266 486.009765625 557.374023438 c 0
 477.78125 485.633789062 473.962890625 436.178710938 472.6640625 384.51953125 c 4
 471.73828125 347.755859375 472.608398438 339.639648438 478.826171875 327.016601562 c 4
 480.970703125 322.66015625 482.600585938 319.096679688 482.446289062 319.096679688 c 4
 482.291992188 319.096679688 479.266601562 320.716796875 475.72265625 322.697265625 c 4
 472.178710938 324.678710938 468.98828125 326.0078125 468.633789062 325.65234375 c 4
 468.278320312 325.297851562 474.198242188 320.188476562 481.790039062 314.298828125 c 4
 500.3046875 299.93359375 500.169921875 299.237304688 480.706054688 308.7109375 c 4
262.36328125 349.493164062 m 4
 316.016601562 355.475585938 363.94921875 390.012695312 396.129882812 445.875976562 c 4
 415.481445312 479.469726562 426.244140625 511.994140625 429.657226562 547.196289062 c 4
 433.420898438 586.009765625 421.912109375 627.424804688 396.98046875 664.788085938 c 4
 385.587890625 681.861328125 375.345703125 693.888671875 357.671875 710.9453125 c 4
 339.9140625 728.084960938 319.578125 743.9296875 312.408203125 746.21484375 c 4
 309.756835938 747.059570312 303.868164062 749.783203125 299.323242188 752.266601562 c 4
 289.1015625 757.8515625 268.154296875 764.622070312 252.162109375 767.510742188 c 4
 232.916992188 770.986328125 204.65625 770.403320312 188.140625 766.189453125 c 4
 152.510742188 757.098632812 127.602539062 734.58203125 106.458984375 692.3515625 c 4
 93.935546875 667.337890625 88.27734375 644.505859375 89.578125 624.23828125 c 6
 90.22265625 614.188476562 l 5
 82.708984375 617.51171875 l 6
 78.576171875 619.338867188 72.83203125 622.040039062 69.9453125 623.512695312 c 6
 64.6943359375 626.19140625 l 5
 62.5791015625 619.672851562 l 6
 50.19921875 581.541015625 43.0576171875 525.126953125 46.28125 490.94140625 c 4
 48.482421875 467.598632812 53.341796875 449.569335938 62.34375 431.348632812 c 4
 68.4794921875 418.930664062 72.142578125 413.651367188 82.654296875 402.079101562 c 4
 94.5234375 389.013671875 109.887695312 375.56640625 112.94921875 375.56640625 c 4
 113.663085938 375.56640625 120.87109375 372.737304688 128.966796875 369.278320312 c 4
 149.922851562 360.32421875 181.48046875 352.513671875 211.174804688 348.931640625 c 4
 220.578125 347.796875 250.056640625 348.120117188 262.36328125 349.493164062 c 4
EndSplineSet
EndChar

StartChar: u
Encoding: 117 117 46
Width: 1000
Flags: HW
LayerCount: 2
Fore
SplineSet
480.706054688 308.7109375 m 4
 463.87890625 316.900390625 449.748046875 326.63671875 440.379882812 336.493164062 c 4
 430.174804688 347.231445312 426.575195312 357.62890625 425.458984375 379.594726562 c 6
 424.66015625 395.329101562 l 1
 418.646484375 387.524414062 l 6
 403.748046875 368.186523438 377.176757812 346.608398438 354.018554688 335.041015625 c 0
 312.806640625 314.456054688 261.592773438 312.596679688 196.35546875 329.31640625 c 0
 171.200195312 335.763671875 156.028320312 341.83203125 129.912109375 355.891601562 c 4
 72.5791015625 386.756835938 54.3935546875 400.333984375 30.681640625 429.970703125 c 4
 8.8720703125 457.231445312 -1.9521484375 497.48046875 0.2900390625 542.98828125 c 4
 4.498046875 628.413085938 36.25390625 713.317382812 80.904296875 758.522460938 c 4
 90.7177734375 768.458007812 96.3974609375 773.001953125 103.0546875 776.244140625 c 4
 107.978515625 778.641601562 115.725585938 782.75390625 120.271484375 785.381835938 c 4
 144.802734375 799.565429688 181.55078125 803.767578125 217.453125 796.4921875 c 4
 246.02734375 790.702148438 273.143554688 780.081054688 304.97265625 762.212890625 c 4
 322.848632812 752.176757812 365.265625 724.067382812 379.208007812 713.015625 c 4
 401.833984375 695.08203125 426.905273438 668.419921875 440.403320312 647.935546875 c 4
 443.759765625 642.841796875 446.73046875 638.8984375 447.00390625 639.172851562 c 4
 447.278320312 639.446289062 448.66015625 647.233398438 450.076171875 656.4765625 c 4
 451.491210938 665.719726562 452.900390625 673.533203125 453.206054688 673.83984375 c 4
 453.59375 674.2265625 491.819335938 654.833007812 499.259765625 650.474609375 c 4
 499.383789062 650.40234375 498.9453125 647.553710938 498.28515625 644.145507812 c 4
 495.9296875 631.978515625 488.727132942 581.065364266 486.009765625 557.374023438 c 0
 477.78125 485.633789062 473.962890625 436.178710938 472.6640625 384.51953125 c 4
 471.73828125 347.755859375 472.608398438 339.639648438 478.826171875 327.016601562 c 4
 480.970703125 322.66015625 482.600585938 319.096679688 482.446289062 319.096679688 c 4
 482.291992188 319.096679688 479.266601562 320.716796875 475.72265625 322.697265625 c 4
 472.178710938 324.678710938 468.98828125 326.0078125 468.633789062 325.65234375 c 4
 468.278320312 325.297851562 474.198242188 320.188476562 481.790039062 314.298828125 c 4
 500.3046875 299.93359375 500.169921875 299.237304688 480.706054688 308.7109375 c 4
262.36328125 349.493164062 m 4
 316.016601562 355.475585938 363.94921875 390.012695312 396.129882812 445.875976562 c 4
 415.481445312 479.469726562 426.244140625 511.994140625 429.657226562 547.196289062 c 4
 433.420898438 586.009765625 421.912109375 627.424804688 396.98046875 664.788085938 c 4
 385.587890625 681.861328125 375.345703125 693.888671875 357.671875 710.9453125 c 4
 339.9140625 728.084960938 319.578125 743.9296875 312.408203125 746.21484375 c 4
 309.756835938 747.059570312 303.868164062 749.783203125 299.323242188 752.266601562 c 4
 289.1015625 757.8515625 268.154296875 764.622070312 252.162109375 767.510742188 c 4
 232.916992188 770.986328125 204.65625 770.403320312 188.140625 766.189453125 c 4
 152.510742188 757.098632812 127.602539062 734.58203125 106.458984375 692.3515625 c 4
 93.935546875 667.337890625 88.27734375 644.505859375 89.578125 624.23828125 c 6
 90.22265625 614.188476562 l 5
 82.708984375 617.51171875 l 6
 78.576171875 619.338867188 72.83203125 622.040039062 69.9453125 623.512695312 c 6
 64.6943359375 626.19140625 l 5
 62.5791015625 619.672851562 l 6
 50.19921875 581.541015625 43.0576171875 525.126953125 46.28125 490.94140625 c 4
 48.482421875 467.598632812 53.341796875 449.569335938 62.34375 431.348632812 c 4
 68.4794921875 418.930664062 72.142578125 413.651367188 82.654296875 402.079101562 c 4
 94.5234375 389.013671875 109.887695312 375.56640625 112.94921875 375.56640625 c 4
 113.663085938 375.56640625 120.87109375 372.737304688 128.966796875 369.278320312 c 4
 149.922851562 360.32421875 181.48046875 352.513671875 211.174804688 348.931640625 c 4
 220.578125 347.796875 250.056640625 348.120117188 262.36328125 349.493164062 c 4
EndSplineSet
EndChar

